<svg width="32" height="32" viewBox="0 0 32 32" fill="none" xmlns="http://www.w3.org/2000/svg">
<path d="M27.3137 4.68625C24.2917 1.66433 20.2737 0 16 0C11.7263 0 7.70831 1.66433 4.68625 4.68625C1.66433 7.70831 0 11.7263 0 16C0 20.2737 1.66433 24.2917 4.68625 27.3137C7.70831 30.3357 11.7263 32 16 32C20.2737 32 24.2917 30.3357 27.3137 27.3137C30.3357 24.2917 32 20.2737 32 16C32 11.7263 30.3357 7.70831 27.3137 4.68625ZM16 30.0206C8.269 30.0206 1.97938 23.731 1.97938 16C1.97938 8.269 8.269 1.97938 16 1.97938C23.731 1.97938 30.0206 8.269 30.0206 16C30.0206 23.731 23.731 30.0206 16 30.0206Z" fill="#1CE0E2"/>
<path d="M11.9453 22.207L22.6918 16L11.9453 9.79297V22.207Z" fill="#1CE0E2"/>
</svg>
