<svg width="48" height="48" viewBox="0 0 48 48" fill="none" xmlns="http://www.w3.org/2000/svg">
<g filter="url(#filter0_d)">
<circle r="20" transform="matrix(0 -1 -1 0 24 20)" fill="#1CE0E2"/>
<path d="M23.9945 26.6653C23.7897 26.666 23.5868 26.624 23.3975 26.5418C23.2082 26.4595 23.0363 26.3386 22.8917 26.1859L13.3464 16.1349C13.054 15.827 12.8896 15.4094 12.8896 14.9739C12.8896 14.5385 13.054 14.1209 13.3464 13.8129C13.6389 13.505 14.0356 13.332 14.4492 13.332C14.8628 13.332 15.2595 13.505 15.552 13.8129L24.0008 22.7079L32.4495 13.8129C32.742 13.505 33.1387 13.332 33.5523 13.332C33.9659 13.332 34.3626 13.505 34.6551 13.8129C34.9476 14.1209 35.1119 14.5385 35.1119 14.9739C35.1119 15.4094 34.9476 15.827 34.6551 16.1349L25.1067 26.1876C24.9608 26.3411 24.7873 26.4624 24.5963 26.5445C24.4053 26.6265 24.2007 26.6676 23.9945 26.6653Z" fill="#180D5B"/>
</g>
<defs>
<filter id="filter0_d" x="0" y="0" width="48" height="48" filterUnits="userSpaceOnUse" color-interpolation-filters="sRGB">
<feFlood flood-opacity="0" result="BackgroundImageFix"/>
<feColorMatrix in="SourceAlpha" type="matrix" values="0 0 0 0 0 0 0 0 0 0 0 0 0 0 0 0 0 0 127 0"/>
<feOffset dy="4"/>
<feGaussianBlur stdDeviation="2"/>
<feColorMatrix type="matrix" values="0 0 0 0 0 0 0 0 0 0 0 0 0 0 0 0 0 0 0.12 0"/>
<feBlend mode="normal" in2="BackgroundImageFix" result="effect1_dropShadow"/>
<feBlend mode="normal" in="SourceGraphic" in2="effect1_dropShadow" result="shape"/>
</filter>
</defs>
</svg>
