<svg width="7" height="9" viewBox="0 0 7 9" fill="none" xmlns="http://www.w3.org/2000/svg">
<path d="M6.32418 4.50255C6.32449 4.58549 6.30715 4.66765 6.27316 4.74431C6.23918 4.82097 6.18922 4.8906 6.12618 4.94917L1.97425 8.815C1.84705 8.93345 1.67454 9 1.49466 9C1.31477 9 1.14226 8.93345 1.01506 8.815C0.887868 8.69655 0.816406 8.5359 0.816406 8.36838C0.816406 8.20087 0.887868 8.04021 1.01506 7.92176L4.68945 4.5L1.01506 1.07824C0.887868 0.959788 0.816406 0.799134 0.816406 0.631618C0.816406 0.464103 0.887868 0.303448 1.01506 0.184997C1.14226 0.0665455 1.31477 0 1.49466 0C1.67454 0 1.84705 0.0665455 1.97425 0.184997L6.12686 4.0521C6.19028 4.11118 6.2404 4.18146 6.27428 4.25881C6.30816 4.33615 6.32513 4.41902 6.32418 4.50255Z" fill="#180D5B"/>
</svg>
