<svg width="555" height="556" viewBox="0 0 555 556" fill="none" xmlns="http://www.w3.org/2000/svg">
<path d="M95.5494 155.656C100.709 181.704 83.7211 206.996 57.5478 212.155C31.3746 217.315 6.08214 200.327 0.922992 174.28C-4.23616 148.232 12.7513 122.94 38.9246 117.781C65.0978 112.621 90.3903 129.609 95.5494 155.656Z" fill="#F5F5F5"/>
<path d="M84.351 157.793C88.2519 177.675 75.2911 196.927 55.4094 200.828C35.5278 204.729 16.1495 191.768 12.2487 172.012C8.34789 152.13 21.3087 132.878 41.1903 128.977C61.0719 125.076 80.4502 137.911 84.351 157.793Z" fill="#EBEBEB"/>
<path d="M84.099 156.662C83.8474 156.662 83.4699 155.152 82.3374 152.509C81.2049 149.867 79.3174 146.092 76.0457 142.317C74.4099 140.429 72.3966 138.416 70.0057 136.654C67.6149 134.893 64.8466 133.257 61.7008 132.125C60.1908 131.495 58.5549 130.992 56.7933 130.615C55.1574 130.237 53.3958 129.86 51.5083 129.734C49.7466 129.608 47.8591 129.608 45.9716 129.734C44.0841 129.86 42.1966 130.111 40.3091 130.615C38.4216 131.118 36.66 131.621 34.8983 132.376C33.1367 133.005 31.5008 133.886 29.9908 134.767C28.4808 135.648 26.9708 136.78 25.5867 137.787C24.2025 138.919 22.9442 140.052 21.8117 141.31C19.5467 143.701 17.785 146.344 16.4009 148.986C15.0167 151.629 14.01 154.271 13.3809 156.662C12.1226 161.569 11.9967 165.722 12.1226 168.616C12.2484 171.51 12.5001 173.146 12.2484 173.146C12.1226 173.146 11.4934 171.636 10.9901 168.742C10.4867 165.848 10.2351 161.444 11.3676 156.159C11.9967 153.516 12.8776 150.748 14.2617 147.854C15.6459 144.959 17.5334 142.191 19.9242 139.423C21.0567 138.039 22.4409 136.78 23.825 135.648C25.2092 134.39 26.845 133.257 28.4808 132.25C30.1167 131.244 31.8783 130.363 33.7658 129.608C35.6533 128.853 37.5408 128.224 39.5541 127.72C41.5675 127.217 43.5808 126.965 45.5941 126.84C47.6075 126.714 49.6208 126.714 51.5083 126.965C53.3958 127.091 55.2833 127.469 57.1708 127.972C58.9324 128.475 60.6941 128.979 62.3299 129.734C65.6016 131.118 68.4957 132.879 71.0124 134.893C73.5291 136.906 75.5424 139.045 77.1782 141.059C80.4499 145.337 82.2115 149.364 82.9665 152.132C84.099 155.026 84.2249 156.662 84.099 156.662Z" fill="#E0E0E0"/>
<path d="M56.5417 185.604L57.9259 191.896L52.3893 193.028L51.1309 186.988C45.4684 187.869 39.806 187.24 36.2826 185.478L37.9185 178.054C41.1901 179.564 45.4684 180.193 49.6209 179.69L47.6076 170.378C41.0643 170.127 33.766 169.623 32.0043 161.57C30.746 155.656 34.0176 149.616 42.5743 146.722L41.3159 140.556L46.8526 139.423L48.1109 145.463C52.3893 144.96 56.6676 145.212 60.1909 146.47L58.8067 153.894C55.6609 152.888 52.5151 152.51 49.6209 152.762L51.6343 162.325C58.1776 162.451 65.35 163.08 67.1117 171.008C68.37 176.796 65.0984 182.71 56.5417 185.604ZM45.7201 162.073L44.0843 154.146C41.3159 155.404 40.4351 157.292 40.8126 159.179C41.1901 161.193 43.0776 161.822 45.7201 162.073ZM58.1776 173.524C57.8001 171.511 55.9126 170.882 53.2701 170.504L54.9059 178.18C57.6742 177.048 58.5551 175.412 58.1776 173.524Z" fill="#E0E0E0"/>
<path d="M224.905 326.662C227.925 341.888 217.984 356.736 202.632 359.756C187.407 362.776 172.558 352.835 169.538 337.609C166.518 322.383 176.459 307.535 191.811 304.515C207.037 301.495 221.885 311.436 224.905 326.662Z" fill="#F5F5F5"/>
<path d="M218.235 327.922C220.5 339.498 212.95 350.823 201.247 353.088C189.545 355.353 178.346 347.803 175.955 336.227C173.69 324.65 181.24 313.325 192.942 311.06C204.645 308.795 215.97 316.345 218.235 327.922Z" fill="#EBEBEB"/>
<path d="M218.109 327.29C217.984 327.29 217.732 326.41 217.103 324.9C216.474 323.39 215.341 321.125 213.454 318.86C212.447 317.727 211.314 316.595 209.93 315.588C208.546 314.581 206.91 313.575 205.149 312.945C204.268 312.568 203.261 312.316 202.255 312.065C201.248 311.813 200.241 311.687 199.235 311.561C198.228 311.435 197.095 311.435 195.963 311.561C194.83 311.687 193.824 311.813 192.691 312.065C191.559 312.316 190.552 312.694 189.545 313.071C188.539 313.449 187.532 313.952 186.651 314.455C185.77 314.959 184.89 315.588 184.135 316.217C183.38 316.846 182.625 317.601 181.995 318.23C180.611 319.615 179.605 321.25 178.85 322.76C178.095 324.27 177.465 325.78 177.088 327.29C176.333 330.185 176.333 332.575 176.333 334.337C176.459 335.973 176.585 336.979 176.459 336.979C176.333 336.979 175.955 336.099 175.704 334.463C175.452 332.701 175.326 330.185 175.955 327.165C176.333 325.655 176.836 324.019 177.591 322.257C178.346 320.621 179.479 318.86 180.863 317.35C181.618 316.595 182.373 315.84 183.128 315.085C184.009 314.33 184.89 313.7 185.896 313.071C186.903 312.442 187.91 311.939 189.042 311.561C190.175 311.058 191.307 310.806 192.44 310.429C193.572 310.177 194.83 310.051 195.963 309.925C197.095 309.8 198.354 309.925 199.486 309.925C200.619 310.051 201.751 310.177 202.758 310.555C203.765 310.806 204.897 311.184 205.778 311.561C207.665 312.316 209.427 313.449 210.811 314.581C212.321 315.714 213.454 316.972 214.46 318.23C216.348 320.747 217.354 323.138 217.858 324.774C218.235 326.284 218.235 327.29 218.109 327.29Z" fill="#E0E0E0"/>
<path d="M202 344.155L202.755 347.804L199.484 348.559L198.729 345.036C195.457 345.539 192.185 345.161 190.046 344.155L191.053 339.751C192.94 340.631 195.457 341.009 197.848 340.757L196.715 335.346C192.94 335.221 188.536 334.843 187.655 330.187C186.9 326.664 188.788 323.266 193.821 321.505L193.066 317.856L196.338 317.101L197.093 320.624C199.61 320.246 202.126 320.498 204.14 321.253L203.385 325.657C201.497 325.028 199.735 324.902 197.974 325.028L199.106 330.565C202.881 330.691 207.16 331.068 208.166 335.598C208.921 338.996 207.034 342.519 202 344.155ZM195.709 330.439L194.702 325.783C193.066 326.538 192.563 327.671 192.815 328.677C193.066 329.936 194.199 330.313 195.709 330.439ZM203.007 337.108C202.755 335.976 201.623 335.598 200.113 335.346L201.12 339.876C202.755 339.247 203.259 338.241 203.007 337.108Z" fill="#E0E0E0"/>
<path d="M514.824 246.507L513.314 252.547L507.903 251.289L509.288 245.374C504.003 243.739 499.221 240.844 496.83 237.824L501.36 231.91C503.625 234.553 507.148 236.944 510.923 238.328L513.063 229.268C507.4 226.374 501.108 222.724 502.996 214.923C504.38 209.134 509.791 205.234 518.599 206.366L520.109 200.326L525.52 201.585L524.136 207.499C528.162 208.757 531.812 210.896 534.328 213.413L530.05 219.453C527.659 217.188 525.017 215.552 522.374 214.671L520.109 223.857C525.772 226.751 531.937 230.274 530.05 237.95C528.792 243.613 523.507 247.514 514.824 246.507ZM515.076 221.214L516.963 213.539C513.943 213.539 512.433 214.797 511.93 216.559C511.553 218.446 512.937 219.83 515.076 221.214ZM521.368 236.566C521.871 234.679 520.487 233.294 518.347 231.91L516.586 239.46C519.354 239.334 520.864 238.202 521.368 236.566Z" fill="#EBEBEB"/>
<path d="M532.443 103.057L532.946 113.879L523.257 114.257L522.754 103.812C513.19 103.687 503.879 101.044 498.468 97.1433L503.25 85.1891C508.283 88.5866 515.33 90.8516 522.25 91.2291L521.495 75.1225C510.674 72.9833 498.594 69.9633 497.965 56.1217C497.461 45.9292 504.508 36.8693 519.734 34.3526L519.23 23.6568L528.92 23.2793L529.423 33.7234C536.721 33.9751 543.768 35.6109 549.304 38.7568L545.026 50.8367C539.993 48.3201 534.959 46.8101 530.052 46.4326L530.807 62.7909C541.629 64.8042 553.583 67.8242 554.086 81.4141C554.464 91.4808 547.417 100.541 532.443 103.057ZM520.866 60.7775L520.237 47.0617C515.204 48.4459 513.316 51.3401 513.442 54.4859C513.694 58.0092 516.588 59.645 520.866 60.7775ZM538.483 83.3016C538.357 79.9041 535.463 78.2683 531.31 77.01L531.94 90.3483C536.595 88.9641 538.609 86.4475 538.483 83.3016Z" fill="#EBEBEB"/>
<path d="M551.314 518.182C551.314 518.287 442.834 518.496 309.086 518.496C175.338 518.496 66.8574 518.391 66.8574 518.182C66.8574 518.078 175.234 517.869 309.086 517.869C442.834 517.974 551.314 518.078 551.314 518.182Z" fill="#041F60"/>
<path d="M475.686 312.316H78.3051C73.2718 312.316 69.2451 308.289 69.2451 303.256V9.68751C69.2451 4.65419 73.2718 0.627533 78.3051 0.627533H475.686C480.719 0.627533 484.746 4.65419 484.746 9.68751V303.256C484.746 308.289 480.719 312.316 475.686 312.316Z" fill="white"/>
<path d="M475.689 312.316C475.689 312.19 476.948 312.442 479.339 311.561C480.471 311.058 481.729 310.177 482.862 308.793C483.994 307.409 484.749 305.27 484.749 302.879C484.749 293.315 484.749 279.222 484.749 260.976C484.749 224.611 484.75 171.887 484.624 106.831C484.624 90.5985 484.624 73.4852 484.624 55.7427C484.624 46.8086 484.624 37.7486 484.624 28.5628C484.624 23.907 484.624 19.2511 484.624 14.5953C484.624 13.4628 484.624 12.2045 484.624 11.072C484.624 9.9395 484.624 8.68117 484.372 7.67451C483.869 5.40951 482.359 3.39618 480.345 2.26369C479.339 1.63452 478.206 1.25702 477.074 1.13119C475.941 1.00536 474.683 1.00536 473.55 1.00536C471.16 1.00536 468.769 1.00536 466.252 1.00536C461.345 1.00536 456.437 1.00536 451.53 1.00536C441.589 1.00536 431.648 1.00536 421.455 1.00536C401.071 1.00536 380.056 1.00536 358.539 1.00536C272.469 1.00536 177.843 1.00536 78.5605 1.00536C75.5405 1.00536 72.6464 2.64118 71.1364 5.15785C70.3814 6.41618 69.878 7.92617 69.878 9.43617C69.878 10.9462 69.878 12.4562 69.878 14.092C69.878 20.2578 69.878 26.4236 69.878 32.5894C69.878 44.7952 69.878 57.0011 69.878 69.081C69.878 93.241 69.878 117.149 69.878 140.554C69.878 187.364 69.878 232.538 69.878 275.573C69.878 280.984 69.878 286.269 69.878 291.554C69.878 294.196 69.878 296.839 69.878 299.481C69.878 300.74 69.878 302.124 69.878 303.382C69.878 304.64 70.2555 305.899 70.7589 307.031C71.8914 309.296 74.0305 311.058 76.4214 311.687C77.6797 312.065 78.938 311.939 80.1963 311.939C81.4547 311.939 82.8388 311.939 84.0972 311.939C89.2563 311.939 94.4155 311.939 99.4488 311.939C119.834 311.939 139.59 311.939 158.716 311.939C196.969 311.939 232.58 311.939 265.171 311.939C330.227 311.939 382.951 312.065 419.316 312.065C437.562 312.065 451.655 312.065 461.219 312.065C466 312.065 469.65 312.065 472.166 312.065C474.431 312.316 475.689 312.316 475.689 312.316C475.689 312.316 474.431 312.316 471.914 312.316C469.398 312.316 465.749 312.316 460.967 312.316C451.404 312.316 437.31 312.316 419.065 312.316C382.699 312.316 329.975 312.316 264.919 312.442C232.328 312.442 196.718 312.442 158.464 312.442C139.338 312.442 119.582 312.442 99.1971 312.442C94.038 312.442 89.0047 312.442 83.8455 312.442C82.5872 312.442 81.203 312.442 79.9447 312.442C78.6864 312.442 77.3022 312.442 76.0439 312.19C73.4014 311.561 71.1364 309.674 70.0039 307.283C69.3747 306.025 69.123 304.766 69.123 303.382C69.123 302.124 69.123 300.74 69.123 299.481C69.123 296.839 69.123 294.196 69.123 291.554C69.123 286.269 69.123 280.858 69.123 275.573C69.123 232.538 69.123 187.364 69.123 140.554C69.123 117.149 69.123 93.3668 69.123 69.081C69.123 57.0011 69.123 44.7952 69.123 32.5894C69.123 26.4236 69.123 20.2578 69.123 14.092C69.123 12.582 69.123 11.072 69.123 9.43617C69.123 7.80034 69.6264 6.29034 70.5072 4.90618C72.143 2.13785 75.2889 0.37619 78.5605 0.37619C177.843 0.37619 272.469 0.37619 358.539 0.37619C380.056 0.37619 401.071 0.37619 421.455 0.37619C431.648 0.37619 441.715 0.37619 451.53 0.37619C456.437 0.37619 461.345 0.37619 466.252 0.37619C468.643 0.37619 471.16 0.37619 473.55 0.37619C474.809 0.37619 475.941 0.37619 477.199 0.502023C478.458 0.627856 479.59 1.13119 480.723 1.76035C482.862 3.01868 484.372 5.15785 485.001 7.54867C485.379 8.68117 485.253 9.9395 485.253 11.1978C485.253 12.3303 485.253 13.5887 485.253 14.7212C485.253 19.377 485.253 24.0328 485.253 28.6886C485.253 37.8744 485.253 46.9344 485.253 55.8686C485.253 73.611 485.253 90.7243 485.253 106.957C485.253 172.012 485.127 224.736 485.127 261.102C485.127 279.348 485.127 293.441 485.127 303.005C485.127 305.395 484.372 307.535 483.239 308.919C482.107 310.429 480.723 311.184 479.59 311.687C478.458 312.19 477.577 312.316 476.948 312.316C475.941 312.316 475.689 312.316 475.689 312.316Z" fill="#263238"/>
<path d="M454.801 129.989H293.357C287.971 129.989 283.539 125.557 283.539 120.17V58.5122C283.539 53.1258 287.971 48.6939 293.357 48.6939H454.801C460.187 48.6939 464.619 53.1258 464.619 58.5122V120.17C464.619 125.557 460.187 129.989 454.801 129.989Z" stroke="#1EE5E7"/>
<path opacity="0.2" d="M440.325 104.16V107.432H437.431V104.286C434.537 104.16 431.769 103.154 430.133 101.895L431.769 98.3721C433.279 99.5046 435.292 100.26 437.431 100.385V95.4779C434.159 94.7229 430.636 93.5905 430.636 89.438C430.636 86.2921 432.901 83.6496 437.431 83.1463V80.0005H440.325V83.1463C442.464 83.2721 444.604 83.9013 446.239 84.908L444.729 88.5571C443.219 87.6763 441.709 87.173 440.325 87.0471V91.9546C443.597 92.7096 447.12 93.8421 447.12 97.8688C447.12 101.015 444.855 103.657 440.325 104.16ZM437.305 91.3255V87.173C435.795 87.5505 435.166 88.4313 435.166 89.3121C435.166 90.3188 436.047 90.8221 437.305 91.3255ZM442.339 98.2463C442.339 97.2396 441.458 96.6104 440.199 96.2329V100.26C441.709 100.008 442.339 99.2529 442.339 98.2463Z" fill="#062161"/>
<path opacity="0.2" d="M411.4 94.4684V99.0005H407.311V94.6427C403.222 94.4684 399.311 93.0739 397 91.3308L399.311 86.45C401.444 88.0188 404.289 89.0647 407.311 89.239V82.4409C402.689 81.395 397.711 79.8262 397.711 74.0739C397.711 69.7161 400.911 66.0555 407.311 65.3583V61.0005H411.4V65.3583C414.422 65.5326 417.444 66.4042 419.756 67.7987L417.622 72.8537C415.489 71.6335 413.356 70.9363 411.4 70.762V77.5601C416.022 78.606 421 80.1748 421 85.7528C421 90.1106 417.8 93.7711 411.4 94.4684ZM407.133 76.6886V70.9363C405 71.4592 404.111 72.6794 404.111 73.8996C404.111 75.2941 405.356 75.9913 407.133 76.6886ZM414.244 86.2757C414.244 84.8812 413 84.0097 411.222 83.4867V89.0647C413.356 88.7161 414.244 87.6702 414.244 86.2757Z" fill="#062161"/>
<path d="M264.919 130.295H103.35C97.6871 130.295 93.0312 125.639 93.0312 119.977V58.3188C93.0312 52.6563 97.6871 48.0005 103.35 48.0005H264.793C270.456 48.0005 275.112 52.6563 275.112 58.3188V119.977C275.237 125.639 270.582 130.295 264.919 130.295Z" fill="#D6D6D6"/>
<path d="M208.4 95.3277V100H204.311V95.5074C200.222 95.3277 196.311 93.8899 194 92.0927L196.311 87.0604C198.444 88.6779 201.289 89.7563 204.311 89.936V82.9268C199.689 81.8484 194.711 80.2309 194.711 74.3C194.711 69.8069 197.911 66.0327 204.311 65.3139V61.0005H208.4V65.4936C211.422 65.6733 214.444 66.5719 216.756 68.0097L214.622 73.2217C212.489 71.9636 210.356 71.2447 208.4 71.065V78.0742C213.022 79.1526 218 80.7701 218 86.5212C218 90.8346 214.8 94.6088 208.4 95.3277ZM204.311 76.9959V71.065C202.178 71.6042 201.289 72.8622 201.289 74.1203C201.289 75.5581 202.533 76.4567 204.311 76.9959ZM211.422 87.0604C211.422 85.6226 210.178 84.724 208.4 84.1848V89.936C210.533 89.3968 211.422 88.3185 211.422 87.0604Z" fill="#EBEBEB"/>
<path d="M238.16 106.33V108.846H235.895V106.33C233.63 106.204 231.491 105.449 230.233 104.568L231.491 101.8C232.624 102.681 234.26 103.184 235.895 103.436V99.6605C233.379 99.0314 230.61 98.2764 230.61 95.0047C230.61 92.6139 232.372 90.6006 235.895 90.0972V87.5806H238.16V90.0972C239.796 90.2231 241.558 90.7264 242.69 91.4814L241.558 94.2497C240.425 93.6206 239.293 93.2431 238.16 93.1172V96.8922C240.677 97.5214 243.445 98.2764 243.445 101.548C243.445 103.939 241.684 105.952 238.16 106.33ZM235.895 96.3889V93.1172C234.637 93.3689 234.26 93.9981 234.26 94.7531C234.26 95.6339 234.889 96.0114 235.895 96.3889ZM239.796 101.8C239.796 101.045 239.167 100.541 238.16 100.29V103.436C239.293 103.058 239.796 102.555 239.796 101.8Z" fill="#EBEBEB"/>
<path d="M452.032 293.442C452.032 293.442 452.284 293.442 452.661 293.442C453.165 293.442 453.794 293.316 454.549 293.191C456.185 292.813 458.827 291.932 461.092 289.416C462.225 288.157 463.357 286.521 463.986 284.634C464.238 283.627 464.49 282.621 464.615 281.488C464.741 280.356 464.615 279.097 464.615 277.965C464.615 273.057 464.615 267.269 464.615 260.852C464.615 247.891 464.615 232.162 464.615 213.79C464.615 204.604 464.615 194.789 464.615 184.471C464.615 179.312 464.615 173.901 464.615 168.49C464.615 165.722 464.615 162.953 464.615 160.185C464.615 158.801 464.615 157.291 464.49 155.907C464.364 154.523 463.986 153.138 463.357 151.88C462.225 149.363 460.085 147.098 457.443 145.84C456.185 145.211 454.675 144.833 453.29 144.708C451.78 144.582 450.27 144.708 448.76 144.708C442.72 144.708 436.555 144.708 430.263 144.708C417.68 144.708 404.593 144.708 391.003 144.708C363.823 144.708 334.882 144.708 304.304 144.708C243.275 144.708 176.206 144.708 105.74 144.708C103.6 144.708 101.461 145.211 99.5738 146.343C97.6863 147.35 96.1763 148.986 95.0438 150.748C93.9113 152.509 93.2821 154.648 93.2821 156.788C93.2821 158.927 93.2821 161.192 93.2821 163.331C93.2821 172.013 93.2821 180.696 93.2821 189.253C93.2821 206.366 93.2821 223.353 93.2821 239.963C93.2821 248.268 93.2821 256.447 93.2821 264.627C93.2821 268.653 93.2821 272.806 93.2821 276.832V279.852C93.2821 280.859 93.2821 281.866 93.408 282.872C93.6596 284.76 94.4146 286.647 95.5471 288.283C96.6796 289.919 98.1896 291.177 99.8255 292.058C101.587 292.939 103.475 293.442 105.362 293.442C109.263 293.442 113.29 293.442 117.19 293.442C124.992 293.442 132.668 293.442 140.344 293.442C201.373 293.442 256.362 293.442 302.542 293.568C348.723 293.568 386.096 293.694 411.891 293.694C424.852 293.694 434.793 293.694 441.588 293.694C444.985 293.694 447.628 293.694 449.264 293.694C451.151 293.442 452.032 293.442 452.032 293.442C452.032 293.442 451.151 293.442 449.39 293.442C447.628 293.442 445.111 293.442 441.714 293.442C434.919 293.442 424.852 293.442 412.017 293.442C386.221 293.442 348.849 293.442 302.668 293.568C256.488 293.568 201.499 293.568 140.47 293.694C132.794 293.694 125.118 293.694 117.316 293.694C113.415 293.694 109.515 293.694 105.488 293.694C103.475 293.694 101.461 293.191 99.6996 292.184C97.938 291.177 96.3021 289.793 95.1696 288.157C93.9113 286.521 93.1563 284.508 92.9046 282.495C92.7788 281.488 92.7788 280.481 92.7788 279.475V276.455C92.7788 272.428 92.7788 268.402 92.7788 264.249C92.7788 256.07 92.7788 247.891 92.7788 239.586C92.7788 222.976 92.7788 206.114 92.7788 188.875C92.7788 180.318 92.7788 171.636 92.7788 162.953C92.7788 160.814 92.7788 158.549 92.7788 156.41C92.9046 154.145 93.408 152.006 94.6663 149.993C95.7988 148.105 97.4346 146.469 99.448 145.337C101.461 144.204 103.726 143.701 105.865 143.575C176.332 143.575 243.401 143.575 304.43 143.575C334.882 143.575 363.949 143.575 391.129 143.575C404.719 143.575 417.805 143.575 430.389 143.575C436.68 143.575 442.846 143.575 448.886 143.575C450.396 143.575 451.906 143.575 453.416 143.701C454.926 143.827 456.436 144.33 457.82 144.959C460.589 146.218 462.728 148.483 463.986 151.125C464.615 152.509 464.993 153.893 465.119 155.278C465.245 156.788 465.119 158.172 465.245 159.556C465.245 162.324 465.245 165.093 465.245 167.861C465.245 173.398 465.245 178.683 465.245 183.842C465.245 194.286 465.245 204.101 465.245 213.161C465.245 231.532 465.245 247.262 465.245 260.222C465.245 266.64 465.245 272.428 465.245 277.336C465.245 278.594 465.245 279.726 465.245 280.985C465.245 282.117 464.993 283.25 464.615 284.256C463.986 286.27 462.854 287.906 461.721 289.164C459.33 291.681 456.688 292.561 455.052 292.813C454.171 292.939 453.542 293.065 453.039 293.065C452.284 293.442 452.032 293.442 452.032 293.442Z" fill="#E0E0E0"/>
<path d="M218.736 237.069H206.656V285.011H218.736V237.069Z" fill="#EBEBEB"/>
<path d="M236.858 251.667H224.778V285.138H236.858V251.667Z" fill="#EBEBEB"/>
<path d="M201.499 251.667H189.419V285.138H201.499V251.667Z" fill="#EBEBEB"/>
<path d="M166.013 280.609H153.933V285.013H166.013V280.609Z" fill="#EBEBEB"/>
<path d="M184.01 273.94H171.93V285.139H184.01V273.94Z" fill="#EBEBEB"/>
<path d="M148.776 281.361H136.696V285.011H148.776V281.361Z" fill="#EBEBEB"/>
<path d="M130.53 281.361H118.45V285.011H130.53V281.361Z" fill="#EBEBEB"/>
<path d="M255.984 258.332H243.904V285.009H255.984V258.332Z" fill="#EBEBEB"/>
<path d="M274.986 265.631H262.906V285.009H274.986V265.631Z" fill="#EBEBEB"/>
<path d="M294.113 251.667H282.033V285.138H294.113V251.667Z" fill="#EBEBEB"/>
<path d="M313.113 230.776H301.033V285.136H313.113V230.776Z" fill="#EBEBEB"/>
<path d="M332.113 214.672H320.033V285.138H332.113V214.672Z" fill="#EBEBEB"/>
<path d="M351.242 237.069H339.162V285.011H351.242V237.069Z" fill="#EBEBEB"/>
<path d="M370.243 194.034H358.163V285.011H370.243V194.034Z" fill="#EBEBEB"/>
<path d="M389.368 237.069H377.288V285.011H389.368V237.069Z" fill="#EBEBEB"/>
<path d="M408.371 251.667H396.291V285.138H408.371V251.667Z" fill="#EBEBEB"/>
<path d="M427.495 257.957H415.415V285.137H427.495V257.957Z" fill="#EBEBEB"/>
<path d="M446.496 265.631H434.417V285.009H446.496V265.631Z" fill="#EBEBEB"/>
<path d="M128.392 285.01C128.392 285.01 128.77 285.01 129.525 285.01C130.28 285.01 131.538 285.01 133.048 285.01C136.068 285.01 140.598 285.01 146.386 285.01C147.896 285.01 149.406 285.01 151.042 285.01C152.678 285.01 154.314 285.01 156.075 284.759C159.599 284.255 163.248 283.123 166.771 280.984C168.533 279.851 170.169 278.467 171.553 276.831C172.937 275.195 173.818 273.056 174.824 270.917C176.712 266.639 178.474 261.983 180.109 257.075C181.871 252.168 183.633 247.009 185.52 241.598C186.527 238.955 187.408 236.187 188.54 233.419C189.673 230.65 190.931 227.882 192.693 225.365C194.454 222.849 196.468 220.332 198.859 218.319C201.249 216.305 204.144 214.544 207.164 213.411C210.309 212.279 213.581 211.775 216.979 211.65C220.376 211.65 223.773 211.901 227.171 212.908C228.807 213.285 230.443 214.04 232.078 214.795C233.588 215.676 235.098 216.557 236.483 217.69C239.251 219.955 241.39 222.975 243.026 226.12C244.662 229.392 245.668 232.915 246.801 236.439C247.933 239.962 249.066 243.485 250.198 247.009C252.715 254.055 255.483 261.228 259.762 267.519C261.901 270.665 264.543 273.685 267.815 275.699C269.451 276.705 271.213 277.46 273.1 277.838C273.981 278.089 274.988 278.089 275.994 278.089C277.001 278.089 278.008 278.089 278.888 277.964C281.531 277.712 284.173 277.083 286.438 275.824C288.703 274.566 290.591 272.679 292.101 270.539C293.611 268.4 294.869 266.135 296.253 263.744C297.512 261.479 298.644 259.089 299.777 256.698C303.929 247.135 306.446 237.194 310.347 228.134C312.108 223.478 313.996 218.948 316.387 214.795C318.777 210.517 321.672 206.742 325.069 203.47C326.705 201.835 328.592 200.325 330.606 199.192C332.619 197.934 334.758 197.179 336.897 196.424C341.176 195.04 345.706 194.662 349.984 194.788C354.262 195.04 358.541 195.795 362.441 197.179C366.342 198.563 369.866 200.828 372.76 203.345C378.674 208.504 382.952 214.67 387.86 219.451C392.641 224.359 398.681 227.253 404.218 229.015C409.755 230.776 415.165 231.657 419.947 232.035C429.636 232.035 437.06 232.035 442.094 232.16C444.61 232.16 446.498 232.16 447.756 232.16C449.015 232.16 449.644 232.16 449.644 232.16C449.644 232.16 449.015 232.16 447.756 232.16C446.498 232.16 444.61 232.16 442.094 232.16C437.06 232.16 429.636 232.16 419.947 232.286C415.165 231.909 409.755 231.154 404.092 229.392C398.556 227.63 392.516 224.736 387.608 219.703C382.701 214.795 378.422 208.755 372.508 203.596C369.614 200.954 366.216 198.94 362.316 197.556C358.541 196.172 354.262 195.417 350.11 195.166C345.832 195.04 341.427 195.417 337.149 196.801C332.871 198.185 328.97 200.45 325.698 203.722C322.301 206.868 319.532 210.643 317.142 214.921C314.751 219.074 312.989 223.604 311.102 228.26C307.327 237.445 304.684 247.26 300.532 256.95C299.525 259.34 298.392 261.731 297.008 263.996C295.75 266.261 294.492 268.652 292.856 270.791C291.346 272.93 289.332 274.944 286.942 276.328C284.551 277.586 281.783 278.341 279.14 278.593C278.133 278.719 277.127 278.719 276.12 278.719C275.113 278.719 274.107 278.593 273.1 278.467C271.087 278.089 269.199 277.334 267.563 276.202C264.166 274.063 261.523 271.043 259.384 267.897C254.98 261.479 252.212 254.307 249.695 247.26C248.437 243.737 247.304 240.214 246.298 236.69C245.165 233.167 244.158 229.644 242.523 226.498C240.887 223.352 238.748 220.458 236.105 218.193C234.847 217.06 233.337 216.18 231.827 215.299C230.317 214.544 228.681 213.915 227.045 213.411C223.774 212.53 220.376 212.153 217.104 212.153C213.833 212.153 210.561 212.656 207.541 213.789C201.501 215.928 196.594 220.458 193.322 225.491C189.924 230.525 188.163 236.187 186.149 241.598C184.262 247.009 182.5 252.042 180.739 256.95C178.977 261.857 177.215 266.513 175.328 270.791C174.321 272.93 173.44 275.069 171.93 276.705C170.546 278.341 168.784 279.851 167.023 280.984C163.5 283.249 159.725 284.381 156.201 284.759C154.44 285.01 152.678 285.01 151.168 285.01C149.532 285.01 148.022 285.01 146.512 285.01C140.724 285.01 136.194 285.01 133.174 285.01C131.664 285.01 130.531 285.01 129.65 285.01C128.77 285.136 128.392 285.01 128.392 285.01Z" fill="#1AD2D4"/>
<path d="M245.413 173.648H177.463C176.456 173.648 175.575 174.528 175.575 175.535V198.94C175.575 199.947 176.456 200.828 177.463 200.828H211.815C212.318 200.828 212.822 201.079 213.199 201.457C214.332 202.589 215.716 204.225 216.723 205.358C217.478 206.238 218.862 206.112 219.617 205.358L223.14 201.457C223.518 201.079 224.021 200.828 224.524 200.828H245.287C246.293 200.828 247.174 199.947 247.174 198.94V175.535C247.426 174.528 246.545 173.648 245.413 173.648Z" fill="#1AD2D4"/>
<path d="M171.047 240.213H114.422C113.793 240.213 113.29 240.716 113.29 241.346V255.187C113.29 255.816 113.793 256.32 114.422 256.32H134.807C135.184 256.32 135.436 256.446 135.688 256.697C136.317 257.452 137.198 258.333 137.827 258.962C138.33 259.466 139.085 259.466 139.463 258.962L141.602 256.697C141.854 256.446 142.105 256.32 142.483 256.32H171.047C171.676 256.32 172.179 255.816 172.179 255.187V241.346C172.179 240.716 171.676 240.213 171.047 240.213Z" fill="#F5F5F5"/>
<path d="M220.626 211.775C220.626 213.285 219.494 214.417 217.984 214.417C216.474 214.417 215.341 213.285 215.341 211.775C215.341 210.265 216.474 209.132 217.984 209.132C219.494 209.132 220.626 210.265 220.626 211.775Z" fill="#041F60"/>
<path d="M217.984 214.417C216.474 214.417 215.341 213.159 215.341 211.775C215.341 210.265 216.6 209.132 217.984 209.132C219.494 209.132 220.626 210.391 220.626 211.775C220.626 213.285 219.494 214.417 217.984 214.417ZM217.984 209.132C216.6 209.132 215.341 210.265 215.341 211.775C215.341 213.285 216.474 214.417 217.984 214.417C219.368 214.417 220.626 213.285 220.626 211.775C220.626 210.265 219.368 209.132 217.984 209.132Z" fill="#041F60"/>
<path d="M193.321 191.645V192.903H192.189V191.645C191.056 191.519 189.924 191.267 189.294 190.764L189.924 189.38C190.553 189.757 191.308 190.135 192.189 190.26V188.373C190.93 188.121 189.42 187.618 189.42 185.982C189.42 184.724 190.301 183.717 192.189 183.465V182.207H193.321V183.465C194.202 183.591 195.083 183.717 195.712 184.22L195.083 185.605C194.454 185.227 193.95 185.101 193.321 184.975V186.989C194.579 187.24 195.964 187.744 195.964 189.38C195.964 190.386 195.083 191.519 193.321 191.645ZM192.189 186.611V184.975C191.559 185.101 191.308 185.479 191.308 185.856C191.308 186.234 191.685 186.36 192.189 186.611ZM194.202 189.38C194.202 189.002 193.824 188.75 193.321 188.625V190.26C193.95 190.009 194.202 189.757 194.202 189.38Z" fill="white"/>
<path d="M199.736 183.466V191.519H197.849V184.976H196.213V183.466H199.736Z" fill="white"/>
<path d="M207.286 189C207.286 190.385 206.28 191.643 203.889 191.643C202.756 191.643 201.624 191.391 200.743 190.762L201.498 189.378C202.127 189.881 203.008 190.133 203.763 190.133C204.644 190.133 205.273 189.755 205.273 189.126C205.273 188.497 204.896 188.12 203.386 188.12H201.498L201.876 183.59H206.783V185.1H203.386L203.26 186.61H203.889C206.406 186.484 207.286 187.616 207.286 189Z" fill="white"/>
<path d="M210.307 190.512C210.307 190.764 210.307 191.016 210.055 191.645L209.426 193.281H208.294L208.797 191.393C208.42 191.267 208.168 190.89 208.168 190.386C208.168 189.757 208.671 189.254 209.3 189.254C209.804 189.506 210.307 189.883 210.307 190.512Z" fill="white"/>
<path d="M210.933 187.492C210.933 184.85 212.443 183.34 214.456 183.34C216.47 183.34 217.98 184.85 217.98 187.492C217.98 190.134 216.47 191.644 214.456 191.644C212.443 191.77 210.933 190.26 210.933 187.492ZM215.966 187.492C215.966 185.605 215.337 184.85 214.331 184.85C213.45 184.85 212.695 185.605 212.695 187.492C212.695 189.379 213.324 190.135 214.331 190.135C215.337 190.135 215.966 189.379 215.966 187.492Z" fill="white"/>
<path d="M218.738 187.492C218.738 184.85 220.248 183.34 222.262 183.34C224.275 183.34 225.785 184.85 225.785 187.492C225.785 190.134 224.275 191.644 222.262 191.644C220.248 191.77 218.738 190.26 218.738 187.492ZM223.897 187.492C223.897 185.605 223.268 184.85 222.262 184.85C221.381 184.85 220.626 185.605 220.626 187.492C220.626 189.379 221.255 190.135 222.262 190.135C223.142 190.135 223.897 189.379 223.897 187.492Z" fill="white"/>
<path d="M226.664 187.492C226.664 184.85 228.174 183.34 230.187 183.34C232.2 183.34 233.71 184.85 233.71 187.492C233.71 190.134 232.2 191.644 230.187 191.644C228.174 191.77 226.664 190.26 226.664 187.492ZM231.697 187.492C231.697 185.605 231.068 184.85 230.061 184.85C229.18 184.85 228.425 185.605 228.425 187.492C228.425 189.379 229.054 190.135 230.061 190.135C231.068 190.135 231.697 189.379 231.697 187.492Z" fill="white"/>
<path d="M485.002 23.4049H68.998V7.54998C68.998 3.39749 72.3955 0 76.548 0H477.452C481.604 0 485.002 3.39749 485.002 7.54998V23.4049Z" fill="#062161"/>
<path d="M84.0972 15.4785C85.9736 15.4785 87.4947 13.9574 87.4947 12.081C87.4947 10.2047 85.9736 8.68355 84.0972 8.68355C82.2208 8.68355 80.6997 10.2047 80.6997 12.081C80.6997 13.9574 82.2208 15.4785 84.0972 15.4785Z" fill="#F5F5F5"/>
<path d="M94.5415 15.4785C96.4179 15.4785 97.939 13.9574 97.939 12.081C97.939 10.2047 96.4179 8.68355 94.5415 8.68355C92.6651 8.68355 91.144 10.2047 91.144 12.081C91.144 13.9574 92.6651 15.4785 94.5415 15.4785Z" fill="#F5F5F5"/>
<path d="M104.86 15.4785C106.736 15.4785 108.257 13.9574 108.257 12.081C108.257 10.2047 106.736 8.68355 104.86 8.68355C102.984 8.68355 101.462 10.2047 101.462 12.081C101.462 13.9574 102.984 15.4785 104.86 15.4785Z" fill="#F5F5F5"/>
<path d="M517.09 518.18C528.792 518.305 538.985 510.001 541.25 498.55C545.276 478.291 550.435 449.852 550.561 417.891C550.687 398.387 546.283 373.598 540.243 354.974C531.435 327.794 512.434 303.886 485.002 295.959C449.266 285.766 436.431 289.667 411.012 303.005C383.455 317.476 376.031 344.53 347.341 356.61C319.532 368.313 285.934 364.286 260.642 380.644C238.369 394.989 227.422 422.672 226.541 449.223C226.038 466.085 227.548 478.165 230.568 491.126C233.965 505.596 247.052 518.054 262.026 518.18H517.09Z" fill="#1CE0E2"/>
<g opacity="0.4">
<g opacity="0.4">
<path opacity="0.4" d="M517.09 518.18C528.792 518.305 538.985 510.001 541.25 498.55C545.276 478.291 550.435 449.852 550.561 417.891C550.687 398.387 546.283 373.598 540.243 354.974C531.435 327.794 512.434 303.886 485.002 295.959C449.266 285.766 436.431 289.667 411.012 303.005C383.455 317.476 376.031 344.53 347.341 356.61C319.532 368.313 285.934 364.286 260.642 380.644C238.369 394.989 227.422 422.672 226.541 449.223C226.038 466.085 227.548 478.165 230.568 491.126C233.965 505.596 247.052 518.054 262.026 518.18H517.09Z" fill="black"/>
</g>
</g>
<path d="M498.844 300.865C498.844 300.865 498.97 300.991 499.096 301.369C499.222 301.746 499.473 302.25 499.851 302.879C500.48 304.263 501.361 306.276 502.619 308.793C503.248 310.051 503.877 311.435 504.632 313.071C505.387 314.581 505.891 316.343 506.646 318.23C507.401 320.118 508.156 322.131 508.911 324.144C509.792 326.284 510.547 328.549 511.302 330.939C512.057 333.33 512.812 335.847 513.692 338.489C514.196 339.748 514.447 341.132 514.825 342.516C515.202 343.9 515.58 345.284 515.957 346.794C516.335 348.179 516.712 349.689 517.09 351.199C517.342 351.954 517.467 352.709 517.719 353.464C517.845 354.219 517.971 354.974 518.222 355.729C518.852 358.874 519.481 362.02 520.11 365.292C522.375 378.378 524.011 392.975 524.514 408.327C524.892 423.678 524.136 438.275 522.752 451.613C521.997 458.157 521.368 464.448 520.362 470.362C519.858 473.257 519.481 476.151 518.977 478.793C518.474 481.436 517.971 484.078 517.467 486.595C516.587 491.502 515.454 495.907 514.573 499.807C514.07 501.695 513.692 503.582 513.315 505.218C512.937 506.854 512.434 508.364 512.057 509.748C511.302 512.391 510.798 514.53 510.421 516.04C510.169 516.669 510.043 517.298 509.917 517.676C509.792 518.053 509.792 518.179 509.792 518.179C509.792 518.179 509.792 517.927 509.917 517.676C510.043 517.298 510.169 516.669 510.295 516.04C510.672 514.53 511.176 512.516 511.805 509.748C512.182 508.364 512.56 506.854 512.937 505.218C513.315 503.582 513.692 501.695 514.196 499.807C515.077 495.907 516.083 491.502 516.964 486.595C517.467 484.078 517.971 481.562 518.474 478.793C518.977 476.151 519.355 473.257 519.732 470.362C520.739 464.574 521.368 458.282 522.123 451.613C523.381 438.401 524.137 423.804 523.759 408.453C523.256 393.101 521.62 378.63 519.481 365.544C518.852 362.272 518.222 359.126 517.593 355.98C517.467 355.225 517.342 354.47 517.09 353.715C516.838 352.96 516.712 352.205 516.587 351.45C516.209 349.94 515.832 348.556 515.454 347.046C515.077 345.662 514.699 344.152 514.447 342.768C514.07 341.384 513.818 339.999 513.315 338.741C512.56 336.099 511.679 333.582 510.924 331.191C510.169 328.8 509.54 326.535 508.659 324.396C507.904 322.257 507.149 320.244 506.394 318.356C505.639 316.469 505.136 314.707 504.381 313.197C503.752 311.687 503.122 310.177 502.493 308.919C501.361 306.402 500.48 304.389 499.851 303.005C499.599 302.375 499.347 301.872 499.222 301.495C498.844 301.117 498.718 300.865 498.844 300.865Z" fill="#041F60"/>
<path d="M264.165 518.055L240.382 555.301L193.824 525.856C196.844 521.578 226.667 527.87 226.667 527.87L240.886 503.332L264.165 518.055Z" fill="#455A64"/>
<g opacity="0.6">
<g opacity="0.6">
<g opacity="0.6">
<path opacity="0.6" d="M242.27 535.041C243.025 535.796 243.025 537.306 242.27 538.061C241.515 538.816 240.005 538.816 239.25 538.061C238.495 537.306 238.495 535.544 239.376 534.915C240.257 534.286 241.893 534.286 242.522 535.292" fill="white"/>
</g>
</g>
</g>
<g opacity="0.6">
<g opacity="0.6">
<path opacity="0.6" d="M240.381 555.3L242.646 551.4L197.22 524.723C197.22 524.723 194.578 524.346 193.949 525.981L240.381 555.3Z" fill="white"/>
</g>
</g>
<path d="M226.039 527.239C225.913 527.49 226.92 528.245 227.675 529.755C228.43 531.139 228.304 532.524 228.556 532.524C228.807 532.649 229.311 531.014 228.43 529.252C227.675 527.616 226.165 526.987 226.039 527.239Z" fill="#263238"/>
<path d="M219.873 526.105C219.622 526.231 220.377 527.238 220.628 528.748C220.88 530.132 220.377 531.39 220.628 531.516C220.88 531.642 221.761 530.509 221.635 528.622C221.383 526.86 219.999 525.979 219.873 526.105Z" fill="#263238"/>
<path d="M213.455 530.26C213.581 530.385 214.714 529.505 214.839 527.869C215.091 526.233 214.336 525.1 214.084 525.226C213.833 525.352 214.084 526.485 213.959 527.743C213.707 529.001 213.204 530.008 213.455 530.26Z" fill="#263238"/>
<path d="M229.938 521.955C229.938 522.207 231.196 522.584 232.328 523.465C233.587 524.346 234.342 525.353 234.593 525.227C234.845 525.101 234.342 523.717 232.957 522.71C231.447 521.704 229.938 521.704 229.938 521.955Z" fill="#263238"/>
<path d="M234.469 517.171C234.469 517.297 235.224 517.926 236.86 518.681C237.615 519.059 238.622 519.31 239.754 519.436C240.258 519.562 240.887 519.562 241.516 519.562C241.768 519.562 242.145 519.562 242.523 519.436C242.9 519.31 243.403 518.807 243.403 518.304C243.403 517.8 243.026 517.423 242.774 517.171C242.397 516.92 242.145 516.794 241.768 516.794C241.138 516.542 240.635 516.416 240.006 516.416C238.874 516.29 237.867 516.29 236.986 516.416C235.224 516.794 234.344 517.297 234.469 517.423C234.469 517.549 235.476 517.171 237.112 517.045C237.867 516.92 238.874 517.045 239.88 517.171C240.384 517.297 240.887 517.423 241.516 517.549C242.145 517.675 242.523 518.052 242.523 518.304C242.523 518.43 242.523 518.43 242.271 518.555C242.019 518.681 241.768 518.681 241.516 518.681C240.887 518.681 240.384 518.681 239.88 518.555C238.874 518.43 237.867 518.178 237.112 518.052C235.476 517.549 234.595 517.045 234.469 517.171Z" fill="#263238"/>
<path d="M234.595 517.675C234.595 517.801 235.601 517.172 236.608 515.788C237.111 515.033 237.615 514.152 237.866 513.019C237.992 512.516 238.118 511.887 238.118 511.258C238.118 510.629 238.244 509.748 237.363 509.119C236.86 508.867 236.356 508.867 235.979 509.119C235.601 509.37 235.476 509.622 235.224 509.874C234.846 510.377 234.469 510.88 234.217 511.384C233.714 512.516 233.588 513.523 233.714 514.404C233.84 516.165 234.595 517.046 234.72 517.046C234.846 516.92 234.343 516.039 234.343 514.404C234.343 513.649 234.469 512.642 234.972 511.761C235.224 511.258 235.476 510.88 235.853 510.503C236.23 509.999 236.734 509.748 236.86 509.999C237.111 510.125 237.237 510.754 237.237 511.258C237.237 511.887 237.111 512.39 236.985 512.894C236.734 513.9 236.356 514.781 235.979 515.536C235.35 516.794 234.469 517.549 234.595 517.675Z" fill="#263238"/>
<path d="M297.513 401.909L283.293 443.811L231.073 426.32C233.086 421.413 263.412 420.532 263.412 420.532L271.465 393.352L297.513 401.909Z" fill="#455A64"/>
<g opacity="0.6">
<g opacity="0.6">
<g opacity="0.6">
<path opacity="0.6" d="M280.273 423.678C281.154 424.307 281.532 425.692 280.902 426.572C280.273 427.453 278.889 427.831 278.008 427.202C277.127 426.572 276.624 424.937 277.379 424.056C278.008 423.175 279.77 422.923 280.525 423.678" fill="white"/>
</g>
</g>
</g>
<g opacity="0.6">
<g opacity="0.6">
<path opacity="0.6" d="M283.291 443.812L284.549 439.533L234.09 424.433C234.09 424.433 231.448 424.685 231.196 426.447L283.291 443.812Z" fill="white"/>
</g>
</g>
<path d="M262.656 419.905C262.53 420.156 263.789 420.66 264.795 421.918C265.802 423.176 266.054 424.435 266.305 424.435C266.557 424.435 266.683 422.799 265.425 421.289C264.292 419.905 262.656 419.653 262.656 419.905Z" fill="#263238"/>
<path d="M256.363 420.407C256.237 420.659 257.118 421.414 257.747 422.798C258.251 424.182 258.125 425.44 258.377 425.44C258.628 425.566 259.257 424.182 258.628 422.42C257.999 420.784 256.489 420.155 256.363 420.407Z" fill="#263238"/>
<path d="M251.078 425.945C251.33 426.071 252.085 424.939 251.833 423.303C251.707 421.667 250.701 420.786 250.449 420.912C250.197 421.038 250.701 422.045 250.952 423.429C251.204 424.687 250.826 425.82 251.078 425.945Z" fill="#263238"/>
<path d="M265.172 413.99C265.172 414.242 266.43 414.242 267.94 414.871C269.324 415.374 270.331 416.255 270.583 416.129C270.834 416.004 269.954 414.745 268.318 413.99C266.556 413.361 265.046 413.739 265.172 413.99Z" fill="#263238"/>
<path d="M268.444 408.201C268.444 408.327 269.325 408.83 271.086 409.082C271.967 409.208 272.974 409.208 274.106 409.208C274.735 409.208 275.239 409.082 275.868 408.956C276.12 408.83 276.497 408.83 276.875 408.578C277.252 408.453 277.63 407.823 277.504 407.32C277.378 406.817 277 406.439 276.623 406.313C276.245 406.188 275.868 406.188 275.616 406.062C274.987 406.062 274.358 406.062 273.855 406.062C272.722 406.188 271.716 406.439 270.961 406.817C269.325 407.572 268.696 408.327 268.696 408.453C268.821 408.578 269.702 407.949 271.212 407.446C271.967 407.194 272.974 406.943 273.981 406.943C274.484 406.943 275.113 406.943 275.616 406.943C276.245 406.943 276.749 407.194 276.749 407.446C276.749 407.572 276.749 407.572 276.623 407.698C276.497 407.823 276.12 407.823 275.868 407.949C275.365 408.075 274.736 408.201 274.232 408.327C273.226 408.453 272.219 408.453 271.338 408.453C269.576 408.327 268.57 408.075 268.444 408.201Z" fill="#263238"/>
<path d="M268.696 408.705C268.822 408.831 269.577 408.076 270.206 406.44C270.583 405.685 270.709 404.678 270.835 403.42C270.835 402.791 270.835 402.287 270.709 401.658C270.583 401.029 270.457 400.274 269.451 399.771C268.947 399.519 268.318 399.897 268.067 400.148C267.815 400.4 267.689 400.777 267.437 401.029C267.186 401.658 266.934 402.162 266.808 402.791C266.557 403.923 266.682 405.056 267.06 405.811C267.689 407.447 268.57 408.202 268.696 408.076C268.822 407.95 268.067 407.195 267.815 405.685C267.689 404.93 267.563 403.923 267.815 402.917C267.941 402.413 268.067 401.91 268.318 401.407C268.57 400.903 268.947 400.526 269.073 400.652C269.325 400.777 269.577 401.281 269.702 401.784C269.828 402.287 269.828 402.917 269.828 403.42C269.828 404.427 269.702 405.433 269.451 406.188C269.199 407.698 268.57 408.579 268.696 408.705Z" fill="#263238"/>
<path d="M383.958 389.957C383.958 389.957 344.698 326.914 333.877 309.424C321.419 289.164 295.749 291.807 289.709 310.053C291.093 305.9 284.927 324.02 264.165 391.467L299.021 401.408L316.008 366.678L330.353 407.825L383.958 389.957Z" fill="#263238"/>
<path d="M391.381 386.687H319.153C307.702 386.687 296.881 391.594 289.456 400.025C286.94 402.919 285.178 406.317 284.046 409.966L231.196 508.619L264.919 527.242L327.961 437.146L363.195 437.523L441.714 388.574L391.381 386.687Z" fill="#263238"/>
<path d="M319.657 417.893C319.783 417.893 320.538 418.774 321.545 420.41C322.551 422.046 323.81 424.311 324.942 427.079C326.075 429.722 326.704 432.364 327.081 434.252C327.459 436.139 327.459 437.272 327.459 437.272C327.207 437.272 326.578 432.616 324.439 427.331C322.174 421.92 319.531 418.019 319.657 417.893Z" fill="#455A64"/>
<path d="M245.038 328.927L274.483 386.684H367.222L363.447 379.134L336.645 378.379L314.75 329.682C313.365 326.662 310.345 324.648 307.074 324.648H247.806C245.541 324.648 244.157 327.039 245.038 328.927Z" fill="#E0E0E0"/>
<path d="M292.476 354.47C292.476 356.609 290.84 358.245 288.701 358.245C286.562 358.245 284.926 356.609 284.926 354.47C284.926 352.331 286.562 350.695 288.701 350.695C290.84 350.695 292.476 352.457 292.476 354.47Z" fill="#263238"/>
<path d="M378.798 319.74L364.453 368.689L311.604 374.352V383.789L389.243 384.796L399.938 321.124L378.798 319.74Z" fill="#FFBE9D"/>
<path d="M480.346 287.779C477.2 273.811 456.438 268.526 447.001 268.526C433.914 268.526 435.046 267.646 422.211 270.036H420.576C381.442 268.401 376.912 322.257 376.912 322.257L394.78 323.767L390.124 360.762L376.408 386.809L451.531 386.684L455.683 325.529L487.141 324.648C487.267 324.648 483.492 301.872 480.346 287.779Z" fill="#041F60"/>
<path d="M397.044 299.354C397.296 299.354 395.912 312.44 394.15 328.547C392.262 344.654 390.627 357.614 390.501 357.614C390.249 357.614 391.633 344.528 393.395 328.421C395.157 312.315 396.792 299.354 397.044 299.354Z" fill="#263238"/>
<g opacity="0.2">
<g opacity="0.2">
<g opacity="0.2">
<path opacity="0.2" d="M454.423 299.354C451.278 314.705 446.999 330.434 443.853 345.786C443.224 349.058 442.469 352.455 440.456 355.098C439.198 356.733 437.562 358.118 435.926 359.25C429.634 364.032 422.965 368.436 415.541 371.078C426.237 370.198 436.933 368.31 447.251 365.542C449.013 365.038 450.9 364.535 452.033 363.025C453.039 361.767 453.291 360.131 453.417 358.495C455.682 338.865 455.053 319.109 454.423 299.354Z" fill="black"/>
</g>
</g>
</g>
<path d="M350.613 367.555L373.892 364.787L390.25 375.609L453.041 360.509L454.929 325.527L483.115 324.772L482.486 365.92C482.234 379.132 471.161 389.576 457.949 389.324L365.965 386.808L362.064 379.006L342.308 378.377L350.613 367.555Z" fill="#FFBE9D"/>
<path d="M453.038 360.385C453.038 360.385 452.661 360.511 451.906 360.763C451.025 361.014 449.893 361.266 448.508 361.643C445.488 362.398 441.21 363.531 435.925 364.789C425.229 367.432 410.507 370.955 394.274 374.856C393.016 375.107 391.632 375.485 390.374 375.737H390.248L390.122 375.611C384.334 371.836 378.797 368.187 373.764 364.789H374.015C364.829 365.796 356.776 366.802 350.736 367.432L350.862 367.306C348.219 370.577 346.206 373.22 344.696 375.107C343.941 375.988 343.438 376.617 343.06 377.121C342.683 377.624 342.431 377.876 342.431 377.75C342.431 377.75 342.557 377.498 342.934 376.995C343.312 376.492 343.815 375.737 344.444 374.856C345.829 372.968 347.842 370.326 350.484 366.928V366.802H350.61C356.776 366.047 364.704 365.041 373.889 363.908H374.015L374.141 364.034C379.174 367.306 384.711 370.955 390.625 374.73H390.374C391.632 374.478 392.89 374.101 394.274 373.849C410.507 369.948 425.229 366.551 435.925 363.908C441.21 362.65 445.488 361.643 448.634 361.014C450.144 360.637 451.277 360.385 452.032 360.259C452.661 360.511 453.038 360.385 453.038 360.385Z" fill="#EB996E"/>
<path d="M364.076 374.228C364.076 374.48 360.05 374.606 355.016 374.606C354.513 374.606 353.884 374.606 353.381 374.606L353.632 374.48C350.361 377.122 347.844 379.136 347.718 379.01C347.592 378.884 349.983 376.745 353.129 373.977L353.255 373.851H353.381C353.884 373.851 354.513 373.851 355.016 373.851C360.05 373.851 364.076 373.977 364.076 374.228Z" fill="#EB996E"/>
<path d="M464.113 366.301C463.861 366.427 462.728 363.533 459.583 361.52C456.437 359.506 453.291 359.632 453.291 359.506C453.291 359.38 454.046 359.255 455.304 359.38C456.563 359.506 458.324 359.884 459.96 361.016C461.596 362.023 462.728 363.407 463.358 364.54C463.987 365.546 464.113 366.301 464.113 366.301Z" fill="#EB996E"/>
<path d="M487.266 324.898C485.505 325.024 483.24 325.024 480.346 325.15C474.557 325.276 466.504 325.527 457.696 325.653C456.689 325.653 455.808 325.653 454.801 325.653H454.424V325.276C454.046 317.096 454.298 309.798 454.424 304.513C454.55 301.871 454.55 299.731 454.676 298.347C454.802 296.837 454.801 296.082 454.927 296.082C454.927 296.082 455.053 296.837 454.927 298.347C454.927 299.983 454.927 301.996 454.927 304.513C454.927 309.798 454.801 317.096 455.179 325.276L454.801 324.898C455.682 324.898 456.689 324.898 457.696 324.898C466.504 324.772 474.557 324.646 480.346 324.521C483.114 324.521 485.505 324.521 487.266 324.521C488.902 324.646 484.75 324.772 487.266 324.898Z" fill="#263238"/>
<path d="M438.821 325.148C438.821 325.148 438.569 325.778 437.94 326.91C437.688 327.539 437.311 328.168 436.807 328.923C436.304 329.678 435.801 330.559 435.046 331.566C433.788 333.453 432.026 335.718 430.013 337.983C427.999 340.248 425.608 342.639 422.84 344.904C420.072 347.169 417.303 349.057 414.661 350.692C412.018 352.328 409.502 353.587 407.363 354.467C406.356 354.971 405.349 355.348 404.468 355.726C403.588 356.103 402.833 356.355 402.203 356.481C400.945 356.858 400.316 357.11 400.316 356.984C400.316 356.984 400.945 356.607 402.203 356.229C402.833 355.977 403.588 355.726 404.343 355.348C405.223 354.971 406.104 354.593 407.237 354.09C409.376 353.083 411.767 351.825 414.409 350.189C416.926 348.553 419.694 346.666 422.463 344.401C425.105 342.136 427.496 339.745 429.635 337.48C431.648 335.215 433.41 333.076 434.794 331.188C435.549 330.308 436.052 329.427 436.556 328.672C437.059 327.917 437.437 327.288 437.814 326.658C438.443 325.652 438.821 325.148 438.821 325.148Z" fill="#263238"/>
<path d="M479.089 285.137C479.089 285.137 478.711 285.137 478.208 285.137C477.579 285.137 476.698 285.137 475.565 285.011C473.174 284.885 469.903 284.76 465.876 284.634C457.697 284.382 446.498 284.13 434.04 284.256C421.583 284.382 410.384 285.011 402.205 285.515C398.178 285.766 394.906 286.018 392.515 286.144C391.383 286.27 390.502 286.27 389.873 286.27C389.244 286.27 388.992 286.27 388.992 286.27C388.992 286.27 389.244 286.144 389.873 286.144C390.502 286.018 391.383 286.018 392.515 285.892C394.78 285.64 398.052 285.389 402.205 285.011C410.384 284.382 421.583 283.753 434.04 283.627C446.498 283.501 457.823 283.753 465.876 284.13C469.903 284.382 473.3 284.508 475.565 284.76C476.698 284.885 477.579 284.885 478.208 285.011C478.711 285.011 479.089 285.137 479.089 285.137Z" fill="#FAFAFA" fill-opacity="0.2"/>
<path d="M395.407 310.681C395.407 310.807 391.758 311.058 387.102 311.058C382.572 311.058 378.797 310.932 378.797 310.681C378.797 310.429 382.447 310.303 387.102 310.303C391.758 310.429 395.407 310.555 395.407 310.681Z" fill="#FAFAFA" fill-opacity="0.2"/>
<path d="M454.298 313.576C454.298 313.576 454.047 313.701 453.669 313.701C453.166 313.827 452.662 313.827 452.033 313.953C450.523 314.205 448.384 314.456 445.742 314.708C440.457 315.211 433.158 315.841 424.979 316.218C416.926 316.47 409.502 316.47 404.217 316.344C401.574 316.218 399.435 316.218 397.925 316.092C397.296 316.092 396.667 315.966 396.163 315.966C395.786 315.966 395.534 315.966 395.534 315.84C395.534 315.84 395.786 315.84 396.163 315.84C396.667 315.84 397.17 315.84 397.925 315.84C399.561 315.84 401.574 315.84 404.217 315.84C409.502 315.84 416.8 315.84 424.979 315.463C433.032 315.085 440.331 314.582 445.616 314.205C448.132 313.953 450.272 313.827 451.907 313.701C452.537 313.701 453.166 313.576 453.669 313.576C454.047 313.576 454.298 313.576 454.298 313.576Z" fill="#FAFAFA" fill-opacity="0.2"/>
<path d="M484.496 308.415C484.496 308.541 477.827 309.296 469.522 310.051C461.217 310.806 454.548 311.184 454.422 311.058C454.296 310.932 461.091 310.177 469.396 309.422C477.827 308.667 484.496 308.289 484.496 308.415Z" fill="#FAFAFA" fill-opacity="0.2"/>
<path d="M419.315 346.668C419.315 346.794 417.805 346.919 415.414 347.045C413.023 347.171 409.626 347.171 405.851 347.045C402.076 346.919 398.678 346.794 396.288 346.542C393.897 346.29 392.387 346.164 392.387 346.039C392.387 345.913 393.897 346.039 396.413 346.039C398.804 346.164 402.202 346.29 405.977 346.416C409.752 346.542 413.149 346.542 415.54 346.542C417.805 346.542 419.315 346.668 419.315 346.668Z" fill="#FAFAFA" fill-opacity="0.2"/>
<path d="M453.794 347.8C453.794 347.8 453.291 347.926 452.41 348.052C451.529 348.178 450.145 348.43 448.509 348.555C445.238 348.933 440.582 349.436 435.548 349.562C430.389 349.814 425.859 349.688 422.462 349.562C420.826 349.436 419.442 349.436 418.561 349.31C417.68 349.185 417.177 349.185 417.177 349.059C417.177 349.059 417.68 348.933 418.687 349.059C419.819 349.059 421.078 349.059 422.588 349.059C425.859 349.059 430.515 349.059 435.548 348.933C440.582 348.681 445.238 348.43 448.509 348.052C450.019 347.926 451.403 347.8 452.41 347.675C453.291 347.8 453.794 347.8 453.794 347.8Z" fill="#FAFAFA" fill-opacity="0.2"/>
<path d="M399.31 371.838C399.31 371.963 396.29 371.586 392.892 370.202C389.495 368.818 387.104 367.056 387.104 366.93C387.23 366.804 389.746 368.314 393.144 369.698C396.416 371.083 399.31 371.712 399.31 371.838Z" fill="#FAFAFA" fill-opacity="0.2"/>
<path d="M430.642 200.329H429.509C417.429 200.329 407.489 209.389 406.608 221.091C405.727 231.913 404.846 243.993 404.972 249.781C405.098 261.861 417.555 263.749 417.555 263.749L417.052 274.445C416.8 282.498 422.966 289.167 430.894 289.67C439.073 290.174 446.119 283.882 446.497 275.703L449.014 224.741C450.146 212.157 443.603 201.084 430.642 200.329Z" fill="#FFBE9D"/>
<path d="M417.43 263.623C417.43 263.623 425.357 264.127 433.662 258.967C433.662 258.967 429.887 267.65 417.556 266.643L417.43 263.623Z" fill="#EB996E"/>
<path d="M410.883 228.64C410.883 229.521 411.638 230.276 412.644 230.402C413.651 230.402 414.406 229.772 414.406 228.892C414.406 228.011 413.651 227.256 412.644 227.13C411.764 227.004 411.009 227.633 410.883 228.64Z" fill="#263238"/>
<path d="M409.248 227.006C409.5 227.257 410.758 226.251 412.771 226.251C414.659 226.251 416.043 227.132 416.295 227.006C416.421 226.88 416.169 226.502 415.54 226.125C414.911 225.747 413.904 225.244 412.771 225.244C411.639 225.244 410.632 225.622 410.003 226.125C409.248 226.502 409.122 226.88 409.248 227.006Z" fill="#263238"/>
<path d="M428.625 229.143C428.625 230.023 429.38 230.778 430.386 230.904C431.393 230.904 432.148 230.275 432.148 229.394C432.148 228.513 431.393 227.758 430.386 227.633C429.505 227.507 428.75 228.262 428.625 229.143Z" fill="#263238"/>
<path d="M426.989 227.255C427.241 227.506 428.499 226.5 430.513 226.5C432.4 226.5 433.784 227.38 434.036 227.255C434.162 227.129 433.91 226.751 433.281 226.374C432.652 225.996 431.645 225.493 430.513 225.493C429.38 225.493 428.374 225.87 427.744 226.374C427.115 226.751 426.864 227.255 426.989 227.255Z" fill="#263238"/>
<path d="M421.076 241.095C421.076 240.969 419.943 240.844 417.93 240.592C417.426 240.592 416.923 240.466 416.923 240.089C416.797 239.711 417.049 239.208 417.301 238.704C417.804 237.572 418.181 236.314 418.685 235.055C420.698 229.896 422.082 225.744 421.831 225.618C421.579 225.492 419.817 229.644 417.804 234.804C417.301 236.062 416.923 237.32 416.42 238.453C416.294 238.956 415.916 239.585 416.168 240.34C416.294 240.718 416.671 240.969 416.923 240.969C417.175 241.095 417.552 241.095 417.804 241.095C419.817 241.095 421.076 241.221 421.076 241.095Z" fill="#263238"/>
<path d="M426.613 242.354C426.361 242.354 426.361 244.367 424.599 245.751C422.838 247.135 420.573 247.01 420.573 247.261C420.573 247.387 421.076 247.639 421.957 247.639C422.838 247.639 424.222 247.387 425.229 246.506C426.361 245.625 426.739 244.493 426.864 243.612C426.99 242.857 426.739 242.354 426.613 242.354Z" fill="#263238"/>
<path d="M427.368 220.086C427.62 220.589 429.507 220.337 431.646 220.589C433.911 220.841 435.673 221.47 435.925 220.966C436.051 220.715 435.799 220.337 435.044 219.834C434.289 219.331 433.156 218.827 431.772 218.701C430.388 218.576 429.256 218.827 428.375 219.079C427.746 219.456 427.368 219.834 427.368 220.086Z" fill="#263238"/>
<path d="M409.876 221.593C410.253 221.971 411.511 221.593 413.147 221.593C414.783 221.467 416.041 221.845 416.419 221.467C416.545 221.216 416.293 220.838 415.79 220.461C415.16 220.083 414.28 219.706 413.147 219.832C412.015 219.832 411.134 220.209 410.631 220.712C409.876 220.964 409.75 221.467 409.876 221.593Z" fill="#263238"/>
<path d="M447.253 233.55C447.505 233.424 455.81 231.033 455.558 239.338C455.306 247.643 446.876 245.63 446.876 245.378C446.75 245.252 447.253 233.55 447.253 233.55Z" fill="#FFBE9D"/>
<path d="M448.765 242.359C448.765 242.359 448.891 242.485 449.142 242.611C449.394 242.737 449.771 242.863 450.275 242.611C451.156 242.359 452.036 240.975 452.036 239.465C452.036 238.71 451.911 237.955 451.659 237.452C451.407 236.823 451.03 236.445 450.526 236.319C450.023 236.193 449.771 236.445 449.646 236.697C449.52 236.948 449.52 237.074 449.52 237.074C449.52 237.074 449.394 236.948 449.394 236.571C449.394 236.445 449.52 236.193 449.771 236.068C450.023 235.942 450.275 235.816 450.652 235.942C451.281 236.068 451.911 236.571 452.162 237.326C452.54 237.955 452.666 238.836 452.666 239.591C452.54 241.227 451.659 242.737 450.401 243.114C449.771 243.24 449.268 243.114 449.016 242.863C448.765 242.611 448.639 242.359 448.765 242.359Z" fill="#EB996E"/>
<path d="M441.715 209.138L406.356 209.893C407.488 207.502 409.376 205.614 411.515 204.104C416.045 200.707 421.708 198.568 427.496 198.442C433.284 198.316 444.987 205.237 449.139 209.012C452.537 212.158 452.411 214.8 452.411 214.8C452.914 219.204 450.398 224.364 449.391 228.642C448.888 230.907 447.881 237.702 447.881 237.702C445.993 237.702 445.238 236.192 445.49 234.304L445.868 227.006C445.868 227.006 439.198 222.476 442.344 214.045C442.973 213.416 443.98 210.396 441.715 209.138Z" fill="#263238"/>
<path d="M434.291 235.182C434.417 235.182 434.542 235.182 434.542 235.057C434.542 234.931 434.542 234.805 434.417 234.805C434.291 234.805 434.165 234.805 434.165 234.931C434.04 235.057 434.165 235.182 434.291 235.182Z" fill="#EB996E"/>
<path d="M430.642 234.429C430.767 234.429 430.893 234.304 430.893 234.178C430.893 234.052 430.893 233.927 430.767 233.927C430.642 233.927 430.516 234.052 430.516 234.178C430.39 234.178 430.516 234.304 430.642 234.429Z" fill="#EB996E"/>
<path d="M428.123 234.306C428.249 234.306 428.375 234.18 428.375 234.054C428.375 233.928 428.375 233.677 428.249 233.677C428.123 233.677 427.997 233.802 427.997 233.928C427.997 234.18 427.997 234.306 428.123 234.306Z" fill="#EB996E"/>
<path d="M432.53 237.448C432.655 237.448 432.781 237.448 432.781 237.322C432.781 237.197 432.655 237.197 432.53 237.197C432.404 237.197 432.278 237.197 432.278 237.322C432.278 237.322 432.404 237.448 432.53 237.448Z" fill="#EB996E"/>
<path d="M429.133 236.694C429.258 236.694 429.384 236.569 429.384 236.443C429.384 236.317 429.258 236.192 429.133 236.192C429.007 236.192 428.881 236.317 428.881 236.443C428.881 236.569 429.007 236.694 429.133 236.694Z" fill="#EB996E"/>
<path d="M411.766 234.682C411.891 234.682 412.017 234.682 412.017 234.556C412.017 234.43 412.017 234.305 411.891 234.305C411.766 234.305 411.64 234.305 411.64 234.43C411.64 234.556 411.64 234.682 411.766 234.682Z" fill="#EB996E"/>
<path d="M409.249 234.429C409.375 234.429 409.5 234.304 409.5 234.178C409.5 234.052 409.375 233.927 409.375 233.927C409.249 233.927 409.124 234.052 409.124 234.178C409.124 234.304 409.124 234.429 409.249 234.429Z" fill="#EB996E"/>
<path d="M413.907 234.682C414.032 234.682 414.158 234.682 414.158 234.556C414.158 234.43 414.158 234.305 414.032 234.305C413.907 234.305 413.781 234.305 413.781 234.43C413.781 234.556 413.907 234.682 413.907 234.682Z" fill="#EB996E"/>
<path d="M412.145 237.2C412.271 237.2 412.396 237.2 412.396 237.074C412.396 236.949 412.396 236.823 412.271 236.823C412.145 236.823 412.02 236.823 412.02 236.949C412.02 236.949 412.02 237.074 412.145 237.2Z" fill="#EB996E"/>
<path d="M410.004 236.694C410.13 236.694 410.13 236.569 410.13 236.443C410.13 236.318 410.004 236.318 409.879 236.318C409.753 236.318 409.753 236.443 409.753 236.569C409.753 236.694 409.879 236.82 410.004 236.694Z" fill="#EB996E"/>
<path d="M449.392 209.511C450.273 206.491 449.392 203.093 447.378 200.702C445.365 198.186 442.093 196.802 438.948 196.927C437.312 197.053 435.676 197.431 434.04 197.305C431.02 196.927 428.629 194.537 425.735 193.404C421.331 191.642 415.669 193.278 413.026 197.053C411.894 198.563 411.264 200.577 409.629 201.583C408.244 202.464 406.357 202.338 404.847 202.842C401.575 203.848 399.436 207.12 399.562 210.392C399.688 213.663 402.079 216.683 405.224 217.942C408.37 219.2 412.019 218.822 415.039 217.312C417.682 215.928 420.073 213.412 423.093 213.537C426.239 213.663 429.007 216.557 432.153 215.928C433.788 215.551 435.047 214.418 436.179 213.286C437.312 212.153 438.696 211.021 440.332 210.895C441.968 210.769 442.848 213.034 442.219 214.544L449.392 209.511Z" fill="#263238"/>
<path d="M406.988 205.486C406.988 205.486 407.114 205.486 406.988 205.486C407.114 205.738 407.114 205.738 407.24 205.989C407.492 206.241 407.743 206.619 408.247 207.122C408.75 207.499 409.505 208.003 410.386 208.254C411.267 208.506 412.399 208.632 413.532 208.38C414.664 208.129 415.922 207.499 416.929 206.493C417.936 205.486 418.439 204.102 419.32 202.844C419.823 202.214 420.327 201.711 421.082 201.334C421.837 200.956 422.592 200.83 423.472 200.83C424.353 200.83 425.108 201.082 425.863 201.459C426.618 201.837 427.247 202.466 427.625 203.221C428.002 203.976 428.38 204.857 428.883 205.486C429.387 206.241 430.267 206.744 431.148 206.87C432.029 206.87 432.91 206.619 433.665 206.115C434.42 205.738 435.049 205.109 435.552 204.605C436.685 203.473 437.692 202.466 439.076 202.214C440.46 201.963 441.718 202.34 442.599 202.969C443.606 203.599 444.109 204.479 444.487 205.36C444.864 206.241 445.116 206.996 445.242 207.625C445.367 208.254 445.493 208.758 445.493 209.135C445.493 209.513 445.493 209.639 445.619 209.639C445.619 209.639 445.619 209.639 445.619 209.513C445.619 209.387 445.619 209.261 445.619 209.135C445.619 208.758 445.619 208.254 445.493 207.625C445.367 206.996 445.242 206.241 444.864 205.36C444.487 204.479 443.857 203.599 442.851 202.844C441.844 202.214 440.586 201.585 439.076 201.963C437.566 202.214 436.559 203.347 435.427 204.479C434.923 204.983 434.294 205.486 433.665 205.989C433.036 206.367 432.155 206.619 431.4 206.619C430.645 206.619 429.89 206.115 429.387 205.36C428.883 204.731 428.632 203.85 428.128 203.095C427.751 202.34 426.996 201.585 426.241 201.208C425.486 200.83 424.605 200.579 423.724 200.579C422.843 200.579 421.962 200.704 421.207 201.082C420.452 201.459 419.823 202.089 419.446 202.718C418.565 203.976 417.936 205.36 417.055 206.367C416.174 207.374 414.916 208.003 413.783 208.254C412.651 208.506 411.518 208.38 410.637 208.129C409.757 207.877 409.127 207.374 408.624 206.996C407.366 206.115 407.114 205.486 406.988 205.486Z" fill="#455A64"/>
<path d="M400.694 205.611C400.694 205.611 400.568 205.862 400.568 206.24C400.568 206.617 400.568 207.372 400.694 208.127C400.945 208.882 401.323 209.763 402.078 210.518C402.707 211.273 403.714 212.028 404.846 212.532C407.111 213.538 409.502 213.412 411.012 213.161C411.767 213.035 412.396 212.909 412.899 212.783C413.277 212.657 413.529 212.532 413.529 212.532C413.529 212.532 412.522 212.657 411.012 212.909C409.502 213.035 407.237 213.161 404.972 212.154C403.84 211.651 402.959 211.022 402.33 210.267C401.7 209.512 401.197 208.631 400.945 208.002C400.442 206.617 400.694 205.611 400.694 205.611Z" fill="#455A64"/>
<path d="M492.806 327.793C492.554 344.025 482.739 358.873 469.904 368.688C457.069 378.503 441.466 383.914 425.862 388.444C410.259 392.974 394.404 396.623 379.808 403.544C359.548 413.107 340.799 426.32 329.349 445.572C317.898 464.825 313.871 490.117 315.129 512.515L487.269 495.276L496.706 397.504L492.806 327.793Z" fill="#1EE7E9"/>
<path d="M338.536 431.856C338.536 431.856 338.41 432.107 338.032 432.611C337.655 433.114 337.277 433.743 336.648 434.498C336.019 435.379 335.264 436.386 334.509 437.518C333.754 438.776 332.747 440.035 331.866 441.671C330.986 443.306 329.853 444.942 328.972 446.956C327.966 448.843 326.959 450.982 326.078 453.121C324.191 457.651 322.429 462.685 321.045 468.096C319.661 473.506 318.906 478.791 318.402 483.699C318.151 486.09 318.025 488.355 317.899 490.62C317.773 492.759 317.773 494.772 317.773 496.66C317.773 498.547 317.773 500.183 317.899 501.567C317.899 503.077 318.025 504.335 318.025 505.342C318.025 506.349 318.151 507.104 318.151 507.733C318.151 508.236 318.151 508.614 318.151 508.614C318.151 508.614 318.025 508.362 318.025 507.733C318.025 507.104 317.899 506.349 317.773 505.342C317.647 504.335 317.521 503.077 317.521 501.567C317.521 500.057 317.27 498.421 317.396 496.66C317.396 494.772 317.396 492.759 317.521 490.62C317.521 488.48 317.773 486.09 317.899 483.699C318.402 478.791 319.157 473.506 320.541 468.096C321.926 462.685 323.687 457.526 325.575 453.121C326.581 450.856 327.588 448.843 328.595 446.83C329.601 444.942 330.608 443.181 331.615 441.545C332.496 439.909 333.502 438.651 334.383 437.392C335.138 436.134 336.019 435.127 336.648 434.372C337.277 433.617 337.781 432.988 338.158 432.485C338.284 431.981 338.536 431.856 338.536 431.856Z" fill="#1EE7E9"/>
<g opacity="0.4">
<g opacity="0.4">
<g opacity="0.4">
<g opacity="0.4">
<path opacity="0.4" d="M492.806 327.793C492.554 344.025 482.739 358.873 469.904 368.688C457.069 378.503 441.466 383.914 425.862 388.444C410.259 392.974 394.404 396.623 379.808 403.544C359.548 413.107 340.799 426.32 329.349 445.572C317.898 464.825 313.871 490.117 315.129 512.515L487.269 495.276L496.706 397.504L492.806 327.793Z" fill="black"/>
</g>
</g>
</g>
</g>
<path d="M95.5474 400.526C80.6991 385.301 57.42 378.883 36.9092 384.42C54.7775 396.374 74.7849 402.791 96.3024 402.917" fill="#1AD2D4"/>
<path d="M75.5422 330.059C77.933 312.82 71.2639 293.316 58.3031 280.732C57.9256 297.846 65.2239 317.098 75.5422 330.059Z" fill="#1AD2D4"/>
<path d="M85.9868 362.777C76.801 345.16 61.5752 330.689 43.5811 322.258C48.9919 342.14 65.9793 358.498 86.1126 363.028" fill="#1AD2D4"/>
<path d="M88.1276 369.068C77.6835 369.319 67.1135 368.942 57.0469 366.299C46.9802 363.657 37.2911 358.498 30.4961 350.444C50.881 350.444 71.1402 356.61 88.0018 367.935" fill="#1AD2D4"/>
<path d="M82.8384 348.306C88.1234 328.425 96.9317 314.709 112.535 303.51C113.667 313.199 111.402 323.266 105.992 331.319C100.581 339.372 92.15 345.538 82.8384 348.306Z" fill="#1AD2D4"/>
<path d="M122.224 382.533C122.475 370.956 115.051 359.631 104.355 355.227C105.236 365.545 113.29 377.374 122.224 382.533Z" fill="#1AD2D4"/>
<path d="M127.259 365.796C128.391 349.187 140.22 333.835 155.949 328.424C152.3 345.034 142.736 358.876 127.259 365.796Z" fill="#1AD2D4"/>
<path d="M119.71 395.495C123.359 390.21 129.399 386.938 135.565 385.302C141.731 383.666 148.274 383.541 154.692 383.415C146.009 392.978 133.048 398.389 120.087 397.76" fill="#1AD2D4"/>
<path d="M112.283 437.9C123.859 434.377 136.82 435.257 147.768 440.416C158.715 445.576 167.649 455.013 172.179 466.212C150.41 462.186 128.893 452.496 112.283 437.9Z" fill="#1AD2D4"/>
<path d="M88.3757 423.176C92.0248 433.871 91.2698 446.832 83.2165 456.018C79.9448 444.945 81.8323 432.613 88.3757 423.176Z" fill="#1AD2D4"/>
<path d="M74.2813 417.263C73.2747 430.978 64.4664 443.939 52.1347 449.853C51.5056 450.105 50.7506 450.483 50.1214 450.231C49.1147 449.853 49.1147 448.469 49.1147 447.463C50.7506 433.621 60.8172 420.408 74.2813 417.263Z" fill="#1AD2D4"/>
<path d="M64.9714 415.878C58.8056 422.422 49.9973 426.448 40.9373 426.448C31.8773 426.448 22.9432 422.673 16.7773 416.13C32.129 414.368 49.8714 413.236 64.9714 415.878Z" fill="#1AD2D4"/>
<path d="M62.7026 293.441C62.7026 293.441 62.7026 293.567 62.8285 293.945C62.9543 294.322 63.0801 294.7 63.3318 295.203C63.7093 296.335 64.3385 297.971 65.2193 300.11C66.1001 302.25 66.981 304.892 68.1135 307.912C68.6168 309.422 69.246 311.058 69.8751 312.819C70.5043 314.581 71.1334 316.469 71.7626 318.356C74.5309 326.158 77.4251 335.469 80.6968 345.788C83.8426 356.106 87.2401 367.683 90.5117 379.763C93.7834 391.843 96.6775 403.419 99.0684 413.989C101.459 424.559 103.473 434.122 104.983 442.176C105.36 444.189 105.738 446.077 106.115 447.964C106.367 449.726 106.744 451.487 106.996 453.123C107.499 456.395 108.003 459.163 108.38 461.428C108.758 463.693 109.009 465.455 109.135 466.713C109.261 467.342 109.261 467.72 109.387 468.097C109.387 468.349 109.513 468.601 109.513 468.601C109.513 468.601 109.513 468.475 109.513 468.097C109.513 467.72 109.387 467.342 109.387 466.713C109.261 465.455 109.009 463.693 108.632 461.428C108.38 459.163 107.877 456.395 107.373 453.123C107.122 451.487 106.87 449.726 106.493 447.964C106.115 446.202 105.863 444.189 105.486 442.176C104.102 434.122 102.088 424.559 99.6975 413.863C97.3067 403.293 94.4126 391.717 91.1409 379.511C87.8692 367.431 84.4717 355.98 81.2001 345.536C77.9284 335.218 74.9084 325.906 72.1401 318.104C71.5109 316.217 70.7559 314.329 70.1268 312.568C69.4976 310.806 68.8684 309.17 68.3651 307.66C67.2326 304.64 66.226 301.998 65.3451 299.859C64.4643 297.72 63.8351 296.084 63.4576 294.951C63.206 294.448 63.0801 293.945 62.9543 293.693C62.8285 293.567 62.7026 293.441 62.7026 293.441Z" fill="#041F60"/>
<path d="M146.76 337.233C146.76 337.233 146.634 337.359 146.508 337.485C146.382 337.737 146.131 337.988 145.753 338.24C145.124 338.869 144.243 340.001 142.985 341.26C140.72 343.902 137.448 347.929 133.925 353.214C130.527 358.499 127.004 365.294 124.487 373.347C121.971 381.401 120.335 390.461 118.825 400.024C115.679 419.15 111.904 436.264 109.136 448.595C107.752 454.761 106.619 459.795 105.864 463.192C105.487 464.954 105.235 466.212 104.983 467.219C104.858 467.596 104.858 467.974 104.732 468.225C104.732 468.477 104.606 468.603 104.732 468.603C104.732 468.603 104.732 468.477 104.858 468.225C104.983 467.974 104.983 467.596 105.109 467.219C105.361 466.338 105.738 464.954 106.116 463.318C106.997 459.795 108.129 454.887 109.639 448.721C112.533 436.39 116.434 419.276 119.454 400.15C120.964 390.586 122.6 381.526 124.991 373.473C127.382 365.42 130.905 358.751 134.302 353.34C137.7 348.055 140.846 344.028 143.111 341.26C144.243 339.876 145.124 338.869 145.753 338.114C146.005 337.737 146.257 337.485 146.382 337.359C146.76 337.359 146.76 337.233 146.76 337.233Z" fill="#041F60"/>
<path d="M60.438 415.12C60.438 415.12 60.6897 415.12 60.9413 415.246C61.3188 415.246 61.948 415.372 62.5771 415.372C62.9546 415.372 63.3321 415.498 63.7096 415.498C64.0871 415.623 64.5905 415.623 65.0938 415.749C66.1005 415.875 67.233 416.001 68.3655 416.253C68.9946 416.378 69.6238 416.504 70.253 416.63C70.8821 416.756 71.6371 417.008 72.2663 417.133C73.6505 417.511 75.1605 418.014 76.6704 418.392C79.6904 419.524 83.0879 420.908 86.3596 422.67C89.6312 424.558 92.5254 426.571 95.0421 428.71C96.3004 429.843 97.4329 430.849 98.3137 431.856C99.3204 432.863 100.201 433.995 100.956 434.876C101.711 435.757 102.34 436.763 102.97 437.518C103.599 438.273 103.976 439.028 104.354 439.657C104.731 440.161 104.983 440.664 105.109 441.042C105.36 441.293 105.36 441.545 105.486 441.545C105.486 441.545 105.486 441.419 105.235 441.042C104.983 440.664 104.857 440.161 104.48 439.657C104.228 439.028 103.725 438.273 103.221 437.518C102.718 436.638 102.089 435.757 101.334 434.75C100.579 433.743 99.6979 432.737 98.6912 431.604C97.6846 430.472 96.5521 429.465 95.2937 428.333C92.7771 426.193 89.8829 424.054 86.4854 422.167C83.0879 420.405 79.8163 418.895 76.6704 417.888C75.0346 417.385 73.6504 416.882 72.1405 416.63C71.3855 416.504 70.7563 416.253 70.1271 416.127C69.498 416.001 68.8688 415.875 68.2396 415.749C66.9813 415.498 65.8488 415.372 64.968 415.246C64.4646 415.246 64.0871 415.12 63.5838 415.12C63.2063 415.12 62.8288 415.12 62.4513 415.12C61.8221 415.12 61.3188 415.12 60.8155 414.994C60.6897 415.12 60.438 415.12 60.438 415.12Z" fill="#041F60"/>
<path d="M56.0356 337.61C56.0356 337.61 56.4131 337.987 57.1681 338.616C58.049 339.371 59.0556 340.252 60.314 341.385C62.9565 343.65 66.7314 346.796 70.8839 350.193C75.0364 353.591 78.8114 356.736 81.5797 358.876C82.8381 359.882 83.9706 360.763 84.8514 361.518C85.6064 362.147 86.1097 362.399 86.1097 362.399C86.1097 362.399 85.7322 362.021 84.9772 361.392C84.0964 360.637 83.0897 359.756 81.8314 358.624C79.1889 356.359 75.4139 353.213 71.2614 349.816C67.1089 346.418 63.334 343.272 60.5656 341.133C59.3073 340.126 58.1748 339.246 57.294 338.491C56.539 337.861 56.1615 337.61 56.0356 337.61Z" fill="#041F60"/>
<path d="M52.2588 357.87C52.2588 357.995 60.3121 360.512 70.2529 363.532C80.1937 366.426 88.3729 368.691 88.3729 368.565C88.3729 368.44 80.4454 365.923 70.3787 362.903C60.4379 360.009 52.3846 357.744 52.2588 357.87Z" fill="#041F60"/>
<path d="M81.9609 349.816C81.9609 349.816 82.3384 349.438 82.8418 348.683C83.3451 347.803 84.1001 346.796 84.9809 345.412C86.7426 342.643 89.3851 338.994 92.4051 335.093C95.4251 331.193 98.3192 327.669 100.458 325.278C101.465 324.146 102.346 323.139 102.975 322.384C103.604 321.755 103.856 321.252 103.856 321.252C103.856 321.252 103.478 321.504 102.849 322.258C102.22 322.888 101.213 323.894 100.207 325.027C97.9417 327.418 95.0476 330.815 92.0276 334.842C89.0076 338.868 86.4909 342.518 84.7293 345.412C83.8484 346.796 83.2193 347.928 82.7159 348.683C82.2126 349.313 81.9609 349.816 81.9609 349.816Z" fill="#041F60"/>
<path d="M109.892 361.017C109.766 361.017 110.521 362.276 111.78 364.163C113.038 366.051 114.548 368.693 116.31 371.587C117.945 374.607 119.455 377.25 120.462 379.263C121.469 381.277 122.098 382.535 122.224 382.409C122.35 382.409 121.846 381.025 120.84 379.012C119.959 376.998 118.575 374.23 116.813 371.21C115.177 368.19 113.415 365.673 112.157 363.786C110.899 362.024 110.018 361.017 109.892 361.017Z" fill="#041F60"/>
<path d="M119.456 396.121C119.456 396.247 121.091 395.492 123.482 394.36C125.999 393.227 129.522 391.717 133.423 390.333C137.324 388.949 141.099 387.942 143.741 387.187C146.384 386.558 148.02 386.18 148.02 386.055C148.02 386.055 147.642 386.055 146.761 386.18C146.006 386.306 144.874 386.558 143.49 386.81C140.847 387.439 137.072 388.32 133.046 389.704C129.019 391.088 125.621 392.598 123.105 393.856C121.846 394.485 120.84 394.989 120.211 395.366C119.833 395.744 119.456 395.995 119.456 396.121Z" fill="#041F60"/>
<path d="M111.907 437.899C111.907 437.899 112.033 438.025 112.41 438.025C112.788 438.151 113.291 438.277 113.794 438.402C115.178 438.654 116.94 439.157 119.079 439.661C123.609 440.667 129.901 442.052 136.57 444.317C143.239 446.582 149.027 449.476 152.802 451.992C154.69 453.251 156.326 454.383 157.332 455.138C158.339 455.893 158.968 456.397 158.968 456.397C158.968 456.397 158.842 456.271 158.591 456.019C158.339 455.767 157.962 455.39 157.458 455.012C156.452 454.132 154.942 452.999 153.054 451.741C149.153 449.098 143.491 446.204 136.696 443.939C130.027 441.674 123.609 440.416 119.079 439.535C116.814 439.157 115.053 438.78 113.668 438.528C112.662 438.025 111.907 437.899 111.907 437.899Z" fill="#041F60"/>
<path d="M84.7308 448.218C84.8566 448.218 85.8633 442.555 86.87 435.634C87.8766 428.714 88.6316 422.925 88.38 422.925C88.2541 422.925 87.2475 428.588 86.2408 435.509C85.2341 442.555 84.605 448.218 84.7308 448.218Z" fill="#041F60"/>
<path d="M56.4136 438.023C56.5394 438.023 57.4202 436.891 58.9302 435.003C60.4402 433.116 62.5794 430.473 64.9702 427.579C67.361 424.685 69.626 422.168 71.2619 420.407C72.8977 418.519 73.9044 417.387 73.7785 417.387C73.7785 417.387 73.401 417.638 73.0235 418.142C72.5202 418.645 71.891 419.274 71.0102 420.155C69.3744 421.917 66.9835 424.433 64.5927 427.328C62.2019 430.222 60.0627 432.864 58.6786 434.877C57.9236 435.884 57.4202 436.639 57.0427 437.268C56.6652 437.646 56.4136 437.897 56.4136 438.023Z" fill="#041F60"/>
<path d="M131.412 464.198V478.165H127.888L115.431 517.425H87.8735L75.7935 478.669L71.1377 478.165V464.198H131.412Z" fill="#455A64"/>
<path d="M73.5288 478.67C73.5288 478.796 85.7346 478.922 100.709 478.922C115.683 478.922 127.889 478.796 127.889 478.67C127.889 478.545 115.683 478.419 100.709 478.419C85.6088 478.293 73.5288 478.419 73.5288 478.67Z" fill="#263238"/>
<path d="M53.6465 388.7C53.6465 388.7 54.2757 388.951 55.4081 389.203C56.6665 389.455 58.3023 389.958 60.1898 390.336C64.2165 391.342 69.8789 392.852 75.9189 394.866C81.9589 396.879 87.3697 399.018 91.2706 400.78C93.158 401.535 94.668 402.29 95.8005 402.793C96.933 403.296 97.4364 403.548 97.4364 403.422C97.4364 403.296 96.933 403.045 95.8005 402.541C94.7939 402.038 93.2839 401.283 91.2706 400.402C87.4956 398.641 82.0847 396.376 75.9189 394.362C69.8789 392.349 64.2165 390.839 60.064 389.958C58.0506 389.455 56.289 389.203 55.1565 388.951C54.2757 388.7 53.6465 388.574 53.6465 388.7Z" fill="#263238"/>
<path d="M82.5869 500.438C82.5869 500.564 91.1436 500.69 101.714 500.69C112.283 500.69 120.84 500.564 120.84 500.438C120.84 500.312 112.283 500.186 101.714 500.186C91.1436 500.06 82.5869 500.186 82.5869 500.438Z" fill="#FAFAFA"/>
<path d="M81.5806 497.166C81.5806 497.292 90.6406 497.417 101.84 497.417C113.039 497.417 122.099 497.292 122.099 497.166C122.099 497.04 113.039 496.914 101.84 496.914C90.6406 496.914 81.5806 497.04 81.5806 497.166Z" fill="#FAFAFA"/>
<path d="M114.369 79.8945C114.369 80.7227 114.088 81.3574 113.525 81.7988C112.963 82.2402 112.166 82.4609 111.135 82.4609H109.811V86H109.213V77.4336H111.311C113.35 77.4336 114.369 78.2539 114.369 79.8945ZM109.811 81.9453H110.988C111.953 81.9453 112.65 81.7871 113.08 81.4707C113.51 81.1504 113.725 80.6328 113.725 79.918C113.725 79.2578 113.521 78.7695 113.115 78.4531C112.709 78.1328 112.08 77.9727 111.229 77.9727H109.811V81.9453ZM118.594 79.5078C118.863 79.5078 119.152 79.5352 119.461 79.5898L119.35 80.1465C119.084 80.0801 118.809 80.0469 118.523 80.0469C117.98 80.0469 117.535 80.2773 117.188 80.7383C116.84 81.1992 116.666 81.7812 116.666 82.4844V86H116.086V79.6309H116.578L116.637 80.7793H116.678C116.939 80.3105 117.219 79.9824 117.516 79.7949C117.812 79.6035 118.172 79.5078 118.594 79.5078ZM126.029 82.8066C126.029 83.8457 125.777 84.6582 125.273 85.2441C124.77 85.8262 124.074 86.1172 123.188 86.1172C122.629 86.1172 122.137 85.9824 121.711 85.7129C121.285 85.4434 120.959 85.0566 120.732 84.5527C120.506 84.0488 120.393 83.4668 120.393 82.8066C120.393 81.7676 120.645 80.959 121.148 80.3809C121.652 79.7988 122.344 79.5078 123.223 79.5078C124.098 79.5078 124.783 79.8027 125.279 80.3926C125.779 80.9785 126.029 81.7832 126.029 82.8066ZM121.002 82.8066C121.002 83.6816 121.193 84.3652 121.576 84.8574C121.963 85.3457 122.508 85.5898 123.211 85.5898C123.914 85.5898 124.457 85.3457 124.84 84.8574C125.227 84.3652 125.42 83.6816 125.42 82.8066C125.42 81.9277 125.225 81.2461 124.834 80.7617C124.447 80.2773 123.902 80.0352 123.199 80.0352C122.496 80.0352 121.953 80.2773 121.57 80.7617C121.191 81.2422 121.002 81.9238 121.002 82.8066ZM130.16 80.1348H128.66V86H128.08V80.1348H126.896V79.7949L128.08 79.5781V79.0859C128.08 78.3047 128.223 77.7324 128.508 77.3691C128.797 77.002 129.268 76.8184 129.92 76.8184C130.271 76.8184 130.623 76.8711 130.975 76.9766L130.84 77.4805C130.527 77.3828 130.217 77.334 129.908 77.334C129.455 77.334 129.133 77.4688 128.941 77.7383C128.754 78.0039 128.66 78.4375 128.66 79.0391V79.6309H130.16V80.1348ZM131.971 86H131.391V79.6309H131.971V86ZM131.309 77.8613C131.309 77.4863 131.432 77.2988 131.678 77.2988C131.799 77.2988 131.893 77.3477 131.959 77.4453C132.029 77.543 132.064 77.6816 132.064 77.8613C132.064 78.0371 132.029 78.1758 131.959 78.2773C131.893 78.3789 131.799 78.4297 131.678 78.4297C131.432 78.4297 131.309 78.2402 131.309 77.8613ZM135.791 85.6016C136.158 85.6016 136.479 85.5703 136.752 85.5078V85.9766C136.471 86.0703 136.146 86.1172 135.779 86.1172C135.217 86.1172 134.801 85.9668 134.531 85.666C134.266 85.3652 134.133 84.8926 134.133 84.248V80.1348H133.189V79.7949L134.133 79.5312L134.426 78.0898H134.725V79.6309H136.594V80.1348H134.725V84.166C134.725 84.6543 134.811 85.0156 134.982 85.25C135.154 85.4844 135.424 85.6016 135.791 85.6016Z" fill="#062161"/>
<path d="M114.398 99.3223C114.398 99.9434 114.174 100.443 113.725 100.822C113.275 101.197 112.646 101.422 111.838 101.496V102.697H111.035V101.52C110.082 101.5 109.246 101.332 108.527 101.016V99.4688C108.867 99.6367 109.275 99.7852 109.752 99.9141C110.232 100.043 110.66 100.119 111.035 100.143V98.3262L110.643 98.1738C109.869 97.8691 109.32 97.5391 108.996 97.1836C108.676 96.8242 108.516 96.3809 108.516 95.8535C108.516 95.2871 108.736 94.8223 109.178 94.459C109.623 94.0918 110.242 93.8691 111.035 93.791V92.8945H111.838V93.7676C112.732 93.8066 113.541 93.9863 114.264 94.3066L113.713 95.6777C113.104 95.4277 112.479 95.2754 111.838 95.2207V96.9492C112.6 97.2422 113.141 97.4961 113.461 97.7109C113.785 97.9258 114.021 98.1621 114.17 98.4199C114.322 98.6777 114.398 98.9785 114.398 99.3223ZM112.635 99.4102C112.635 99.2461 112.568 99.1074 112.436 98.9941C112.303 98.8809 112.104 98.7637 111.838 98.6426V100.102C112.369 100.012 112.635 99.7812 112.635 99.4102ZM110.279 95.8535C110.279 96.0254 110.338 96.168 110.455 96.2812C110.576 96.3906 110.77 96.5039 111.035 96.6211V95.2441C110.531 95.3184 110.279 95.5215 110.279 95.8535ZM119.812 102H118.002V97.043L118.02 96.2285L118.049 95.3379C117.748 95.6387 117.539 95.8359 117.422 95.9297L116.438 96.7207L115.564 95.6309L118.324 93.4336H119.812V102ZM128.18 102H122.191V100.74L124.342 98.5664C124.979 97.9141 125.395 97.4629 125.59 97.2129C125.785 96.959 125.926 96.7246 126.012 96.5098C126.098 96.2949 126.141 96.0723 126.141 95.8418C126.141 95.498 126.045 95.2422 125.854 95.0742C125.666 94.9062 125.414 94.8223 125.098 94.8223C124.766 94.8223 124.443 94.8984 124.131 95.0508C123.818 95.2031 123.492 95.4199 123.152 95.7012L122.168 94.5352C122.59 94.1758 122.939 93.9219 123.217 93.7734C123.494 93.625 123.797 93.5117 124.125 93.4336C124.453 93.3516 124.82 93.3105 125.227 93.3105C125.762 93.3105 126.234 93.4082 126.645 93.6035C127.055 93.7988 127.373 94.0723 127.6 94.4238C127.826 94.7754 127.939 95.1777 127.939 95.6309C127.939 96.0254 127.869 96.3965 127.729 96.7441C127.592 97.0879 127.377 97.4414 127.084 97.8047C126.795 98.168 126.283 98.6855 125.549 99.3574L124.447 100.395V100.477H128.18V102ZM134.988 97.7168C134.988 99.2129 134.742 100.32 134.25 101.039C133.762 101.758 133.008 102.117 131.988 102.117C131 102.117 130.254 101.746 129.75 101.004C129.25 100.262 129 99.166 129 97.7168C129 96.2051 129.244 95.0918 129.732 94.377C130.221 93.6582 130.973 93.2988 131.988 93.2988C132.977 93.2988 133.723 93.6738 134.227 94.4238C134.734 95.1738 134.988 96.2715 134.988 97.7168ZM130.799 97.7168C130.799 98.7676 130.889 99.5215 131.068 99.9785C131.252 100.432 131.559 100.658 131.988 100.658C132.41 100.658 132.715 100.428 132.902 99.9668C133.09 99.5059 133.184 98.7559 133.184 97.7168C133.184 96.666 133.088 95.9121 132.896 95.4551C132.709 94.9941 132.406 94.7637 131.988 94.7637C131.562 94.7637 131.258 94.9941 131.074 95.4551C130.891 95.9121 130.799 96.666 130.799 97.7168ZM138.111 100.74C137.908 101.529 137.564 102.465 137.08 103.547H135.791C136.045 102.508 136.242 101.527 136.383 100.605H138.023L138.111 100.74ZM145.324 97.7168C145.324 99.2129 145.078 100.32 144.586 101.039C144.098 101.758 143.344 102.117 142.324 102.117C141.336 102.117 140.59 101.746 140.086 101.004C139.586 100.262 139.336 99.166 139.336 97.7168C139.336 96.2051 139.58 95.0918 140.068 94.377C140.557 93.6582 141.309 93.2988 142.324 93.2988C143.312 93.2988 144.059 93.6738 144.562 94.4238C145.07 95.1738 145.324 96.2715 145.324 97.7168ZM141.135 97.7168C141.135 98.7676 141.225 99.5215 141.404 99.9785C141.588 100.432 141.895 100.658 142.324 100.658C142.746 100.658 143.051 100.428 143.238 99.9668C143.426 99.5059 143.52 98.7559 143.52 97.7168C143.52 96.666 143.424 95.9121 143.232 95.4551C143.045 94.9941 142.742 94.7637 142.324 94.7637C141.898 94.7637 141.594 94.9941 141.41 95.4551C141.227 95.9121 141.135 96.666 141.135 97.7168ZM152.18 97.7168C152.18 99.2129 151.934 100.32 151.441 101.039C150.953 101.758 150.199 102.117 149.18 102.117C148.191 102.117 147.445 101.746 146.941 101.004C146.441 100.262 146.191 99.166 146.191 97.7168C146.191 96.2051 146.436 95.0918 146.924 94.377C147.412 93.6582 148.164 93.2988 149.18 93.2988C150.168 93.2988 150.914 93.6738 151.418 94.4238C151.926 95.1738 152.18 96.2715 152.18 97.7168ZM147.99 97.7168C147.99 98.7676 148.08 99.5215 148.26 99.9785C148.443 100.432 148.75 100.658 149.18 100.658C149.602 100.658 149.906 100.428 150.094 99.9668C150.281 99.5059 150.375 98.7559 150.375 97.7168C150.375 96.666 150.279 95.9121 150.088 95.4551C149.9 94.9941 149.598 94.7637 149.18 94.7637C148.754 94.7637 148.449 94.9941 148.266 95.4551C148.082 95.9121 147.99 96.666 147.99 97.7168ZM159.035 97.7168C159.035 99.2129 158.789 100.32 158.297 101.039C157.809 101.758 157.055 102.117 156.035 102.117C155.047 102.117 154.301 101.746 153.797 101.004C153.297 100.262 153.047 99.166 153.047 97.7168C153.047 96.2051 153.291 95.0918 153.779 94.377C154.268 93.6582 155.02 93.2988 156.035 93.2988C157.023 93.2988 157.77 93.6738 158.273 94.4238C158.781 95.1738 159.035 96.2715 159.035 97.7168ZM154.846 97.7168C154.846 98.7676 154.936 99.5215 155.115 99.9785C155.299 100.432 155.605 100.658 156.035 100.658C156.457 100.658 156.762 100.428 156.949 99.9668C157.137 99.5059 157.23 98.7559 157.23 97.7168C157.23 96.666 157.135 95.9121 156.943 95.4551C156.756 94.9941 156.453 94.7637 156.035 94.7637C155.609 94.7637 155.305 94.9941 155.121 95.4551C154.938 95.9121 154.846 96.666 154.846 97.7168Z" fill="#062161"/>
<path d="M301.445 86H300.842V77.9961H298.059V77.4336H304.229V77.9961H301.445V86ZM310.627 82.8066C310.627 83.8457 310.375 84.6582 309.871 85.2441C309.367 85.8262 308.672 86.1172 307.785 86.1172C307.227 86.1172 306.734 85.9824 306.309 85.7129C305.883 85.4434 305.557 85.0566 305.33 84.5527C305.104 84.0488 304.99 83.4668 304.99 82.8066C304.99 81.7676 305.242 80.959 305.746 80.3809C306.25 79.7988 306.941 79.5078 307.82 79.5078C308.695 79.5078 309.381 79.8027 309.877 80.3926C310.377 80.9785 310.627 81.7832 310.627 82.8066ZM305.6 82.8066C305.6 83.6816 305.791 84.3652 306.174 84.8574C306.561 85.3457 307.105 85.5898 307.809 85.5898C308.512 85.5898 309.055 85.3457 309.438 84.8574C309.824 84.3652 310.018 83.6816 310.018 82.8066C310.018 81.9277 309.822 81.2461 309.432 80.7617C309.045 80.2773 308.5 80.0352 307.797 80.0352C307.094 80.0352 306.551 80.2773 306.168 80.7617C305.789 81.2422 305.6 81.9238 305.6 82.8066ZM314.072 85.6016C314.439 85.6016 314.76 85.5703 315.033 85.5078V85.9766C314.752 86.0703 314.428 86.1172 314.061 86.1172C313.498 86.1172 313.082 85.9668 312.812 85.666C312.547 85.3652 312.414 84.8926 312.414 84.248V80.1348H311.471V79.7949L312.414 79.5312L312.707 78.0898H313.006V79.6309H314.875V80.1348H313.006V84.166C313.006 84.6543 313.092 85.0156 313.264 85.25C313.436 85.4844 313.705 85.6016 314.072 85.6016ZM320.277 86L320.131 84.9922H320.084C319.764 85.4023 319.434 85.6934 319.094 85.8652C318.758 86.0332 318.359 86.1172 317.898 86.1172C317.273 86.1172 316.787 85.957 316.439 85.6367C316.092 85.3164 315.918 84.873 315.918 84.3066C315.918 83.6855 316.176 83.2031 316.691 82.8594C317.211 82.5156 317.961 82.334 318.941 82.3145L320.154 82.2793V81.8574C320.154 81.252 320.031 80.7949 319.785 80.4863C319.539 80.1777 319.143 80.0234 318.596 80.0234C318.006 80.0234 317.395 80.1875 316.762 80.5156L316.545 80.0117C317.244 79.6836 317.936 79.5195 318.619 79.5195C319.318 79.5195 319.84 79.7012 320.184 80.0645C320.531 80.4277 320.705 80.9941 320.705 81.7637V86H320.277ZM317.934 85.5898C318.613 85.5898 319.148 85.3965 319.539 85.0098C319.934 84.6191 320.131 84.0781 320.131 83.3867V82.7598L319.018 82.8066C318.123 82.8496 317.484 82.9902 317.102 83.2285C316.723 83.4629 316.533 83.8301 316.533 84.3301C316.533 84.7285 316.654 85.0391 316.896 85.2617C317.143 85.4805 317.488 85.5898 317.934 85.5898ZM323.354 86H322.773V76.8828H323.354V86ZM329.354 82.2676V86H328.756V77.4336H330.795C331.857 77.4336 332.643 77.6309 333.15 78.0254C333.658 78.416 333.912 79.0059 333.912 79.7949C333.912 80.3691 333.76 80.8535 333.455 81.248C333.154 81.6426 332.695 81.9258 332.078 82.0977L334.404 86H333.689L331.48 82.2676H329.354ZM329.354 81.752H330.988C331.711 81.752 332.271 81.5918 332.67 81.2715C333.068 80.9473 333.268 80.4707 333.268 79.8418C333.268 79.1895 333.072 78.7148 332.682 78.418C332.291 78.1211 331.654 77.9727 330.771 77.9727H329.354V81.752ZM338.318 86.1172C337.393 86.1172 336.67 85.832 336.15 85.2617C335.635 84.6914 335.377 83.8926 335.377 82.8652C335.377 81.8496 335.627 81.0371 336.127 80.4277C336.627 79.8145 337.301 79.5078 338.148 79.5078C338.898 79.5078 339.49 79.7695 339.924 80.293C340.357 80.8164 340.574 81.5273 340.574 82.4258V82.8945H335.986C335.994 83.7695 336.197 84.4375 336.596 84.8984C336.998 85.3594 337.572 85.5898 338.318 85.5898C338.682 85.5898 339 85.5645 339.273 85.5137C339.551 85.4629 339.9 85.3535 340.322 85.1855V85.7129C339.963 85.8691 339.631 85.9746 339.326 86.0293C339.021 86.0879 338.686 86.1172 338.318 86.1172ZM338.148 80.0234C337.535 80.0234 337.043 80.2266 336.672 80.6328C336.301 81.0352 336.084 81.6172 336.021 82.3789H339.959C339.959 81.6406 339.799 81.0645 339.479 80.6504C339.158 80.2324 338.715 80.0234 338.148 80.0234ZM343.727 86L341.266 79.6309H341.863L343.51 83.9609C343.729 84.5156 343.893 85 344.002 85.4141H344.037C344.197 84.8828 344.361 84.3945 344.529 83.9492L346.176 79.6309H346.773L344.312 86H343.727ZM350.412 86.1172C349.486 86.1172 348.764 85.832 348.244 85.2617C347.729 84.6914 347.471 83.8926 347.471 82.8652C347.471 81.8496 347.721 81.0371 348.221 80.4277C348.721 79.8145 349.395 79.5078 350.242 79.5078C350.992 79.5078 351.584 79.7695 352.018 80.293C352.451 80.8164 352.668 81.5273 352.668 82.4258V82.8945H348.08C348.088 83.7695 348.291 84.4375 348.689 84.8984C349.092 85.3594 349.666 85.5898 350.412 85.5898C350.775 85.5898 351.094 85.5645 351.367 85.5137C351.645 85.4629 351.994 85.3535 352.416 85.1855V85.7129C352.057 85.8691 351.725 85.9746 351.42 86.0293C351.115 86.0879 350.779 86.1172 350.412 86.1172ZM350.242 80.0234C349.629 80.0234 349.137 80.2266 348.766 80.6328C348.395 81.0352 348.178 81.6172 348.115 82.3789H352.053C352.053 81.6406 351.893 81.0645 351.572 80.6504C351.252 80.2324 350.809 80.0234 350.242 80.0234ZM358.867 86V81.8691C358.867 81.2285 358.732 80.7637 358.463 80.4746C358.193 80.1816 357.775 80.0352 357.209 80.0352C356.447 80.0352 355.889 80.2285 355.533 80.6152C355.182 80.998 355.006 81.6211 355.006 82.4844V86H354.426V79.6309H354.918L355.029 80.5039H355.064C355.479 79.8398 356.215 79.5078 357.273 79.5078C358.719 79.5078 359.441 80.2832 359.441 81.834V86H358.867ZM362.008 79.6309V83.7559C362.008 84.3965 362.143 84.8633 362.412 85.1562C362.682 85.4453 363.1 85.5898 363.666 85.5898C364.424 85.5898 364.98 85.3984 365.336 85.0156C365.695 84.6328 365.875 84.0098 365.875 83.1465V79.6309H366.449V86H365.957L365.852 85.1211H365.816C365.402 85.7852 364.666 86.1172 363.607 86.1172C362.158 86.1172 361.434 85.3418 361.434 83.791V79.6309H362.008ZM371.154 86.1172C370.229 86.1172 369.506 85.832 368.986 85.2617C368.471 84.6914 368.213 83.8926 368.213 82.8652C368.213 81.8496 368.463 81.0371 368.963 80.4277C369.463 79.8145 370.137 79.5078 370.984 79.5078C371.734 79.5078 372.326 79.7695 372.76 80.293C373.193 80.8164 373.41 81.5273 373.41 82.4258V82.8945H368.822C368.83 83.7695 369.033 84.4375 369.432 84.8984C369.834 85.3594 370.408 85.5898 371.154 85.5898C371.518 85.5898 371.836 85.5645 372.109 85.5137C372.387 85.4629 372.736 85.3535 373.158 85.1855V85.7129C372.799 85.8691 372.467 85.9746 372.162 86.0293C371.857 86.0879 371.521 86.1172 371.154 86.1172ZM370.984 80.0234C370.371 80.0234 369.879 80.2266 369.508 80.6328C369.137 81.0352 368.92 81.6172 368.857 82.3789H372.795C372.795 81.6406 372.635 81.0645 372.314 80.6504C371.994 80.2324 371.551 80.0234 370.984 80.0234Z" fill="#062161"/>
<path d="M304.398 99.3223C304.398 99.9434 304.174 100.443 303.725 100.822C303.275 101.197 302.646 101.422 301.838 101.496V102.697H301.035V101.52C300.082 101.5 299.246 101.332 298.527 101.016V99.4688C298.867 99.6367 299.275 99.7852 299.752 99.9141C300.232 100.043 300.66 100.119 301.035 100.143V98.3262L300.643 98.1738C299.869 97.8691 299.32 97.5391 298.996 97.1836C298.676 96.8242 298.516 96.3809 298.516 95.8535C298.516 95.2871 298.736 94.8223 299.178 94.459C299.623 94.0918 300.242 93.8691 301.035 93.791V92.8945H301.838V93.7676C302.732 93.8066 303.541 93.9863 304.264 94.3066L303.713 95.6777C303.104 95.4277 302.479 95.2754 301.838 95.2207V96.9492C302.6 97.2422 303.141 97.4961 303.461 97.7109C303.785 97.9258 304.021 98.1621 304.17 98.4199C304.322 98.6777 304.398 98.9785 304.398 99.3223ZM302.635 99.4102C302.635 99.2461 302.568 99.1074 302.436 98.9941C302.303 98.8809 302.104 98.7637 301.838 98.6426V100.102C302.369 100.012 302.635 99.7812 302.635 99.4102ZM300.279 95.8535C300.279 96.0254 300.338 96.168 300.455 96.2812C300.576 96.3906 300.77 96.5039 301.035 96.6211V95.2441C300.531 95.3184 300.279 95.5215 300.279 95.8535ZM309.812 102H308.002V97.043L308.02 96.2285L308.049 95.3379C307.748 95.6387 307.539 95.8359 307.422 95.9297L306.438 96.7207L305.564 95.6309L308.324 93.4336H309.812V102ZM318.18 102H312.191V100.74L314.342 98.5664C314.979 97.9141 315.395 97.4629 315.59 97.2129C315.785 96.959 315.926 96.7246 316.012 96.5098C316.098 96.2949 316.141 96.0723 316.141 95.8418C316.141 95.498 316.045 95.2422 315.854 95.0742C315.666 94.9062 315.414 94.8223 315.098 94.8223C314.766 94.8223 314.443 94.8984 314.131 95.0508C313.818 95.2031 313.492 95.4199 313.152 95.7012L312.168 94.5352C312.59 94.1758 312.939 93.9219 313.217 93.7734C313.494 93.625 313.797 93.5117 314.125 93.4336C314.453 93.3516 314.82 93.3105 315.227 93.3105C315.762 93.3105 316.234 93.4082 316.645 93.6035C317.055 93.7988 317.373 94.0723 317.6 94.4238C317.826 94.7754 317.939 95.1777 317.939 95.6309C317.939 96.0254 317.869 96.3965 317.729 96.7441C317.592 97.0879 317.377 97.4414 317.084 97.8047C316.795 98.168 316.283 98.6855 315.549 99.3574L314.447 100.395V100.477H318.18V102ZM324.988 97.7168C324.988 99.2129 324.742 100.32 324.25 101.039C323.762 101.758 323.008 102.117 321.988 102.117C321 102.117 320.254 101.746 319.75 101.004C319.25 100.262 319 99.166 319 97.7168C319 96.2051 319.244 95.0918 319.732 94.377C320.221 93.6582 320.973 93.2988 321.988 93.2988C322.977 93.2988 323.723 93.6738 324.227 94.4238C324.734 95.1738 324.988 96.2715 324.988 97.7168ZM320.799 97.7168C320.799 98.7676 320.889 99.5215 321.068 99.9785C321.252 100.432 321.559 100.658 321.988 100.658C322.41 100.658 322.715 100.428 322.902 99.9668C323.09 99.5059 323.184 98.7559 323.184 97.7168C323.184 96.666 323.088 95.9121 322.896 95.4551C322.709 94.9941 322.406 94.7637 321.988 94.7637C321.562 94.7637 321.258 94.9941 321.074 95.4551C320.891 95.9121 320.799 96.666 320.799 97.7168ZM328.111 100.74C327.908 101.529 327.564 102.465 327.08 103.547H325.791C326.045 102.508 326.242 101.527 326.383 100.605H328.023L328.111 100.74ZM335.324 97.7168C335.324 99.2129 335.078 100.32 334.586 101.039C334.098 101.758 333.344 102.117 332.324 102.117C331.336 102.117 330.59 101.746 330.086 101.004C329.586 100.262 329.336 99.166 329.336 97.7168C329.336 96.2051 329.58 95.0918 330.068 94.377C330.557 93.6582 331.309 93.2988 332.324 93.2988C333.312 93.2988 334.059 93.6738 334.562 94.4238C335.07 95.1738 335.324 96.2715 335.324 97.7168ZM331.135 97.7168C331.135 98.7676 331.225 99.5215 331.404 99.9785C331.588 100.432 331.895 100.658 332.324 100.658C332.746 100.658 333.051 100.428 333.238 99.9668C333.426 99.5059 333.52 98.7559 333.52 97.7168C333.52 96.666 333.424 95.9121 333.232 95.4551C333.045 94.9941 332.742 94.7637 332.324 94.7637C331.898 94.7637 331.594 94.9941 331.41 95.4551C331.227 95.9121 331.135 96.666 331.135 97.7168ZM342.18 97.7168C342.18 99.2129 341.934 100.32 341.441 101.039C340.953 101.758 340.199 102.117 339.18 102.117C338.191 102.117 337.445 101.746 336.941 101.004C336.441 100.262 336.191 99.166 336.191 97.7168C336.191 96.2051 336.436 95.0918 336.924 94.377C337.412 93.6582 338.164 93.2988 339.18 93.2988C340.168 93.2988 340.914 93.6738 341.418 94.4238C341.926 95.1738 342.18 96.2715 342.18 97.7168ZM337.99 97.7168C337.99 98.7676 338.08 99.5215 338.26 99.9785C338.443 100.432 338.75 100.658 339.18 100.658C339.602 100.658 339.906 100.428 340.094 99.9668C340.281 99.5059 340.375 98.7559 340.375 97.7168C340.375 96.666 340.279 95.9121 340.088 95.4551C339.9 94.9941 339.598 94.7637 339.18 94.7637C338.754 94.7637 338.449 94.9941 338.266 95.4551C338.082 95.9121 337.99 96.666 337.99 97.7168ZM349.035 97.7168C349.035 99.2129 348.789 100.32 348.297 101.039C347.809 101.758 347.055 102.117 346.035 102.117C345.047 102.117 344.301 101.746 343.797 101.004C343.297 100.262 343.047 99.166 343.047 97.7168C343.047 96.2051 343.291 95.0918 343.779 94.377C344.268 93.6582 345.02 93.2988 346.035 93.2988C347.023 93.2988 347.77 93.6738 348.273 94.4238C348.781 95.1738 349.035 96.2715 349.035 97.7168ZM344.846 97.7168C344.846 98.7676 344.936 99.5215 345.115 99.9785C345.299 100.432 345.605 100.658 346.035 100.658C346.457 100.658 346.762 100.428 346.949 99.9668C347.137 99.5059 347.23 98.7559 347.23 97.7168C347.23 96.666 347.135 95.9121 346.943 95.4551C346.756 94.9941 346.453 94.7637 346.035 94.7637C345.609 94.7637 345.305 94.9941 345.121 95.4551C344.938 95.9121 344.846 96.666 344.846 97.7168Z" fill="#062161"/>
</svg>
