<svg width="37" height="39" viewBox="0 0 37 39" fill="none" xmlns="http://www.w3.org/2000/svg">
<path d="M36.1671 37.4767H34.4964V13.2181C34.4964 12.089 33.5777 11.1704 32.4487 11.1704H28.7144C27.5852 11.1704 26.6667 12.0891 26.6667 13.2181V37.4767H22.4244V24.2091C22.4244 23.08 21.5058 22.1614 20.3767 22.1614H16.6424C15.5132 22.1614 14.5947 23.0801 14.5947 24.2091V37.4767H10.3524V30.6055C10.3524 29.4764 9.43373 28.5578 8.30468 28.5578H4.57027C3.44115 28.5578 2.52257 29.4765 2.52257 30.6055V37.4767H0.761737C0.34103 37.4767 0 37.8177 0 38.2384C0 38.6591 0.34103 39.0002 0.761737 39.0002H36.1671C36.5878 39.0002 36.9289 38.6591 36.9289 38.2384C36.9289 37.8177 36.5878 37.4767 36.1671 37.4767ZM8.82876 37.4767H4.04597V30.6055C4.04597 30.3164 4.28111 30.0813 4.57019 30.0813H8.30453C8.59361 30.0813 8.82876 30.3164 8.82876 30.6055V37.4767ZM20.9008 37.4767H16.118V24.2091C16.118 23.9201 16.3532 23.6849 16.6423 23.6849H20.3766C20.6656 23.6849 20.9008 23.9201 20.9008 24.2091V37.4767ZM32.9729 37.4767H28.1901V13.2181C28.1901 12.929 28.4253 12.6939 28.7144 12.6939H32.4487C32.7378 12.6939 32.9729 12.929 32.9729 13.2181V37.4767Z" fill="#1CE0E2"/>
<path d="M34.4904 0.801043C34.501 0.593165 34.4279 0.381783 34.2692 0.223037C34.1104 0.0642906 33.899 -0.00891232 33.6912 0.00182817C33.6789 0.00129495 33.6668 0 33.6543 0H29.0458C28.6251 0 28.2841 0.34103 28.2841 0.761737C28.2841 1.18244 28.6251 1.52347 29.0458 1.52347H31.8914L24.3611 9.05385L21.5214 6.2141C21.3785 6.07127 21.1847 5.99098 20.9827 5.99098C20.7807 5.99098 20.5869 6.07127 20.4441 6.2141L6.75044 19.9078C6.45298 20.2053 6.45298 20.6876 6.75044 20.9852C6.8992 21.1338 7.09413 21.2081 7.28906 21.2081C7.48399 21.2081 7.67899 21.1338 7.82769 20.985L20.9827 7.82989L23.8225 10.6697C24.1199 10.9671 24.6023 10.9671 24.8998 10.6697L32.9687 2.6008V5.17623C32.9687 5.59694 33.3098 5.93797 33.7305 5.93797C34.1512 5.93797 34.4922 5.59694 34.4922 5.17623V0.837911C34.4922 0.825494 34.4909 0.813383 34.4904 0.801043Z" fill="#1CE0E2"/>
<path d="M4.72658 23.867C5.14728 23.867 5.48832 23.5259 5.48832 23.1052C5.48832 22.6845 5.14728 22.3435 4.72658 22.3435C4.30589 22.3435 3.96484 22.6845 3.96484 23.1052C3.96484 23.5259 4.30589 23.867 4.72658 23.867Z" fill="#1CE0E2"/>
</svg>
