<svg width="15" height="15" viewBox="0 0 15 15" fill="none" xmlns="http://www.w3.org/2000/svg">
<path d="M13.9101 14.4144H13.2675V5.08443C13.2675 4.65017 12.9142 4.29688 12.48 4.29688H11.0437C10.6094 4.29688 10.2562 4.65019 10.2562 5.08443V14.4144H8.62455V9.31165C8.62455 8.87738 8.27126 8.52409 7.837 8.52409H6.40075C5.96648 8.52409 5.61319 8.87741 5.61319 9.31165V14.4144H3.98159V11.7717C3.98159 11.3375 3.62827 10.9842 3.19403 10.9842H1.75775C1.32349 10.9842 0.970195 11.3375 0.970195 11.7717V14.4144H0.292969C0.131162 14.4144 0 14.5456 0 14.7074C0 14.8692 0.131162 15.0004 0.292969 15.0004H13.9101C14.0719 15.0004 14.2031 14.8692 14.2031 14.7074C14.2031 14.5456 14.0719 14.4144 13.9101 14.4144ZM3.39559 14.4144H1.5561V11.7717C1.5561 11.6606 1.64654 11.5701 1.75772 11.5701H3.19397C3.30515 11.5701 3.39559 11.6606 3.39559 11.7717V14.4144ZM8.03859 14.4144H6.1991V9.31165C6.1991 9.20047 6.28954 9.11003 6.40072 9.11003H7.83697C7.94812 9.11003 8.03859 9.20047 8.03859 9.31165V14.4144ZM12.6816 14.4144H10.8421V5.08443C10.8421 4.97325 10.9325 4.88281 11.0437 4.88281H12.48C12.5911 4.88281 12.6816 4.97325 12.6816 5.08443V14.4144Z" fill="white"/>
<path d="M13.2665 0.308086C13.2706 0.228135 13.2424 0.146836 13.1814 0.0857812C13.1203 0.0247265 13.039 -0.00342773 12.9591 0.000703125C12.9544 0.000498047 12.9497 0 12.9449 0H11.1724C11.0106 0 10.8795 0.131162 10.8795 0.292969C10.8795 0.454775 11.0106 0.585937 11.1724 0.585937H12.2669L9.37069 3.48217L8.2785 2.38998C8.22357 2.33505 8.14904 2.30417 8.07135 2.30417C7.99365 2.30417 7.91912 2.33505 7.86419 2.38998L2.59752 7.65667C2.48312 7.77108 2.48312 7.95659 2.59752 8.07102C2.65474 8.12818 2.72971 8.15677 2.80468 8.15677C2.87965 8.15677 2.95465 8.12818 3.01184 8.07096L8.07135 3.01142L9.16353 4.10361C9.27794 4.21802 9.46345 4.21802 9.57788 4.10361L12.6812 1.00028V1.99081C12.6812 2.15262 12.8124 2.28378 12.9742 2.28378C13.136 2.28378 13.2672 2.15262 13.2672 1.99081V0.322265C13.2672 0.31749 13.2667 0.312832 13.2665 0.308086Z" fill="white"/>
<path d="M1.81641 9.17969C1.97821 9.17969 2.10937 9.04852 2.10937 8.88672C2.10937 8.72492 1.97821 8.59375 1.81641 8.59375C1.6546 8.59375 1.52344 8.72492 1.52344 8.88672C1.52344 9.04852 1.6546 9.17969 1.81641 9.17969Z" fill="white"/>
</svg>
