<svg width="38" height="39" viewBox="0 0 38 39" fill="none" xmlns="http://www.w3.org/2000/svg">
<path d="M30.159 25.0552C27.8877 25.0552 25.8623 26.1242 24.5667 27.7762L13.7183 21.7917C13.9725 21.071 14.1119 20.2936 14.1119 19.4919C14.1119 18.6821 13.9725 17.9128 13.7101 17.184L24.5503 11.2076C25.8377 12.8677 27.8713 13.9448 30.1508 13.9448C34.0375 13.9448 37.2109 10.8189 37.2109 6.97238C37.2109 3.12583 34.0457 0 30.1508 0C26.2559 0 23.0907 3.12583 23.0907 6.97238C23.0907 7.78218 23.2301 8.55959 23.4925 9.28032L12.6606 15.2566C11.3732 13.5885 9.33962 12.5195 7.06006 12.5195C3.17334 12.5195 0 15.6453 0 19.4919C0 23.3385 3.17334 26.4643 7.06826 26.4643C9.34782 26.4643 11.3814 25.3872 12.677 23.7191L23.5171 29.7035C23.2547 30.4323 23.1071 31.2178 23.1071 32.0276C23.1071 35.8661 26.2723 39 30.1672 39C34.0621 39 37.2273 35.8742 37.2273 32.0276C37.2273 28.1811 34.0539 25.0552 30.159 25.0552ZM30.159 2.19456C32.8322 2.19456 35.0051 4.34053 35.0051 6.98048C35.0051 9.62043 32.8322 11.7664 30.159 11.7664C27.4859 11.7664 25.3129 9.62043 25.3129 6.98048C25.3129 4.34053 27.4941 2.19456 30.159 2.19456ZM7.06826 24.2778C4.39511 24.2778 2.22216 22.1319 2.22216 19.4919C2.22216 16.852 4.39511 14.706 7.06826 14.706C9.74141 14.706 11.9144 16.852 11.9144 19.4919C11.9144 22.1319 9.73321 24.2778 7.06826 24.2778ZM30.159 36.8054C27.4859 36.8054 25.3129 34.6595 25.3129 32.0195C25.3129 29.3796 27.4859 27.2336 30.159 27.2336C32.8322 27.2336 35.0051 29.3796 35.0051 32.0195C35.0051 34.6595 32.8322 36.8054 30.159 36.8054Z" fill="#1CE0E2"/>
</svg>
