<svg width="128" height="128" viewBox="0 0 128 128" fill="none" xmlns="http://www.w3.org/2000/svg">
<rect width="128" height="128" rx="8" fill="#132B66"/>
<path d="M66.4921 51.0757C63.961 51.0757 61.4868 51.8262 59.3823 53.2324C57.2778 54.6386 55.6376 56.6373 54.669 58.9757C53.7004 61.314 53.4469 63.8871 53.9407 66.3696C54.4345 68.852 55.6533 71.1323 57.4431 72.922C59.2328 74.7117 61.513 75.9305 63.9955 76.4243C66.4779 76.9181 69.051 76.6647 71.3894 75.6961C73.7278 74.7275 75.7264 73.0872 77.1326 70.9827C78.5388 68.8782 79.2894 66.404 79.2894 63.873C79.2894 60.4789 77.9411 57.2239 75.5411 54.8239C73.1412 52.424 69.8861 51.0757 66.4921 51.0757Z" fill="white"/>
<path d="M53.3979 55.4052C53.3979 55.9344 53.2409 56.4518 52.9469 56.8918C52.6529 57.3318 52.235 57.6748 51.7461 57.8773C51.2572 58.0798 50.7192 58.1328 50.2001 58.0295C49.6811 57.9263 49.2043 57.6715 48.8301 57.2973C48.4559 56.923 48.201 56.4463 48.0978 55.9272C47.9946 55.4082 48.0475 54.8702 48.2501 54.3813C48.4526 53.8923 48.7955 53.4744 49.2356 53.1804C49.6756 52.8864 50.1929 52.7295 50.7221 52.7295C51.4318 52.7295 52.1124 53.0114 52.6142 53.5132C53.116 54.015 53.3979 54.6956 53.3979 55.4052Z" fill="#57C6D0"/>
<path d="M27.9003 65.2485C27.9009 65.7972 27.7387 66.3336 27.4343 66.7901C27.1299 67.2465 26.6969 67.6024 26.1901 67.8126C25.6833 68.0229 25.1256 68.078 24.5875 67.9712C24.0493 67.8643 23.555 67.6001 23.1671 67.2122C22.7791 66.8242 22.515 66.3299 22.4081 65.7918C22.3012 65.2537 22.3564 64.6959 22.5666 64.1891C22.7769 63.6824 23.1327 63.2494 23.5892 62.945C24.0456 62.6406 24.5821 62.4784 25.1307 62.479C25.865 62.4798 26.569 62.7719 27.0882 63.2911C27.6074 63.8103 27.8994 64.5142 27.9003 65.2485Z" fill="white"/>
<path d="M26.0557 57.0086C26.055 57.5603 25.8631 58.0946 25.5127 58.5207C25.1622 58.9467 24.675 59.2382 24.1338 59.3453C23.5926 59.4524 23.0311 59.3686 22.5448 59.1082C22.0584 58.8478 21.6774 58.4268 21.4666 57.917C21.2558 57.4072 21.2283 56.8401 21.3887 56.3123C21.549 55.7845 21.8874 55.3285 22.3462 55.0222C22.805 54.7158 23.3557 54.578 23.9047 54.6321C24.4537 54.6863 24.967 54.929 25.3571 55.3191C25.5788 55.541 25.7546 55.8045 25.8745 56.0944C25.9943 56.3842 26.0559 56.6949 26.0557 57.0086Z" fill="white"/>
<path d="M88.3543 34.1836C83.4368 30.5626 77.6972 28.2192 71.6505 27.3637C65.6039 26.5082 59.4395 27.1675 53.7104 29.2822V46.1619C68.2457 35.6309 88.37 46.2463 88.37 63.8761V93.5718C108.372 78.7927 108.354 48.9376 88.3543 34.1836Z" fill="white"/>
<path d="M18.1443 52.7699C18.1443 52.982 18.0815 53.1893 17.9636 53.3656C17.8458 53.5419 17.6784 53.6793 17.4825 53.7605C17.2866 53.8416 17.071 53.8629 16.863 53.8215C16.655 53.7801 16.464 53.678 16.314 53.5281C16.1641 53.3781 16.062 53.1871 16.0206 52.9791C15.9792 52.7711 16.0005 52.5555 16.0816 52.3596C16.1628 52.1637 16.3002 51.9963 16.4765 51.8784C16.6528 51.7606 16.8601 51.6978 17.0722 51.6978C17.3565 51.6978 17.6292 51.8107 17.8303 52.0118C18.0314 52.2129 18.1443 52.4856 18.1443 52.7699Z" fill="white"/>
<path d="M54.4543 71.369C54.4543 72.0319 54.2577 72.6799 53.8893 73.231C53.521 73.7821 52.9975 74.2116 52.385 74.4651C51.7725 74.7187 51.0986 74.7848 50.4485 74.6553C49.7984 74.5258 49.2013 74.2063 48.7328 73.7373C48.2643 73.2684 47.9454 72.671 47.8165 72.0208C47.6875 71.3706 47.7543 70.6967 48.0084 70.0845C48.2625 69.4722 48.6925 68.9491 49.244 68.5813C49.7954 68.2135 50.4436 68.0174 51.1065 68.0181C51.9947 68.0189 52.8462 68.3723 53.4739 69.0006C54.1017 69.629 54.4543 70.4808 54.4543 71.369Z" fill="#2CEEF0"/>
<path d="M34.9334 53.6576C34.9358 54.3202 34.7416 54.9687 34.3752 55.5209C34.0089 56.0731 33.4869 56.5041 32.8754 56.7594C32.2639 57.0147 31.5904 57.0828 30.9401 56.955C30.2899 56.8273 29.6922 56.5094 29.2228 56.0417C28.7533 55.574 28.4332 54.9775 28.303 54.3278C28.1729 53.678 28.2384 53.0043 28.4914 52.3918C28.7444 51.7794 29.1735 51.2558 29.7243 50.8873C30.2752 50.5189 30.9229 50.3223 31.5856 50.3223C32.4713 50.3223 33.3209 50.6733 33.9484 51.2984C34.5759 51.9235 34.9301 52.7718 34.9334 53.6576Z" fill="#2CEEF0"/>
<path d="M36.6148 73.3194C36.6148 74.1812 36.3592 75.0236 35.8804 75.7402C35.4016 76.4568 34.7211 77.0153 33.9249 77.3451C33.1287 77.6749 32.2525 77.7612 31.4073 77.5931C30.562 77.425 29.7856 77.0099 29.1762 76.4005C28.5668 75.7911 28.1518 75.0147 27.9836 74.1695C27.8155 73.3242 27.9018 72.4481 28.2316 71.6518C28.5614 70.8556 29.1199 70.1751 29.8365 69.6963C30.5531 69.2175 31.3955 68.9619 32.2574 68.9619C33.413 68.9619 34.5214 69.421 35.3385 70.2382C36.1557 71.0554 36.6148 72.1637 36.6148 73.3194Z" fill="#2CEEF0"/>
<path d="M48.7311 63.6258C48.7311 64.5532 48.4561 65.4597 47.9409 66.2308C47.4257 67.0018 46.6934 67.6028 45.8366 67.9577C44.9799 68.3126 44.0371 68.4054 43.1276 68.2245C42.218 68.0436 41.3826 67.597 40.7268 66.9413C40.0711 66.2855 39.6245 65.4501 39.4436 64.5405C39.2627 63.631 39.3555 62.6882 39.7104 61.8315C40.0653 60.9747 40.6663 60.2424 41.4374 59.7272C42.2084 59.212 43.115 58.937 44.0423 58.937C45.2859 58.937 46.4785 59.431 47.3578 60.3103C48.2371 61.1896 48.7311 62.3823 48.7311 63.6258Z" fill="#2CEEF0"/>
<path d="M45.189 68.8744C44.4535 69.0316 43.6932 69.0327 42.9572 68.8775C42.2213 68.7223 41.5261 68.4144 40.9167 67.9736C40.3072 67.5328 39.7971 66.9689 39.4194 66.3186C39.0416 65.6682 38.8046 64.9457 38.7236 64.198C38.6427 63.4502 38.7197 62.6937 38.9495 61.9776C39.1794 61.2614 39.557 60.6015 40.058 60.0405C40.559 59.4795 41.1722 59.03 41.8579 58.7209C42.5436 58.4119 43.2866 58.2502 44.0387 58.2465C44.2351 58.2469 44.4313 58.2584 44.6264 58.2808V34.1836C39.2307 38.1637 35.0172 43.5344 32.4355 49.7222C32.9764 49.8386 33.4875 50.0653 33.9369 50.388C34.3863 50.7108 34.7644 51.1227 35.0475 51.598C35.3306 52.0733 35.5127 52.6019 35.5824 53.1508C35.6522 53.6997 35.608 54.257 35.4528 54.7881C35.2975 55.3191 35.0344 55.8124 34.68 56.2373C34.3256 56.6621 33.8874 57.0094 33.3928 57.2573C32.8982 57.5053 32.3578 57.6487 31.8054 57.6785C31.2529 57.7083 30.7002 57.6239 30.1818 57.4306C29.8069 59.5565 29.6187 61.7112 29.6191 63.8699C29.6205 65.5342 29.7323 67.1967 29.9536 68.8462C30.6194 68.5042 31.3531 68.315 32.1013 68.2924C32.8495 68.2699 33.5933 68.4146 34.2784 68.716C34.9636 69.0174 35.5729 69.4679 36.0618 70.0347C36.5508 70.6014 36.9071 71.2701 37.1048 71.9921C37.3025 72.714 37.3367 73.471 37.2047 74.2078C37.0727 74.9446 36.778 75.6427 36.342 76.2511C35.9061 76.8596 35.3398 77.363 34.6845 77.7249C34.0293 78.0867 33.3015 78.2977 32.5543 78.3426C39.9564 95.6474 60.1244 105.553 79.289 98.4606V81.581C66.2948 90.9961 48.5462 83.4815 45.189 68.8744Z" fill="white"/>
</svg>
