<svg width="87" height="62" viewBox="0 0 87 62" fill="none" xmlns="http://www.w3.org/2000/svg">
<path d="M86.1788 8.28188C86.1788 3.93741 82.8202 0.330919 78.486 0.0213335C74.1519 -0.288251 70.3157 2.80531 69.7 7.10637C69.0831 11.4074 71.8957 15.4537 76.143 16.3745V24.4763C75.1172 24.1255 74.057 23.8891 72.9798 23.7714C72.1253 18.7015 67.7385 14.9876 62.5978 14.9808H52.0971V10.5506C52.0948 8.43953 50.3846 6.72939 48.2747 6.7271H38.2309V2.42033C38.2309 1.45045 37.4449 0.665636 36.4762 0.665636C35.5074 0.665636 34.7215 1.45045 34.7215 2.42033V6.7271H24.8513C22.7413 6.73053 21.0323 8.43953 21.0301 10.5495V14.9797H10.5282C4.71689 14.9865 0.00685413 19.6965 0 25.5078V51.4718C0.00685413 57.2843 4.71689 61.9943 10.5282 62H62.5978C67.7385 61.9931 72.1253 58.2793 72.9798 53.2094C79.1555 52.5365 84.2551 48.0778 85.7459 42.0461C87.2367 36.0154 84.8034 29.6946 79.6513 26.2207V16.3745C83.4577 15.5451 86.1731 12.1774 86.1788 8.28188ZM24.5395 10.5506C24.5395 10.4673 24.5714 10.3873 24.6308 10.329C24.6891 10.2696 24.7679 10.2365 24.8513 10.2365H48.2747C48.446 10.2365 48.5865 10.377 48.5865 10.5495V14.9797H24.5395V10.5506ZM62.5978 58.4906H10.5282C6.65436 58.4872 3.51396 55.3468 3.50939 51.4718V25.509C3.51396 21.6352 6.65436 18.4948 10.5282 18.4902H62.5978C66.4716 18.4948 69.612 21.6352 69.6166 25.509V51.4718C69.612 55.3468 66.4716 58.486 62.5978 58.4906ZM82.6694 38.491C82.6626 44.0509 78.6174 48.7827 73.126 49.6532V27.3288C78.6163 28.2004 82.6614 32.931 82.6694 38.491ZM73.126 8.28188C73.126 5.64641 75.2622 3.51016 77.8977 3.51016C80.5332 3.5113 82.6694 5.64755 82.6694 8.28302C82.6694 10.9185 80.5332 13.0547 77.8977 13.0547C75.2634 13.0513 73.1283 10.9162 73.126 8.28188Z" fill="#1CE0E2"/>
<path d="M17.8632 30.5327H17.7855C14.5571 30.5373 11.94 33.1533 11.9365 36.3817V39.866C11.9365 40.8347 12.7225 41.6207 13.6912 41.6207H21.9575C22.9274 41.6207 23.7122 40.8347 23.7122 39.866V36.3817C23.7087 33.1533 21.0927 30.5373 17.8632 30.5327ZM20.2028 38.1113H15.4459V36.3817C15.4471 35.0908 16.4935 34.0444 17.7855 34.0421H17.8632C19.1552 34.0444 20.2016 35.0908 20.2028 36.3817V38.1113Z" fill="#1CE0E2"/>
<path d="M55.3362 30.5327H55.2574C52.029 30.5373 49.413 33.1533 49.4084 36.3817V39.866C49.4084 40.8347 50.1944 41.6207 51.1631 41.6207H59.4305C60.3993 41.6207 61.1852 40.8347 61.1852 39.866V36.3817C61.1818 33.1533 58.5646 30.5373 55.3362 30.5327ZM57.6758 38.1113H52.9178V36.3817C52.9201 35.0908 53.9665 34.0444 55.2574 34.0421H55.3362C56.6283 34.0444 57.6747 35.0908 57.6758 36.3817V38.1113Z" fill="#1CE0E2"/>
<path d="M44.824 44.7119H28.2915C27.3216 44.7119 26.5368 45.4979 26.5368 46.4666V46.5454C26.5425 52.0346 30.991 56.483 36.4801 56.4887H36.6355C42.1246 56.483 46.573 52.0346 46.5787 46.5454V46.4666C46.5787 45.4979 45.7939 44.7119 44.824 44.7119ZM36.6355 52.9793H36.4801C33.5728 52.9759 31.0287 51.027 30.2667 48.2213H42.8489C42.0869 51.027 39.5428 52.9759 36.6355 52.9793Z" fill="#1CE0E2"/>
</svg>
