<svg width="20" height="14" viewBox="0 0 20 14" fill="none" xmlns="http://www.w3.org/2000/svg">
<path d="M19.4597 1.8701C19.4597 0.889093 18.7013 0.0747235 17.7227 0.00481725C16.744 -0.065089 15.8777 0.633458 15.7387 1.60466C15.5994 2.57587 16.2345 3.48955 17.1936 3.69747V5.5269C16.9619 5.4477 16.7226 5.39431 16.4793 5.36774C16.2864 4.22293 15.2958 3.38431 14.135 3.38276H11.7639V2.3824C11.7633 1.9057 11.3772 1.51954 10.9007 1.51902H8.63278V0.546526C8.63278 0.327521 8.4553 0.150305 8.23656 0.150305C8.01781 0.150305 7.84034 0.327521 7.84034 0.546526V1.51902H5.61159C5.13514 1.5198 4.74924 1.9057 4.74872 2.38215V3.3825H2.37733C1.0651 3.38405 0.00154771 4.44761 0 5.75983V11.6227C0.00154771 12.9352 1.0651 13.9987 2.37733 14H14.135C15.2958 13.9985 16.2864 13.1598 16.4793 12.015C17.8738 11.8631 19.0253 10.8563 19.362 9.49427C19.6986 8.13252 19.1492 6.70524 17.9858 5.9208V3.69747C18.8453 3.51019 19.4584 2.74973 19.4597 1.8701ZM5.54117 2.3824C5.54117 2.36357 5.54839 2.34552 5.5618 2.33236C5.57496 2.31895 5.59276 2.31147 5.61159 2.31147H10.9007C10.9394 2.31147 10.9712 2.34319 10.9712 2.38215V3.3825H5.54117V2.3824ZM14.135 13.2076H2.37733C1.5026 13.2068 0.793475 12.4977 0.792443 11.6227V5.76009C0.793475 4.88536 1.5026 4.17624 2.37733 4.1752H14.135C15.0097 4.17624 15.7188 4.88536 15.7199 5.76009V11.6227C15.7188 12.4977 15.0097 13.2065 14.135 13.2076ZM18.6673 8.69151C18.6657 9.94698 17.7523 11.0154 16.5123 11.212V6.17101C17.7521 6.36784 18.6655 7.43603 18.6673 8.69151ZM16.5123 1.8701C16.5123 1.275 16.9947 0.792617 17.5898 0.792617C18.1849 0.792875 18.6673 1.27525 18.6673 1.87036C18.6673 2.46547 18.1849 2.94785 17.5898 2.94785C16.995 2.94707 16.5128 2.46495 16.5123 1.8701Z" fill="white"/>
<path d="M4.03359 6.89429H4.01605C3.28707 6.89532 2.69609 7.48604 2.69531 8.21503V9.00179C2.69531 9.22054 2.87279 9.39802 3.09153 9.39802H4.95811C5.17711 9.39802 5.35433 9.22054 5.35433 9.00179V8.21503C5.35356 7.48604 4.76284 6.89532 4.03359 6.89429ZM4.56189 8.60557H3.48776V8.21503C3.48801 7.92353 3.7243 7.68725 4.01605 7.68673H4.03359C4.32534 7.68725 4.56163 7.92353 4.56189 8.21503V8.60557Z" fill="white"/>
<path d="M12.4953 6.89429H12.4775C11.7485 6.89532 11.1578 7.48604 11.1567 8.21503V9.00179C11.1567 9.22054 11.3342 9.39802 11.553 9.39802H13.4198C13.6385 9.39802 13.816 9.22054 13.816 9.00179V8.21503C13.8152 7.48604 13.2243 6.89532 12.4953 6.89429ZM13.0236 8.60557H11.9492V8.21503C11.9497 7.92353 12.186 7.68725 12.4775 7.68673H12.4953C12.787 7.68725 13.0233 7.92353 13.0236 8.21503V8.60557Z" fill="white"/>
<path d="M10.1216 10.0962H6.38841C6.1694 10.0962 5.99219 10.2737 5.99219 10.4924V10.5102C5.99348 11.7497 6.99796 12.7542 8.23744 12.7555H8.27252C9.51201 12.7542 10.5165 11.7497 10.5178 10.5102V10.4924C10.5178 10.2737 10.3406 10.0962 10.1216 10.0962ZM8.27252 11.963H8.23744C7.58094 11.9622 7.00647 11.5222 6.83442 10.8886H9.67555C9.50349 11.5222 8.92902 11.9622 8.27252 11.963Z" fill="white"/>
</svg>
