<svg width="28" height="28" viewBox="0 0 28 28" fill="none" xmlns="http://www.w3.org/2000/svg">
<path d="M14 28C21.732 28 28 21.732 28 14C28 6.26801 21.732 0 14 0C6.26801 0 0 6.26801 0 14C0 21.732 6.26801 28 14 28Z" fill="#F7931A"/>
<path d="M19.6368 12.3631C19.8985 10.6111 18.5646 9.66931 16.7406 9.04102L17.3323 6.66779L15.8873 6.30778L15.3113 8.61847C14.9319 8.52384 14.5418 8.43455 14.1543 8.34609L14.7344 6.02017L13.2906 5.66016L12.6986 8.03257C12.3842 7.96097 12.0756 7.8902 11.7761 7.81573L11.7777 7.80833L9.78551 7.31089L9.40122 8.85382C9.40122 8.85382 10.473 9.09945 10.4504 9.11467C10.6503 9.13861 10.8328 9.24005 10.9587 9.39717C11.0846 9.55429 11.1438 9.75454 11.1235 9.95485L10.4496 12.6585C10.5007 12.6712 10.5508 12.6873 10.5998 12.7066L10.4475 12.6687L9.50243 16.4561C9.48166 16.5222 9.44802 16.5836 9.40346 16.6367C9.3589 16.6897 9.30428 16.7335 9.24276 16.7653C9.18124 16.7972 9.11403 16.8166 9.04498 16.8225C8.97593 16.8283 8.9064 16.8204 8.84041 16.7993C8.85481 16.8203 7.79039 16.5372 7.79039 16.5372L7.07324 18.1912L8.95356 18.6598C9.30329 18.7475 9.64603 18.8392 9.98301 18.9256L9.38517 21.3264L10.8281 21.6865L11.4206 19.3116C11.8144 19.4186 12.197 19.5173 12.5714 19.6103L11.9814 21.9741L13.426 22.3341L14.0238 19.9382C16.4872 20.4044 18.3399 20.2163 19.1188 17.9888C19.7471 16.1949 19.0879 15.1601 17.7919 14.4849C18.7357 14.2664 19.4467 13.6455 19.6364 12.363L19.6368 12.3631ZM16.3357 16.9914C15.8889 18.7853 12.8689 17.816 11.8892 17.5724L12.6825 14.3923C13.6617 14.6367 16.8015 15.1206 16.3362 16.9914H16.3357ZM16.7822 12.3371C16.3748 13.9689 13.8609 13.1399 13.045 12.9366L13.7642 10.0524C14.5801 10.2556 17.2068 10.635 16.7822 12.3371Z" fill="white"/>
</svg>
