<svg width="26" height="26" viewBox="0 0 26 26" fill="none" xmlns="http://www.w3.org/2000/svg">
<circle cx="13" cy="13" r="13" fill="#D6D6D6" fill-opacity="0.31"/>
<path d="M9.35447 14.0501H11.5905C11.714 14.0501 11.8141 13.9501 11.8141 13.8265V13.6028H12.4322L13.2794 14.0266C13.3103 14.042 13.3447 14.0501 13.3794 14.0501H16.0627C16.4325 14.0501 16.7335 13.7491 16.7335 13.3792C16.7335 13.2068 16.6662 13.051 16.5591 12.932C16.6664 12.8131 16.7335 12.6572 16.7335 12.4848C16.7335 12.3124 16.6662 12.1566 16.5591 12.0376C16.6664 11.9186 16.7335 11.7628 16.7335 11.5904C16.7335 11.418 16.6662 11.2621 16.5591 11.1432C16.6664 11.0242 16.7335 10.8684 16.7335 10.696C16.7335 10.3261 16.4325 10.0251 16.0627 10.0251H14.4974V8.68349C14.4974 8.19021 14.0963 7.78906 13.603 7.78906H13.3794C13.256 7.78906 13.1558 7.88901 13.1558 8.01267V9.26174L12.3924 10.0251H11.8141V9.80153C11.8141 9.67787 11.714 9.57792 11.5905 9.57792H9.35447C9.23104 9.57792 9.13086 9.67787 9.13086 9.80153V13.8265C9.13086 13.9501 9.23104 14.0501 9.35447 14.0501ZM12.485 10.4723C12.5442 10.4723 12.6012 10.4489 12.6431 10.4068L13.5375 9.5124C13.5795 9.47059 13.603 9.41379 13.603 9.35431V8.23628C13.8496 8.23628 14.0502 8.43685 14.0502 8.68349V10.2487C14.0502 10.3724 14.1504 10.4723 14.2738 10.4723H16.0627C16.1859 10.4723 16.2863 10.5725 16.2863 10.696C16.2863 10.8194 16.1859 10.9196 16.0627 10.9196H14.4974V11.3668H16.0627C16.1859 11.3668 16.2863 11.467 16.2863 11.5904C16.2863 11.7138 16.1859 11.814 16.0627 11.814H14.4974V12.2612H16.0627C16.1859 12.2612 16.2863 12.3614 16.2863 12.4848C16.2863 12.6082 16.1859 12.7084 16.0627 12.7084H14.4974V13.1556H16.0627C16.1859 13.1556 16.2863 13.2558 16.2863 13.3792C16.2863 13.5027 16.1859 13.6028 16.0627 13.6028H13.4322L12.5849 13.1791C12.5541 13.1637 12.5196 13.1556 12.485 13.1556H11.8141V10.4723H12.485ZM9.57807 10.0251H11.3669V13.6028H9.57807V10.0251Z" fill="#1CE0E2"/>
<path d="M12.9315 16.0624C13.1782 16.0624 13.3788 16.263 13.3788 16.5096H13.826C13.826 16.0939 13.5397 15.7469 13.1551 15.6469V15.168H12.7079V15.6469C12.3233 15.7469 12.0371 16.0939 12.0371 16.5096C12.0371 17.0029 12.4383 17.404 12.9315 17.404C13.1782 17.404 13.3788 17.6046 13.3788 17.8513C13.3788 18.0979 13.1782 18.2985 12.9315 18.2985C12.6849 18.2985 12.4843 18.0979 12.4843 17.8513H12.0371C12.0371 18.2669 12.3233 18.614 12.7079 18.7139V19.1929H13.1551V18.7139C13.5397 18.614 13.826 18.2669 13.826 17.8513C13.826 17.358 13.4248 16.9568 12.9315 16.9568C12.6849 16.9568 12.4843 16.7562 12.4843 16.5096C12.4843 16.263 12.6849 16.0624 12.9315 16.0624Z" fill="#1CE0E2"/>
<path d="M17.1796 16.0624C17.4262 16.0624 17.6268 16.263 17.6268 16.5096H18.074C18.074 16.0939 17.7878 15.7469 17.4032 15.6469V15.168H16.956V15.6469C16.5714 15.7469 16.2852 16.0939 16.2852 16.5096C16.2852 17.0029 16.6863 17.404 17.1796 17.404C17.4262 17.404 17.6268 17.6046 17.6268 17.8513C17.6268 18.0979 17.4262 18.2985 17.1796 18.2985C16.9329 18.2985 16.7324 18.0979 16.7324 17.8513H16.2852C16.2852 18.2669 16.5714 18.614 16.956 18.7139V19.1929H17.4032V18.7139C17.7878 18.614 18.074 18.2669 18.074 17.8513C18.074 17.358 17.6729 16.9568 17.1796 16.9568C16.9329 16.9568 16.7324 16.7562 16.7324 16.5096C16.7324 16.263 16.9329 16.0624 17.1796 16.0624Z" fill="#1CE0E2"/>
<path d="M17.1804 14.498C16.3452 14.498 15.5583 14.8927 15.0541 15.5456C14.563 14.9099 13.7954 14.498 12.9318 14.498C12.068 14.498 11.3006 14.9099 10.8093 15.5456C10.3051 14.8927 9.51823 14.498 8.68328 14.498C7.20368 14.498 6 15.7017 6 17.1813C6 18.6609 7.20368 19.8646 8.68328 19.8646C9.51823 19.8646 10.3051 19.4699 10.8093 18.8168C11.3006 19.4527 12.068 19.8646 12.9318 19.8646C13.7961 19.8646 14.5641 19.4521 15.0552 18.8155C15.559 19.4697 16.34 19.8646 17.1804 19.8646C18.66 19.8646 19.8636 18.6609 19.8636 17.1813C19.8636 15.7017 18.66 14.498 17.1804 14.498ZM8.68328 19.4174C7.45032 19.4174 6.44721 18.4143 6.44721 17.1813C6.44721 15.9484 7.45032 14.9453 8.68328 14.9453C9.43438 14.9453 10.1361 15.3312 10.5479 15.9551C10.3579 16.3231 10.2485 16.7393 10.2485 17.1813C10.2485 17.6232 10.3579 18.0395 10.5477 18.4074C10.1361 19.0315 9.43438 19.4174 8.68328 19.4174ZM12.9318 19.4174C11.6988 19.4174 10.6957 18.4143 10.6957 17.1813C10.6957 15.9484 11.6988 14.9453 12.9318 14.9453C14.1648 14.9453 15.1679 15.9484 15.1679 17.1813C15.1679 18.4143 14.1648 19.4174 12.9318 19.4174ZM17.1804 19.4174C16.4243 19.4174 15.7278 19.0326 15.3159 18.4074C15.5058 18.0393 15.6151 17.6232 15.6151 17.1813C15.6151 16.7395 15.5058 16.3231 15.3157 15.9551C15.7276 15.3312 16.429 14.9453 17.1804 14.9453C18.4133 14.9453 19.4164 15.9484 19.4164 17.1813C19.4164 18.4143 18.4133 19.4174 17.1804 19.4174Z" fill="#1CE0E2"/>
<path d="M8.68349 16.0624C8.93013 16.0624 9.1307 16.263 9.1307 16.5096H9.57792C9.57792 16.0939 9.2917 15.7469 8.9071 15.6469V15.168H8.45988V15.6469C8.07528 15.7469 7.78906 16.0939 7.78906 16.5096C7.78906 17.0029 8.19021 17.404 8.68349 17.404C8.93013 17.404 9.1307 17.6046 9.1307 17.8513C9.1307 18.0979 8.93013 18.2985 8.68349 18.2985C8.43685 18.2985 8.23628 18.0979 8.23628 17.8513H7.78906C7.78906 18.2669 8.07528 18.614 8.45988 18.7139V19.1929H8.9071V18.7139C9.2917 18.614 9.57792 18.2669 9.57792 17.8513C9.57792 17.358 9.17677 16.9568 8.68349 16.9568C8.43685 16.9568 8.23628 16.7562 8.23628 16.5096C8.23628 16.263 8.43685 16.0624 8.68349 16.0624Z" fill="#1CE0E2"/>
<path d="M13.3789 6H13.8261V7.11804H13.3789V6Z" fill="#1CE0E2"/>
<path d="M14.3379 7.18359L15.2323 6.28914L15.5486 6.60537L14.6541 7.49982L14.3379 7.18359Z" fill="#1CE0E2"/>
<path d="M11.6562 6.60547L11.9725 6.28924L12.8669 7.18369L12.5507 7.49992L11.6562 6.60547Z" fill="#1CE0E2"/>
</svg>
