<svg width="17" height="14" viewBox="0 0 17 14" fill="none" xmlns="http://www.w3.org/2000/svg">
<path d="M15.8202 11.8887H0.55639C0.249072 11.8887 0 12.1378 0 12.4451C0 12.7524 0.249072 13.0015 0.55639 13.0015H15.8202C16.1277 13.0015 16.3766 12.7524 16.3766 12.4451C16.3766 12.1378 16.1276 11.8887 15.8202 11.8887Z" fill="#180D5B"/>
<path d="M14.2388 1.36243C14.0494 1.11985 13.6998 1.07737 13.4576 1.26654L8.79408 4.9111L5.81718 2.56608C5.59926 2.39416 5.28804 2.40935 5.08775 2.60149L1.89773 5.66168C1.6761 5.87441 1.66868 6.2268 1.88141 6.44843C1.99084 6.5623 2.13679 6.61961 2.28312 6.61961C2.42149 6.61961 2.56021 6.56805 2.66816 6.46474L5.50874 3.73989L8.44838 6.05542C8.64979 6.214 8.93318 6.21455 9.13533 6.05673L14.1429 2.14339C14.385 1.95423 14.428 1.60446 14.2388 1.36243Z" fill="#180D5B"/>
<path d="M14.2188 1.3613C14.122 1.24909 13.9845 1.1801 13.8369 1.16951L10.721 0.946955C10.41 0.923413 10.1482 1.15579 10.1264 1.46218C10.1046 1.76876 10.3353 2.03491 10.6417 2.05679L13.1994 2.23946L13.0197 4.57486C12.9962 4.88125 13.2256 5.14868 13.5318 5.17225C13.5464 5.17337 13.5607 5.17392 13.575 5.17392C13.8628 5.17392 14.1067 4.9521 14.1295 4.66036L14.3521 1.7671C14.3634 1.61964 14.3156 1.4735 14.2188 1.3613Z" fill="#180D5B"/>
<path d="M8.17748 8.47656C7.87017 8.47656 7.62109 8.72563 7.62109 9.03295V12.4455C7.62109 12.7528 7.87017 13.0019 8.17748 13.0019C8.4848 13.0019 8.73387 12.7528 8.73387 12.4455V9.03295C8.73387 8.72563 8.4848 8.47656 8.17748 8.47656Z" fill="#180D5B"/>
<path d="M10.8884 6.89844C10.5811 6.89844 10.332 7.14751 10.332 7.45483V12.4438C10.332 12.7512 10.5811 13.0002 10.8884 13.0002C11.1957 13.0002 11.4448 12.7512 11.4448 12.4438V7.45483C11.4448 7.14751 11.1957 6.89844 10.8884 6.89844Z" fill="#180D5B"/>
<path d="M5.48998 6.23242C5.18267 6.23242 4.93359 6.48149 4.93359 6.78881V12.4455C4.93359 12.7528 5.18267 13.0019 5.48998 13.0019C5.7973 13.0019 6.04637 12.7528 6.04637 12.4455V6.78881C6.04637 6.48149 5.7973 6.23242 5.48998 6.23242Z" fill="#180D5B"/>
<path d="M2.78198 8.69727C2.47466 8.69727 2.22559 8.94634 2.22559 9.25365V12.4437C2.22559 12.751 2.47466 13.0001 2.78198 13.0001C3.08929 13.0001 3.33837 12.751 3.33837 12.4437V9.25365C3.33837 8.94634 3.08929 8.69727 2.78198 8.69727Z" fill="#180D5B"/>
<path d="M13.5945 8.0293C13.2872 8.0293 13.0381 8.27837 13.0381 8.58569V12.4434C13.0381 12.7507 13.2872 12.9998 13.5945 12.9998C13.902 12.9998 14.1509 12.7507 14.1509 12.4434V8.58572C14.1509 8.2784 13.9018 8.0293 13.5945 8.0293Z" fill="#180D5B"/>
</svg>
