<svg width="164" height="181" viewBox="0 0 164 181" fill="none" xmlns="http://www.w3.org/2000/svg">
<path d="M96.1386 95.4322C96.1386 103.24 89.808 109.571 82 109.571C74.192 109.571 67.8613 103.24 67.8613 95.4322C67.8613 87.6242 74.192 81.2936 82 81.2936C89.808 81.2936 96.1386 87.6242 96.1386 95.4322Z" fill="#1CE0E2"/>
<path d="M115.227 7.06932C115.227 10.974 112.062 14.1386 108.158 14.1386C105.828 14.1386 103.768 13.0064 102.48 11.2695C91.5655 13.8432 83.415 23.6574 83.415 35.3466H76.3457C76.3457 20.0164 87.2465 7.18392 101.704 4.19327C102.806 1.72453 105.279 0 108.158 0C112.062 0 115.227 3.16463 115.227 7.06932Z" fill="#041F60"/>
<path d="M109.212 1.76733C111.165 1.76733 112.747 3.34965 112.747 5.302C112.747 7.25434 111.165 8.83666 109.212 8.83666C107.26 8.83666 105.678 7.25434 105.678 5.302C105.678 3.34965 107.26 1.76733 109.212 1.76733Z" fill="white"/>
<path d="M115.226 97.3182H48.0672C28.5465 97.3182 12.7206 81.4937 12.7206 61.9716V58.4369C12.7206 38.9162 28.5465 23.0903 48.0672 23.0903H115.226C134.747 23.0903 150.572 38.9162 150.572 58.4369V61.9716C150.572 81.4937 134.747 97.3182 115.226 97.3182ZM164 128.782C159.379 138.66 153.027 147.563 145.334 155.104L133.355 143.127C133.229 143.001 133.109 142.871 132.989 142.743V159.057C132.989 161.316 132.775 163.524 132.37 165.664C117.972 175.331 100.645 180.972 82 180.972C63.0481 180.972 45.4604 175.143 30.9241 165.184C30.5762 163.193 30.3939 161.146 30.3939 159.057V143.378L18.666 155.104C10.9726 147.563 4.62129 138.66 0 128.782L8.15043 120.632C11.3358 117.448 15.6616 116.103 19.8121 116.593C20.2138 109.144 26.3802 103.228 33.9286 103.228C39.6572 103.228 44.5851 106.635 46.8066 111.533C52.2812 108.053 58.7748 106.038 65.7406 106.038H97.6436C105.809 106.038 113.327 108.809 119.311 113.459C121.008 107.551 126.447 103.228 132.899 103.228C140.431 103.228 146.585 109.117 147.012 116.542C150.234 116.806 153.384 118.166 155.85 120.632L164 128.782Z" fill="#3F3D56"/>
<path d="M15.8254 128.307L15.8255 128.307C17.504 126.627 19.5048 125.47 21.6281 124.831C24.152 128.98 28.7155 131.755 33.9281 131.755C34.1087 131.755 34.2876 131.751 34.4656 131.744C34.8645 135.746 33.5322 139.886 30.468 142.95L18.6641 154.752C13.7163 149.875 9.32946 144.431 5.60686 138.526L15.8254 128.307ZM141.03 135.451L141.03 135.451C139.666 134.089 138.646 132.514 137.969 130.833C143.413 128.783 147.287 123.527 147.287 117.366C147.287 117.181 147.283 116.997 147.275 116.815C150.342 117.129 153.323 118.459 155.672 120.809L163.699 128.835C160.657 135.303 156.87 141.351 152.447 146.87L141.03 135.451ZM61.8519 97.0682C42.4679 97.0682 26.7553 81.3556 26.7553 61.9716V58.4369C26.7553 39.0543 42.4679 23.3403 61.8519 23.3403H115.225C134.609 23.3403 150.322 39.0543 150.322 58.4369V61.9716C150.322 81.3556 134.609 97.0682 115.225 97.0682H88.5386H61.8519ZM97.9055 106.288C105.855 106.288 113.186 108.932 119.07 113.388C118.707 114.651 118.51 115.986 118.51 117.366C118.51 124.89 124.287 131.061 131.646 131.696C132.527 134.773 133.002 138.024 133.002 141.384V159.057C133.002 161.193 132.81 163.285 132.444 165.316C118.045 175.042 100.685 180.722 81.9995 180.722C70.0432 180.722 58.635 178.392 48.1937 174.169C46.0072 169.593 44.7821 164.469 44.7821 159.057V141.384C44.7821 122 60.4947 106.288 79.8787 106.288H97.9055Z" fill="#E6E6E6" stroke="#3F3D56" stroke-width="0.5"/>
<path d="M112.399 69.0458H51.6032C42.8191 69.0458 35.6973 61.9254 35.6973 53.1399C35.6973 44.3557 42.8191 37.2339 51.6032 37.2339H112.399C121.184 37.2339 128.305 44.3557 128.305 53.1399C128.305 61.9254 121.184 69.0458 112.399 69.0458Z" fill="#1CE0E2"/>
<path d="M112.397 69.0458H60.4372C51.653 69.0458 44.5312 61.9254 44.5312 53.1399C44.5312 44.3557 51.653 37.2339 60.4372 37.2339H112.397C121.181 37.2339 128.303 44.3557 128.303 53.1399C128.303 61.9254 121.181 69.0458 112.397 69.0458Z" fill="#3F3D56"/>
<path d="M60.4363 44.3005C55.5554 44.3005 51.5996 48.2577 51.5996 53.1372C51.5996 58.0181 55.5554 61.9738 60.4363 61.9738C65.3171 61.9738 69.2729 58.0181 69.2729 53.1372C69.2729 48.2577 65.3171 44.3005 60.4363 44.3005ZM60.4363 56.6719C58.4839 56.6719 56.9016 55.0895 56.9016 53.1372C56.9016 51.1848 58.4839 49.6025 60.4363 49.6025C62.3886 49.6025 63.9709 51.1848 63.9709 53.1372C63.9709 55.0895 62.3886 56.6719 60.4363 56.6719ZM102.852 44.3005C97.9713 44.3005 94.0155 48.2577 94.0155 53.1372C94.0155 58.0181 97.9713 61.9738 102.852 61.9738C107.733 61.9738 111.689 58.0181 111.689 53.1372C111.689 48.2577 107.733 44.3005 102.852 44.3005ZM102.852 56.6719C100.9 56.6719 99.3175 55.0895 99.3175 53.1372C99.3175 51.1848 100.9 49.6025 102.852 49.6025C104.805 49.6025 106.387 51.1848 106.387 53.1372C106.387 55.0895 104.805 56.6719 102.852 56.6719Z" fill="white"/>
<path d="M40.9941 117.37C40.9941 121.273 37.8295 124.439 33.9248 124.439C30.0201 124.439 26.8555 121.273 26.8555 117.37C26.8555 113.465 30.0201 110.301 33.9248 110.301C37.8295 110.301 40.9941 113.465 40.9941 117.37ZM132.895 110.301C128.991 110.301 125.826 113.465 125.826 117.37C125.826 121.273 128.991 124.439 132.895 124.439C136.8 124.439 139.965 121.273 139.965 117.37C139.965 113.465 136.8 110.301 132.895 110.301Z" fill="#1CE0E2"/>
<path d="M40.9978 117.367C40.9978 120.333 39.1698 122.868 36.5795 123.917C35.3037 123.399 34.2143 122.52 33.4356 121.407C33.1691 121.025 33.4494 120.516 33.9175 120.518H33.9285C35.7649 120.518 37.2354 118.947 37.0683 117.076C36.9495 115.758 35.9817 114.632 34.699 114.31C34.4297 114.242 34.166 114.213 33.9092 114.215C33.4453 114.218 33.1705 113.707 33.4356 113.327C34.2143 112.213 35.3037 111.333 36.5809 110.815C39.1698 111.865 40.9978 114.4 40.9978 117.367ZM135.55 110.815C134.273 111.333 133.183 112.213 132.406 113.327C132.14 113.707 132.416 114.218 132.878 114.215C133.135 114.213 133.4 114.244 133.669 114.31C134.952 114.632 135.92 115.758 136.037 117.076C136.206 118.947 134.735 120.518 132.899 120.518C132.895 120.518 132.891 120.518 132.887 120.518C132.42 120.516 132.138 121.025 132.406 121.407C133.183 122.521 134.273 123.401 135.55 123.917C138.139 122.868 139.968 120.333 139.968 117.367C139.968 114.401 138.14 111.865 135.55 110.815Z" fill="#D3F1F5"/>
<path d="M108.154 116.642C110.107 116.642 111.689 118.225 111.689 120.177C111.689 122.129 110.107 123.712 108.154 123.712C106.202 123.712 104.62 122.129 104.62 120.177C104.62 118.225 106.202 116.642 108.154 116.642ZM94.0156 120.177C94.0156 122.129 95.5979 123.712 97.5503 123.712C99.5026 123.712 101.085 122.129 101.085 120.177C101.085 118.225 99.5026 116.642 97.5503 116.642C95.5979 116.642 94.0156 118.225 94.0156 120.177Z" fill="#B3E5E5"/>
<path d="M86.9487 116.642C88.9011 116.642 90.4834 118.225 90.4834 120.177C90.4834 122.129 88.9011 123.712 86.9487 123.712C84.9964 123.712 83.4141 122.129 83.4141 120.177C83.4141 118.225 84.9964 116.642 86.9487 116.642Z" fill="#1CE0E2"/>
</svg>
