<svg width="39" height="32" viewBox="0 0 39 32" fill="none" xmlns="http://www.w3.org/2000/svg">
<path d="M21.5001 17.9909C21.368 17.9302 21.2826 17.7985 21.2826 17.6553V12.4964C21.2826 12.1491 21.1348 11.8166 20.877 11.5842L20.3478 11.1067C20.2688 11.0355 20.258 10.9141 20.3232 10.8302L20.8649 10.1317C21.1894 9.71372 21.1238 9.12234 20.7159 8.78527L20.3188 8.45718C20.2246 8.37948 20.2192 8.23714 20.3073 8.15259L20.9048 7.57917C21.4072 7.09715 21.2554 6.50234 21.2826 6.29243C21.2828 5.74006 20.8333 5.29053 20.2807 5.29053H18.8143C18.043 5.29053 17.4156 5.91798 17.4156 6.68908V17.655C17.4156 17.7983 17.3297 17.9304 17.1968 17.9914C15.5414 18.7514 14.4835 20.1465 14.4455 21.9899C14.3527 26.4769 20.064 28.1012 22.9272 25.3046C23.7828 24.469 24.2539 23.3283 24.2539 22.093C24.2539 20.2907 23.2502 18.7955 21.5001 17.9909ZM19.2506 25.8471C17.0042 25.7943 15.2353 24.2153 15.281 22.0072C15.3109 20.5641 16.115 19.4076 17.5455 18.7509C17.9743 18.5541 18.2513 18.1238 18.2513 17.655V6.68908C18.2513 6.37878 18.5038 6.12626 18.8143 6.12626H20.2809C20.3725 6.12626 20.4471 6.20086 20.4471 6.29243C20.426 6.58543 20.5106 6.79942 20.3261 6.97636L19.7289 7.54962C19.2819 7.97843 19.3058 8.70431 19.7865 9.10161L20.1838 9.4297C20.2412 9.4772 20.2505 9.56061 20.2048 9.61953L19.6629 10.3178C19.3311 10.7457 19.3861 11.3648 19.7881 11.7273L20.3173 12.2048C20.5166 12.3845 20.4234 12.6107 20.4471 12.9422H19.477C19.2462 12.9422 19.0591 13.1293 19.0591 13.3601C19.0591 13.5907 19.2462 13.7778 19.477 13.7778H20.4471V14.931H19.477C19.2462 14.931 19.0591 15.1181 19.0591 15.3489C19.0591 15.5795 19.2462 15.7666 19.477 15.7666H20.4471V17.6553C20.4471 18.1238 20.7234 18.5537 21.1511 18.7503C22.6131 19.4224 23.4183 20.6094 23.4183 22.0929C23.4183 24.349 21.5717 25.902 19.2506 25.8471Z" fill="#1CE0E2"/>
<path d="M17.7173 20.0005C17.5998 20.0005 17.5924 20.0726 17.1201 20.5381C16.8334 20.7843 17.1084 21.41 17.3465 21.1212L17.3823 21.0734V23.7141C17.3823 24.0982 17.9976 24.0937 17.9976 23.7141V20.2923C17.9976 20.1112 17.8502 20.0005 17.7173 20.0005Z" fill="#1CE0E2"/>
<path d="M21.9976 21.2704C21.9976 20.419 21.4254 20.001 20.4944 20.001C19.5627 20.001 18.9976 20.4198 18.9976 21.2704V22.7315C18.9976 23.5794 19.5592 24.001 20.4944 24.001C21.4261 24.001 21.9976 23.5824 21.9976 22.7315V21.2704ZM21.0484 22.7315C21.0484 23.0944 20.8723 23.2633 20.4944 23.2633C20.1206 23.2633 19.9464 23.0944 19.9464 22.7315V21.2704C19.9464 20.9076 20.1206 20.7387 20.4944 20.7387C20.8723 20.7387 21.0484 20.9076 21.0484 21.2704V22.7315Z" fill="#1CE0E2"/>
<path d="M34.5305 15.1572C34.0657 15.1572 33.6884 15.5345 33.6884 15.9994C33.6884 23.8933 27.2664 30.3152 19.3726 30.3152C13.3852 30.3152 7.98387 26.5257 5.9325 20.8869C5.77247 20.4507 5.28915 20.2234 4.85289 20.3833C4.41496 20.5434 4.18933 21.0267 4.34928 21.4629C6.64318 27.7653 12.6794 31.9994 19.3725 31.9994C28.1944 31.9994 35.3726 24.8212 35.3726 15.9993C35.3726 15.5345 34.9953 15.1572 34.5305 15.1572Z" fill="#1CE0E2"/>
<path d="M34.389 10.5364C32.0951 4.23412 26.0588 0 19.3658 0C10.5439 0 3.36572 7.17816 3.36572 16.0001C3.36572 16.4649 3.74301 16.8422 4.20786 16.8422C4.6727 16.8422 5.04999 16.4649 5.04999 16.0001C5.04999 8.10619 11.4719 1.68427 19.3658 1.68427C25.3532 1.68427 30.7545 5.47376 32.8059 11.1125C32.9642 11.5504 33.4492 11.7744 33.8855 11.6161C34.3233 11.456 34.549 10.9727 34.389 10.5364Z" fill="#1CE0E2"/>
<path d="M8.17401 13.7214C7.84558 13.393 7.31166 13.393 6.98324 13.7214L4.21099 16.4937L1.43708 13.7214C1.10866 13.393 0.574739 13.393 0.246317 13.7214C-0.0821056 14.0498 -0.0821056 14.5838 0.246317 14.9122L3.61478 18.2806C3.77986 18.444 3.99538 18.5266 4.21099 18.5266C4.4266 18.5266 4.64212 18.4441 4.80555 18.2806L8.17401 14.9122C8.50243 14.5837 8.50243 14.0498 8.17401 13.7214Z" fill="#1CE0E2"/>
<path d="M38.4914 17.0879L35.1229 13.7195C34.7945 13.391 34.2606 13.391 33.9322 13.7195L30.5637 17.0879C30.2353 17.4163 30.2353 17.9503 30.5637 18.2787C30.8921 18.6071 31.426 18.6071 31.7545 18.2787L34.5267 15.5064L37.299 18.2803C37.464 18.4437 37.6796 18.5263 37.8952 18.5263C38.1108 18.5263 38.3263 18.4438 38.4914 18.2787C38.8198 17.9503 38.8198 17.4163 38.4914 17.0879Z" fill="#1CE0E2"/>
</svg>
