
<svg width="19" height="16" viewBox="0 0 19 16" fill="none" xmlns="http://www.w3.org/2000/svg">
<path d="M14.9874 0.777344C13.6131 0.777344 12.5273 1.88011 12.5273 3.25433C12.5273 4.62854 13.6301 5.71435 14.9874 5.71435C16.3446 5.71435 17.4643 4.61158 17.4643 3.23736C17.4643 1.86314 16.3616 0.777344 14.9874 0.777344ZM14.9874 5.17145C13.9185 5.17145 13.0533 4.3062 13.0533 3.23736C13.0533 2.16853 13.9355 1.32024 14.9874 1.32024C16.0562 1.32024 16.9214 2.18549 16.9214 3.25433C16.9214 4.32316 16.0562 5.17145 14.9874 5.17145Z" fill="white"/>
<path d="M15.7673 3.62707C15.7503 3.57617 15.7503 3.54224 15.7164 3.49134C15.6994 3.45741 15.6824 3.40652 15.6485 3.37259C15.6146 3.33865 15.5976 3.30472 15.5637 3.27079C15.5297 3.23686 15.4958 3.20293 15.4449 3.18596C15.411 3.15203 15.3601 3.13507 15.3262 3.1181C15.2753 3.10114 15.2413 3.0672 15.1904 3.05024C15.1395 3.03327 15.0886 3.01631 15.0547 2.99934C15.0377 2.99934 15.0038 2.98238 14.9868 2.96541C14.9699 2.94844 14.9359 2.94844 14.919 2.93148C14.902 2.91451 14.8681 2.91451 14.8511 2.89755C14.8341 2.88058 14.8172 2.86362 14.8002 2.84665C14.7833 2.82968 14.7663 2.81272 14.7663 2.77879C14.7493 2.76182 14.7493 2.72789 14.7493 2.71093C14.7493 2.67699 14.7493 2.66003 14.7493 2.6261C14.7493 2.60913 14.7663 2.5752 14.7663 2.55823C14.7833 2.54127 14.7833 2.50734 14.8002 2.49037C14.8172 2.47341 14.8341 2.45644 14.8511 2.43948C14.8681 2.42251 14.902 2.40554 14.9359 2.40554C14.9699 2.38858 14.9868 2.38858 15.0208 2.38858C15.0377 2.38858 15.0547 2.38858 15.0717 2.38858C15.0886 2.38858 15.1056 2.38858 15.1226 2.38858C15.1565 2.38858 15.1735 2.38858 15.2074 2.40554C15.2413 2.40554 15.2753 2.42251 15.2922 2.42251C15.3092 2.42251 15.3431 2.43948 15.3601 2.43948C15.394 2.43948 15.411 2.45644 15.4279 2.45644L15.5128 2.49037L15.5297 2.38858L15.5637 2.11713V2.04927L15.4958 2.0323C15.4788 2.0323 15.4449 2.01533 15.4279 2.01533C15.411 2.01533 15.394 1.99837 15.3601 1.99837C15.3431 1.99837 15.3092 1.9814 15.2753 1.9814C15.2413 1.9814 15.2244 1.96444 15.1904 1.96444H15.1735V1.72692V1.64209H15.0886H14.8511H14.7663V1.72692V1.9814H14.7493C14.6984 1.99837 14.6475 2.01533 14.5966 2.04927C14.5457 2.06623 14.5118 2.10016 14.4779 2.13409C14.4439 2.16802 14.41 2.20196 14.3761 2.25285C14.3421 2.28678 14.3252 2.33768 14.3082 2.38858C14.2912 2.43947 14.2743 2.49037 14.2573 2.54127C14.2404 2.59217 14.2403 2.66003 14.2403 2.71093C14.2403 2.76182 14.2404 2.79575 14.2573 2.84665C14.2743 2.89755 14.2743 2.93148 14.3082 2.98238C14.3252 3.01631 14.3591 3.0672 14.3761 3.10114C14.41 3.13507 14.427 3.169 14.4609 3.20293C14.4948 3.23686 14.5288 3.27079 14.5797 3.28776C14.6136 3.32169 14.6645 3.33865 14.6984 3.35562C14.7493 3.37259 14.8002 3.40652 14.8341 3.42348C14.885 3.44045 14.9359 3.45741 14.9699 3.47438C14.9868 3.47438 15.0208 3.49134 15.0377 3.50831C15.0547 3.52528 15.0886 3.52528 15.1056 3.54224C15.1226 3.55921 15.1395 3.57617 15.1565 3.57617C15.1735 3.59314 15.1904 3.6101 15.2074 3.62707C15.2244 3.64404 15.2244 3.661 15.2413 3.69493C15.2413 3.7119 15.2583 3.74583 15.2583 3.77976C15.2583 3.81369 15.2583 3.83066 15.2583 3.86459C15.2583 3.88155 15.2413 3.91549 15.2244 3.93245C15.2074 3.94942 15.1904 3.96638 15.1735 3.98335C15.1565 4.00031 15.1395 4.01728 15.1056 4.03425C15.0886 4.05121 15.0547 4.05121 15.0377 4.06818C15.0208 4.06818 14.9868 4.08514 14.9529 4.08514C14.9359 4.08514 14.919 4.08514 14.885 4.08514C14.8681 4.08514 14.8341 4.08514 14.8172 4.08514C14.7833 4.08514 14.7493 4.08514 14.7324 4.08514C14.6984 4.08514 14.6645 4.06818 14.6475 4.06818C14.6136 4.06818 14.5797 4.05121 14.5457 4.03425C14.5118 4.01728 14.4779 4.01728 14.4439 4.00031C14.427 4.00031 14.41 3.98335 14.393 3.98335C14.3761 3.98335 14.3591 3.96638 14.3421 3.96638L14.2403 3.91549L14.2234 4.03425L14.1895 4.33963V4.39052L14.2403 4.40749C14.3082 4.39052 14.3421 4.40749 14.393 4.42446C14.427 4.44142 14.4779 4.45839 14.5118 4.45839C14.5457 4.47535 14.5966 4.47535 14.6475 4.49232C14.6984 4.50928 14.7324 4.50928 14.7833 4.50928H14.8172V4.76377V4.8486H14.902H15.1395H15.2244V4.76377V4.49232H15.2413C15.2922 4.47535 15.3431 4.45839 15.394 4.42446C15.4449 4.40749 15.4788 4.37356 15.5297 4.33963C15.5637 4.3057 15.5976 4.27176 15.6315 4.22087C15.6655 4.18694 15.6824 4.13604 15.7164 4.08514C15.7333 4.03425 15.7503 3.98335 15.7673 3.93245C15.7842 3.88155 15.7842 3.83066 15.7842 3.7628C15.7842 3.7119 15.7842 3.67797 15.7673 3.62707Z" fill="white"/>
<path d="M13.7995 6.03726C13.7147 5.9185 13.5281 5.90154 13.4093 5.98637L10.6609 8.17494L7.11509 6.69892C7.03026 6.66499 6.92846 6.68196 6.8606 6.73286L3.0603 9.44736C2.94154 9.53219 2.90761 9.70184 2.99243 9.8206C3.04333 9.90543 3.12816 9.93936 3.21299 9.93936C3.26388 9.93936 3.31478 9.9224 3.36568 9.88846L7.04722 7.25879L10.61 8.7348C10.6948 8.76873 10.8136 8.75177 10.8815 8.70087L13.7487 6.42747C13.8674 6.34265 13.8844 6.15602 13.7995 6.03726Z" fill="white"/>
<path d="M17.7691 15.3341H16.5137V7.47897C16.5137 7.32628 16.3949 7.20752 16.2422 7.20752H13.7483C13.5956 7.20752 13.4768 7.32628 13.4768 7.47897V15.3341H12.5607V10.1935C12.5607 10.0408 12.4419 9.92202 12.2892 9.92202H9.77832C9.62563 9.92202 9.50687 10.0408 9.50687 10.1935V15.3341H8.59072V9.7863C8.59072 9.63361 8.47196 9.51485 8.31927 9.51485H5.82532C5.67263 9.51485 5.55387 9.63361 5.55387 9.7863V15.3341H4.63773V11.3811C4.63773 11.2284 4.51897 11.1096 4.36628 11.1096H1.85536C1.70267 11.1096 1.58391 11.2284 1.58391 11.3811V15.3341H0.311489C0.158799 15.3341 0.0400391 15.4528 0.0400391 15.6055C0.0400391 15.7582 0.158799 15.877 0.311489 15.877H1.8384H4.33235H5.82532H8.31927H9.77832H12.2723H13.7313H16.2253H17.7522C17.9049 15.877 18.0236 15.7582 18.0236 15.6055C18.0406 15.4528 17.9218 15.3341 17.7691 15.3341ZM4.07786 15.3341H2.12681V11.6525H4.07786V15.3341ZM8.04782 15.3341H6.09677V10.0577H8.04782V15.3341ZM12.0008 15.3341H10.0498V10.4649H12.0008V15.3341ZM15.9708 15.3341H14.0197V7.75042H15.9708V15.3341Z" fill="white"/>
</svg>
