<svg width="69" height="29" viewBox="0 0 69 29" fill="none" xmlns="http://www.w3.org/2000/svg">
<path d="M14 28.1738C21.732 28.1738 28 21.9058 28 14.1738C28 6.44184 21.732 0.173828 14 0.173828C6.26801 0.173828 0 6.44184 0 14.1738C0 21.9058 6.26801 28.1738 14 28.1738Z" fill="#F7931A"/>
<path d="M19.6378 12.5369C19.8995 10.7849 18.5655 9.84314 16.7416 9.21485L17.3333 6.84162L15.8883 6.48161L15.3122 8.7923C14.9329 8.69767 14.5428 8.60838 14.1552 8.51992L14.7354 6.194L13.2916 5.83398L12.6995 8.20639C12.3852 8.1348 12.0766 8.06403 11.7771 7.98956L11.7787 7.98216L9.78649 7.48471L9.40219 9.02764C9.40219 9.02764 10.474 9.27328 10.4514 9.2885C10.6513 9.31243 10.8338 9.41387 10.9597 9.571C11.0856 9.72812 11.1448 9.92837 11.1245 10.1287L10.4506 12.8323C10.5016 12.845 10.5518 12.8611 10.6007 12.8804L10.4485 12.8426L9.50341 16.63C9.48263 16.6961 9.449 16.7574 9.40444 16.8105C9.35987 16.8635 9.30526 16.9073 9.24374 16.9392C9.18222 16.9711 9.115 16.9905 9.04595 16.9963C8.9769 17.0021 8.90738 16.9942 8.84138 16.9731C8.85579 16.9941 7.79137 16.711 7.79137 16.711L7.07422 18.365L8.95453 18.8337C9.30426 18.9213 9.64701 19.0131 9.98398 19.0995L9.38615 21.5003L10.8291 21.8603L11.4216 19.4854C11.8153 19.5924 12.198 19.6911 12.5724 19.7841L11.9824 22.1479L13.427 22.5079L14.0248 20.112C16.4881 20.5782 18.3409 20.3902 19.1198 18.1626C19.748 16.3687 19.0889 15.3339 17.7928 14.6587C18.7367 14.4402 19.4477 13.8194 19.6374 12.5369L19.6378 12.5369ZM16.3367 17.1653C15.8899 18.9592 12.8699 17.9898 11.8902 17.7462L12.6835 14.5661C13.6627 14.8105 16.8025 15.2944 16.3371 17.1653H16.3367ZM16.7831 12.511C16.3758 14.1428 13.8619 13.3137 13.046 13.1104L13.7652 10.2262C14.5811 10.4294 17.2078 10.8088 16.7831 12.511Z" fill="white"/>
<path d="M34 28.1738C41.732 28.1738 48 21.9058 48 14.1738C48 6.44184 41.732 0.173828 34 0.173828C26.268 0.173828 20 6.44184 20 14.1738C20 21.9058 26.268 28.1738 34 28.1738Z" fill="#687FE3"/>
<path d="M34 23.4015L39.6675 15.4199L34 18.7662L28.3359 15.4199L33.9997 23.4015H34Z" fill="white"/>
<path d="M33.9997 17.6954H34L39.6641 14.3475L34 4.94922H33.9997L28.3359 14.3475L33.9997 17.6954Z" fill="white"/>
<circle cx="54.1732" cy="14.1732" r="14.1732" fill="#1CE0E2"/>
<path d="M50.0684 15.4648H47.7363V14.4219H50.0684V12.0312H51.123V14.4219H53.4609V15.4648H51.123V17.8438H50.0684V15.4648ZM54.5801 15.5234C54.5801 12.1719 55.9453 10.4961 58.6758 10.4961C59.1055 10.4961 59.4688 10.5293 59.7656 10.5957V11.7441C59.4688 11.6582 59.125 11.6152 58.7344 11.6152C57.8164 11.6152 57.127 11.8613 56.666 12.3535C56.2051 12.8457 55.9551 13.6348 55.916 14.7207H55.9863C56.1699 14.4043 56.4277 14.1602 56.7598 13.9883C57.0918 13.8125 57.4824 13.7246 57.9316 13.7246C58.709 13.7246 59.3145 13.9629 59.748 14.4395C60.1816 14.916 60.3984 15.5625 60.3984 16.3789C60.3984 17.2773 60.1465 17.9883 59.6426 18.5117C59.1426 19.0312 58.459 19.291 57.5918 19.291C56.9785 19.291 56.4453 19.1445 55.9922 18.8516C55.5391 18.5547 55.1895 18.125 54.9434 17.5625C54.7012 16.9961 54.5801 16.3164 54.5801 15.5234ZM57.5684 18.1543C58.041 18.1543 58.4043 18.002 58.6582 17.6973C58.916 17.3926 59.0449 16.957 59.0449 16.3906C59.0449 15.8984 58.9238 15.5117 58.6816 15.2305C58.4434 14.9492 58.084 14.8086 57.6035 14.8086C57.3066 14.8086 57.0332 14.873 56.7832 15.002C56.5332 15.127 56.3359 15.3008 56.1914 15.5234C56.0469 15.7422 55.9746 15.9668 55.9746 16.1973C55.9746 16.748 56.123 17.2129 56.4199 17.5918C56.7207 17.9668 57.1035 18.1543 57.5684 18.1543Z" fill="#132B66"/>
</svg>
