<svg width="17" height="21" viewBox="0 0 17 21" fill="none" xmlns="http://www.w3.org/2000/svg">
<path d="M11.3925 7.5835C11.1218 7.5835 10.9023 7.80293 10.9023 8.07369V17.3383C10.9023 17.6089 11.1218 17.8285 11.3925 17.8285C11.6633 17.8285 11.8827 17.6089 11.8827 17.3383V8.07369C11.8827 7.80293 11.6633 7.5835 11.3925 7.5835Z" fill="#F33501"/>
<path d="M5.60763 7.5835C5.33687 7.5835 5.11743 7.80293 5.11743 8.07369V17.3383C5.11743 17.6089 5.33687 17.8285 5.60763 17.8285C5.87838 17.8285 6.09782 17.6089 6.09782 17.3383V8.07369C6.09782 7.80293 5.87838 7.5835 5.60763 7.5835Z" fill="#F33501"/>
<path d="M1.39222 6.23143V18.3087C1.39222 19.0226 1.65398 19.6929 2.11123 20.1739C2.56639 20.6563 3.19981 20.9301 3.86271 20.9312H13.1373C13.8004 20.9301 14.4338 20.6563 14.8888 20.1739C15.346 19.6929 15.6078 19.0226 15.6078 18.3087V6.23143C16.5167 5.99017 17.1057 5.11203 16.9841 4.17933C16.8624 3.24682 16.0679 2.54925 15.1274 2.54906H12.6176V1.93632C12.6205 1.42105 12.4167 0.926258 12.052 0.562253C11.6872 0.198439 11.1916 -0.00414818 10.6764 6.44071e-05H6.32363C5.80835 -0.00414818 5.3128 0.198439 4.94803 0.562253C4.58326 0.926258 4.37952 1.42105 4.38239 1.93632V2.54906H1.87265C0.932095 2.54925 0.13764 3.24682 0.015858 4.17933C-0.105732 5.11203 0.483263 5.99017 1.39222 6.23143ZM13.1373 19.9509H3.86271C3.0246 19.9509 2.37261 19.2309 2.37261 18.3087V6.27452H14.6274V18.3087C14.6274 19.2309 13.9754 19.9509 13.1373 19.9509ZM5.36277 1.93632C5.35952 1.68108 5.45986 1.43541 5.641 1.25522C5.82195 1.07504 6.06819 0.976043 6.32363 0.980448H10.6764C10.9318 0.976043 11.1781 1.07504 11.359 1.25522C11.5401 1.43521 11.6405 1.68108 11.6372 1.93632V2.54906H5.36277V1.93632ZM1.87265 3.52944H15.1274C15.6147 3.52944 16.0097 3.92447 16.0097 4.41179C16.0097 4.89911 15.6147 5.29413 15.1274 5.29413H1.87265C1.38533 5.29413 0.990305 4.89911 0.990305 4.41179C0.990305 3.92447 1.38533 3.52944 1.87265 3.52944Z" fill="#F33501"/>
<path d="M8.49996 7.5835C8.2292 7.5835 8.00977 7.80293 8.00977 8.07369V17.3383C8.00977 17.6089 8.2292 17.8285 8.49996 17.8285C8.77071 17.8285 8.99015 17.6089 8.99015 17.3383V8.07369C8.99015 7.80293 8.77071 7.5835 8.49996 7.5835Z" fill="#F33501"/>
</svg>
