<svg width="62" height="62" viewBox="0 0 62 62" fill="none" xmlns="http://www.w3.org/2000/svg">
<circle cx="31" cy="31" r="30.5" stroke="#F33501"/>
<path d="M34.7422 27.2651C34.3913 27.2651 34.1069 27.5495 34.1069 27.9004V39.9065C34.1069 40.2572 34.3913 40.5418 34.7422 40.5418C35.0931 40.5418 35.3774 40.2572 35.3774 39.9065V27.9004C35.3774 27.5495 35.0931 27.2651 34.7422 27.2651Z" fill="#F33501"/>
<path d="M27.2456 27.2651C26.8947 27.2651 26.6104 27.5495 26.6104 27.9004V39.9065C26.6104 40.2572 26.8947 40.5418 27.2456 40.5418C27.5965 40.5418 27.8808 40.2572 27.8808 39.9065V27.9004C27.8808 27.5495 27.5965 27.2651 27.2456 27.2651Z" fill="#F33501"/>
<path d="M21.7827 25.5129V41.1639C21.7827 42.089 22.1219 42.9578 22.7145 43.5811C23.3043 44.2062 24.1252 44.561 24.9842 44.5625H37.0033C37.8626 44.561 38.6834 44.2062 39.273 43.5811C39.8656 42.9578 40.2048 42.089 40.2048 41.1639V25.5129C41.3827 25.2002 42.146 24.0622 41.9884 22.8535C41.8306 21.6451 40.8011 20.7411 39.5822 20.7409H36.3298V19.9468C36.3335 19.279 36.0695 18.6378 35.5968 18.1661C35.1241 17.6947 34.4819 17.4321 33.8141 17.4376H28.1734C27.5056 17.4321 26.8634 17.6947 26.3907 18.1661C25.918 18.6378 25.654 19.279 25.6577 19.9468V20.7409H22.4053C21.1864 20.7411 20.1569 21.6451 19.9991 22.8535C19.8415 24.0622 20.6048 25.2002 21.7827 25.5129ZM37.0033 43.292H24.9842C23.8981 43.292 23.0532 42.359 23.0532 41.1639V25.5687H38.9343V41.1639C38.9343 42.359 38.0894 43.292 37.0033 43.292ZM26.9282 19.9468C26.924 19.616 27.054 19.2977 27.2887 19.0642C27.5232 18.8307 27.8423 18.7024 28.1734 18.7081H33.8141C34.1452 18.7024 34.4643 18.8307 34.6988 19.0642C34.9335 19.2974 35.0635 19.616 35.0593 19.9468V20.7409H26.9282V19.9468ZM22.4053 22.0113H39.5822C40.2137 22.0113 40.7256 22.5233 40.7256 23.1548C40.7256 23.7863 40.2137 24.2982 39.5822 24.2982H22.4053C21.7738 24.2982 21.2619 23.7863 21.2619 23.1548C21.2619 22.5233 21.7738 22.0113 22.4053 22.0113Z" fill="#F33501"/>
<path d="M30.9939 27.2651C30.643 27.2651 30.3586 27.5495 30.3586 27.9004V39.9065C30.3586 40.2572 30.643 40.5418 30.9939 40.5418C31.3448 40.5418 31.6291 40.2572 31.6291 39.9065V27.9004C31.6291 27.5495 31.3448 27.2651 30.9939 27.2651Z" fill="#F33501"/>
</svg>
