<svg width="32" height="32" viewBox="0 0 32 32" fill="none" xmlns="http://www.w3.org/2000/svg">
<circle cx="16" cy="16" r="15.5" stroke="#F33501"/>
<path d="M17.9314 14.0723C17.7503 14.0723 17.6035 14.219 17.6035 14.4001V20.5969C17.6035 20.7778 17.7503 20.9247 17.9314 20.9247C18.1125 20.9247 18.2593 20.7778 18.2593 20.5969V14.4001C18.2593 14.219 18.1125 14.0723 17.9314 14.0723Z" fill="#F33501"/>
<path d="M14.0622 14.0723C13.8811 14.0723 13.7344 14.219 13.7344 14.4001V20.5969C13.7344 20.7778 13.8811 20.9247 14.0622 20.9247C14.2433 20.9247 14.3901 20.7778 14.3901 20.5969V14.4001C14.3901 14.219 14.2433 14.0723 14.0622 14.0723Z" fill="#F33501"/>
<path d="M11.2427 13.1679V21.2459C11.2427 21.7234 11.4178 22.1717 11.7236 22.4935C12.0281 22.8161 12.4517 22.9992 12.8951 23H19.0985C19.542 22.9992 19.9657 22.8161 20.27 22.4935C20.5758 22.1717 20.7509 21.7234 20.7509 21.2459V13.1679C21.3589 13.0066 21.7528 12.4192 21.6715 11.7954C21.59 11.1717 21.0586 10.7051 20.4296 10.705H18.7509V10.2951C18.7528 9.95048 18.6165 9.61953 18.3726 9.37607C18.1286 9.13273 17.7971 8.99723 17.4525 9.00004H14.5411C14.1965 8.99723 13.865 9.13273 13.621 9.37607C13.3771 9.61953 13.2408 9.95048 13.2427 10.2951V10.705H11.5641C10.935 10.7051 10.4036 11.1717 10.3221 11.7954C10.2408 12.4192 10.6348 13.0066 11.2427 13.1679ZM19.0985 22.3443H12.8951C12.3345 22.3443 11.8985 21.8627 11.8985 21.2459V13.1968H20.0952V21.2459C20.0952 21.8627 19.6591 22.3443 19.0985 22.3443ZM13.8985 10.2951C13.8963 10.1244 13.9634 9.96008 14.0845 9.83956C14.2056 9.71905 14.3703 9.65283 14.5411 9.65578H17.4525C17.6233 9.65283 17.788 9.71905 17.9091 9.83956C18.0302 9.95995 18.0973 10.1244 18.0952 10.2951V10.705H13.8985V10.2951ZM11.5641 11.3607H20.4296C20.7555 11.3607 21.0197 11.6249 21.0197 11.9509C21.0197 12.2768 20.7555 12.541 20.4296 12.541H11.5641C11.2381 12.541 10.9739 12.2768 10.9739 11.9509C10.9739 11.6249 11.2381 11.3607 11.5641 11.3607Z" fill="#F33501"/>
<path d="M15.9968 14.0723C15.8157 14.0723 15.6689 14.219 15.6689 14.4001V20.5969C15.6689 20.7778 15.8157 20.9247 15.9968 20.9247C16.1779 20.9247 16.3247 20.7778 16.3247 20.5969V14.4001C16.3247 14.219 16.1779 14.0723 15.9968 14.0723Z" fill="#F33501"/>
</svg>
