<svg width="10" height="6" viewBox="0 0 10 6" fill="none" xmlns="http://www.w3.org/2000/svg">
<path d="M4.99716 5.99996C4.90502 6.0003 4.81372 5.98141 4.72854 5.94438C4.64337 5.90736 4.566 5.85294 4.50092 5.78426L0.205552 1.26131C0.0739392 1.12275 -6.04477e-09 0.934819 0 0.738861C6.04477e-09 0.542904 0.0739393 0.354974 0.205552 0.216411C0.337165 0.0778481 0.51567 6.36399e-09 0.701798 0C0.887927 -6.36398e-09 1.06643 0.0778481 1.19804 0.216411L5 4.21914L8.80196 0.216411C8.93357 0.0778481 9.11207 -6.19424e-09 9.2982 0C9.48433 6.19426e-09 9.66284 0.0778481 9.79445 0.216411C9.92606 0.354974 10 0.542904 10 0.738861C10 0.934819 9.92606 1.12275 9.79445 1.26131L5.49766 5.78501C5.43202 5.85409 5.35394 5.90869 5.26799 5.9456C5.18205 5.98251 5.08998 6.00099 4.99716 5.99996Z" fill="#041F60"/>
</svg>
