<svg width="14" height="17" viewBox="0 0 14 17" fill="none" xmlns="http://www.w3.org/2000/svg">
<path d="M6.87495 0C7.25445 0 7.56245 0.308001 7.56245 0.6875L7.56245 14.4028L12.5647 9.15097C12.6998 9.009 12.8809 8.9375 13.0624 8.9375C13.2326 8.9375 13.4034 9.00041 13.5365 9.12725C13.8115 9.38919 13.8221 9.82437 13.5602 10.0994L7.84742 16.0971C7.58754 16.3567 7.24242 16.5 6.87495 16.5C6.50748 16.5 6.16235 16.3567 5.89114 16.0851L0.189698 10.099C-0.0722391 9.82403 -0.0615827 9.38884 0.213417 9.12691C0.488417 8.86497 0.923949 8.87563 1.18554 9.15063L6.18745 14.4244L6.18745 0.6875C6.18745 0.308001 6.49545 0 6.87495 0Z" fill="#EE101F"/>
</svg>
