<svg width="18" height="18" viewBox="0 0 18 18" fill="none" xmlns="http://www.w3.org/2000/svg">
<path d="M10.3579 3.57154C10.319 3.46046 10.2585 3.35823 10.1798 3.27075C10.5077 2.90631 10.4781 2.34502 10.1137 2.01707C10.0262 1.93836 9.92399 1.87782 9.81292 1.83899V1.1897H9.21833V1.78428H8.62374V1.1897H8.02916V1.78428H7.73186C7.56768 1.78428 7.43457 1.9174 7.43457 2.08158V4.45993C7.43457 4.62411 7.56768 4.75722 7.73186 4.75722H8.02916V5.35181H8.62374V4.75722H9.21833V5.35181H9.81292V4.70252C10.2757 4.54068 10.5197 4.03431 10.3579 3.57154ZM9.51562 4.16263H8.02916V3.56805H9.51562C9.67981 3.56805 9.81292 3.70116 9.81292 3.86534C9.81292 4.02952 9.67981 4.16263 9.51562 4.16263ZM9.51562 2.97346H8.02916V2.37887H9.51562C9.67981 2.37887 9.81292 2.51198 9.81292 2.67616C9.81292 2.84035 9.67981 2.97346 9.51562 2.97346Z" fill="#FAFAFA"/>
<path d="M8.92111 0C7.1159 0.00211822 5.653 1.46503 5.65088 3.27023C5.65088 5.07632 7.11501 6.54046 8.92111 6.54046C10.7272 6.54046 12.1913 5.07632 12.1913 3.27023C12.1913 1.46413 10.7272 0 8.92111 0ZM8.92111 5.94587C7.44341 5.94587 6.24547 4.74793 6.24547 3.27023C6.24547 1.79249 7.44341 0.594587 8.92111 0.594587C10.3981 0.596222 11.5951 1.7932 11.5967 3.27023C11.5967 4.74793 10.3988 5.94587 8.92111 5.94587Z" fill="#FAFAFA"/>
<path d="M14.5676 4.45898C12.7615 4.45898 11.2974 5.92312 11.2974 7.72921C11.2974 9.53531 12.7615 10.9994 14.5676 10.9994C16.3737 10.9994 17.8378 9.53531 17.8378 7.72921C17.8357 5.92401 16.3728 4.4611 14.5676 4.45898ZM14.5676 10.4049C13.0899 10.4049 11.892 9.20691 11.892 7.72921C11.892 6.25148 13.0899 5.05357 14.5676 5.05357C16.0453 5.05357 17.2432 6.25148 17.2432 7.72921C17.2416 9.20624 16.0446 10.4032 14.5676 10.4049Z" fill="#FAFAFA"/>
<path d="M16.2016 7.95902C16.058 7.63672 15.7379 7.42939 15.3851 7.43014C15.3273 7.43044 15.2696 7.4362 15.2129 7.44738C15.5526 7.09067 15.5388 6.52614 15.1821 6.18645C14.8254 5.84675 14.2609 5.86054 13.9212 6.21725C13.5932 6.56171 13.5932 7.10293 13.9212 7.44738C13.8678 7.43664 13.8136 7.43088 13.7592 7.43014C13.2666 7.42928 12.8666 7.82788 12.8657 8.32046C12.8649 8.81304 13.2635 9.21304 13.756 9.2139C14.1088 9.21453 14.4287 9.00721 14.5723 8.68501C14.7728 9.13493 15.3 9.33716 15.7499 9.13668C16.1999 8.93619 16.4021 8.40894 16.2016 7.95902ZM13.7592 8.61931C13.595 8.61931 13.4619 8.4862 13.4619 8.32202C13.4619 8.15784 13.595 8.02472 13.7592 8.02472C13.9233 8.02472 14.0565 8.15784 14.0565 8.32202C14.0565 8.4862 13.9233 8.61931 13.7592 8.61931ZM14.5723 7.95902C14.531 7.86764 14.4748 7.78384 14.4058 7.71108C14.4591 7.72152 14.5132 7.72699 14.5675 7.72743C14.6253 7.72713 14.6829 7.72137 14.7396 7.71019C14.6701 7.78303 14.6135 7.86716 14.5723 7.95902ZM14.5675 7.13284C14.4033 7.13284 14.2702 6.99973 14.2702 6.83555C14.2702 6.67137 14.4033 6.53826 14.5675 6.53826C14.7317 6.53826 14.8648 6.67137 14.8648 6.83555C14.8648 6.99973 14.7317 7.13284 14.5675 7.13284ZM15.3851 8.61931C15.2209 8.61931 15.0878 8.4862 15.0878 8.32202C15.0878 8.15784 15.2209 8.02472 15.3851 8.02472C15.5492 8.02472 15.6824 8.15784 15.6824 8.32202C15.6824 8.4862 15.5492 8.61931 15.3851 8.61931Z" fill="#FAFAFA"/>
<path d="M4.75607 11.2974C2.94997 11.2974 1.48584 12.7615 1.48584 14.5676C1.48584 16.3737 2.94997 17.8378 4.75607 17.8378C6.56216 17.8378 8.0263 16.3737 8.0263 14.5676C8.02418 12.7624 6.56127 11.2995 4.75607 11.2974ZM4.75607 17.2432C3.27833 17.2432 2.08043 16.0453 2.08043 14.5676C2.08043 13.0899 3.27833 11.892 4.75607 11.892C6.2338 11.892 7.43171 13.0899 7.43171 14.5676C7.43008 16.0446 6.2331 17.2416 4.75607 17.2432Z" fill="#FAFAFA"/>
<path d="M4.02643 15.1621L4.29072 14.5675H5.35265V13.973H4.55502L5.03069 12.9045L4.48723 12.6631L3.90424 13.973H3.2716V14.5675H3.63995L3.29717 15.3387C3.2305 15.4888 3.2981 15.6644 3.44816 15.7311C3.48617 15.748 3.52731 15.7567 3.56889 15.7567H5.94724V15.1621H4.02643Z" fill="#FAFAFA"/>
<path d="M13.0798 11.2974C11.2737 11.2974 9.80957 12.7615 9.80957 14.5676C9.80957 16.3737 11.2737 17.8378 13.0798 17.8378C14.8859 17.8378 16.35 16.3737 16.35 14.5676C16.3479 12.7624 14.885 11.2995 13.0798 11.2974ZM13.0798 17.2432C11.6021 17.2432 10.4042 16.0453 10.4042 14.5676C10.4042 13.0899 11.6021 11.892 13.0798 11.892C14.5575 11.892 15.7554 13.0899 15.7554 14.5676C15.7538 16.0446 14.5568 17.2416 13.0798 17.2432Z" fill="#FAFAFA"/>
<path d="M3.27023 4.45898C1.46413 4.45898 0 5.92312 0 7.72921C0.00211822 9.53442 1.46503 10.9973 3.27023 10.9994C5.07632 10.9994 6.54046 9.53531 6.54046 7.72921C6.54046 5.92312 5.07632 4.45898 3.27023 4.45898ZM3.27023 10.4049C1.79249 10.4049 0.594587 9.20691 0.594587 7.72921C0.596222 6.25218 1.7932 5.05521 3.27023 5.05357C4.74796 5.05357 5.94587 6.25148 5.94587 7.72921C5.94587 9.20691 4.74796 10.4049 3.27023 10.4049Z" fill="#FAFAFA"/>
<path d="M4.39109 6.26629C4.33375 6.25191 4.27485 6.24463 4.21572 6.24463H2.08294V6.83922H4.21572C4.25478 6.83903 4.29172 6.85705 4.31561 6.88797C4.33992 6.91852 4.34839 6.95873 4.3385 6.99648L3.95589 8.52695C3.94173 8.5834 3.891 8.62294 3.83281 8.62298H1.78564V9.21756H3.83311C4.16418 9.2179 4.45281 8.99244 4.53264 8.67114L4.91496 7.14097C5.01184 6.75478 4.77727 6.36317 4.39109 6.26629Z" fill="#FAFAFA"/>
<path d="M2.97231 7.43237H1.48584V8.02696H2.97231V7.43237Z" fill="#FAFAFA"/>
<path d="M14.567 14.8648V13.3784C14.567 13.2142 14.4339 13.0811 14.2697 13.0811C14.2054 13.0811 14.1428 13.1019 14.0914 13.1405L13.0806 13.8986L12.0698 13.1405C11.9384 13.042 11.7521 13.0686 11.6536 13.2C11.6149 13.2515 11.5941 13.314 11.5941 13.3784V14.8648H10.9995V15.4594H11.8914C12.0556 15.4594 12.1887 15.3263 12.1887 15.1621V13.973L12.9022 14.5081C13.0079 14.5874 13.1533 14.5874 13.2589 14.5081L13.9724 13.973V15.1621C13.9724 15.3263 14.1056 15.4594 14.2697 15.4594H15.1616V14.8648H14.567Z" fill="#FAFAFA"/>
</svg>
