<svg width="38" height="35" viewBox="0 0 38 39" fill="none" xmlns="http://www.w3.org/2000/svg">
    <path d="M18.9998 24.688C18.3441 24.688 17.8125 24.0578 17.8125 23.2804V13.4271C17.8125 12.6498 18.3441 12.0195 18.9998 12.0195C19.6556 12.0195 20.1872 12.6498 20.1872 13.4271V23.2804C20.1872 24.0578 19.6556 24.688 18.9998 24.688Z" fill="#EE101F" />
    <path d="M37.4973 31.7553L22.7157 2.54921C21.0386 -0.765796 16.9648 -0.772218 15.2845 2.54921L0.502809 31.7553C-0.895055 34.5173 0.78673 38.0605 3.51419 38.0605H34.4858C37.2137 38.0605 38.8948 34.5169 37.4973 31.7553ZM34.4858 35.2453H3.51426C2.62955 35.2453 2.08708 34.0955 2.53916 33.2034L17.3207 3.99729C18.0791 2.4988 19.9201 2.49704 20.6794 3.99729L35.461 33.2034C35.9125 34.0945 35.3713 35.2453 34.4858 35.2453Z" fill="#EE101F" />
    <path d="M18.9998 30.3185C19.9834 30.3185 20.7808 29.3732 20.7808 28.2071C20.7808 27.041 19.9834 26.0957 18.9998 26.0957C18.0161 26.0957 17.2188 27.041 17.2188 28.2071C17.2188 29.3732 18.0161 30.3185 18.9998 30.3185Z" fill="#EE101F" />
</svg>