<svg width="40" height="40" viewBox="0 0 40 40" fill="none" xmlns="http://www.w3.org/2000/svg">
<g filter="url(#filter0_d)">
<path d="M36.8 18C36.8 26.7261 29.7261 33.8 21 33.8C12.2739 33.8 5.2 26.7261 5.2 18C5.2 9.2739 12.2739 2.2 21 2.2C29.7261 2.2 36.8 9.2739 36.8 18Z" stroke="#D6D6D6" stroke-width="0.4"/>
</g>
<path d="M25.023 18.6267H22.168V29.0861H17.8424V18.6267H15.7852V14.9509H17.8424V12.5722C17.8424 10.8711 18.6504 8.20752 22.2065 8.20752L25.4106 8.22092V11.789H23.0858C22.7045 11.789 22.1683 11.9795 22.1683 12.7909V14.9543H25.4009L25.023 18.6267Z" fill="#3B5998"/>
<defs>
<filter id="filter0_d" x="0" y="0" width="40" height="40" filterUnits="userSpaceOnUse" color-interpolation-filters="sRGB">
<feFlood flood-opacity="0" result="BackgroundImageFix"/>
<feColorMatrix in="SourceAlpha" type="matrix" values="0 0 0 0 0 0 0 0 0 0 0 0 0 0 0 0 0 0 127 0"/>
<feOffset dx="-1" dy="2"/>
<feGaussianBlur stdDeviation="2"/>
<feColorMatrix type="matrix" values="0 0 0 0 0 0 0 0 0 0 0 0 0 0 0 0 0 0 0.08 0"/>
<feBlend mode="normal" in2="BackgroundImageFix" result="effect1_dropShadow"/>
<feBlend mode="normal" in="SourceGraphic" in2="effect1_dropShadow" result="shape"/>
</filter>
</defs>
</svg>
