<svg width="32" height="32" viewBox="0 0 32 32" fill="none" xmlns="http://www.w3.org/2000/svg">
<circle cx="16" cy="16" r="16" fill="#EFEFEF"/>
<path d="M24.32 11.7781C24.32 9.16548 22.1946 7.04004 19.582 7.04004C17.0636 7.04004 15.0036 9.01665 14.8581 11.4994H13.1717V11.2207C13.1717 10.4523 12.5465 9.82714 11.7781 9.82714H8.43359C7.66518 9.82714 7.04004 10.4523 7.04004 11.2207V13.4504C7.04004 14.2188 7.66518 14.8439 8.43359 14.8439H11.7781C12.5465 14.8439 13.1717 14.2188 13.1717 13.4504V12.0568H14.8581C14.9222 13.153 15.359 14.1485 16.0457 14.9206L13.335 17.631H8.43359C7.66518 17.631 7.04004 18.2562 7.04004 19.0246V22.9265C7.04004 23.6949 7.66518 24.32 8.43359 24.32H13.4504C14.2188 24.32 14.8439 23.6949 14.8439 22.9265V19.0246C14.8439 18.4538 14.4983 17.9635 14.0061 17.7481L16.4398 15.3144C17.2118 16.0011 18.2071 16.4376 19.3035 16.502V18.1884H17.91C17.1416 18.1884 16.5164 18.8136 16.5164 19.582V21.8117C16.5164 22.5801 17.1416 23.2052 17.91 23.2052H21.2545C22.0229 23.2052 22.6481 22.5801 22.6481 21.8117V19.582C22.6481 18.8136 22.0229 18.1884 21.2545 18.1884H19.861V16.502C22.3434 16.3565 24.32 14.2965 24.32 11.7781ZM9.73516 13.0264C9.61476 12.918 9.54843 12.7714 9.54843 12.6142V12.0568C9.54843 11.9024 9.61002 11.7589 9.72234 11.6527C9.83438 11.5459 9.98349 11.4924 10.1362 11.5002C10.4269 11.5156 10.6633 11.7862 10.6633 12.1042V12.6142C10.6633 12.7714 10.5969 12.918 10.4765 13.0264L10.3846 13.1095V13.6226L11.3453 14.1031C11.42 14.1404 11.4712 14.2079 11.4902 14.2865H8.72149C8.74045 14.2079 8.79173 14.1404 8.86642 14.1031L9.82714 13.6226V13.1095L9.73516 13.0264ZM12.6142 13.4504C12.6142 13.816 12.3768 14.1243 12.0487 14.2377C12.0117 13.9663 11.845 13.7299 11.5944 13.6045L10.9824 13.2985C11.1354 13.1034 11.2207 12.8623 11.2207 12.6142V12.1042C11.2207 11.4841 10.7572 10.9743 10.1652 10.9434C9.85891 10.9317 9.56236 11.0356 9.33828 11.2483C9.11754 11.4579 8.99101 11.7525 8.99101 12.0568V12.6142C8.99101 12.8623 9.07629 13.1034 9.22902 13.2985L8.61698 13.6045C8.3667 13.7296 8.19975 13.966 8.16268 14.2377C7.83492 14.1243 7.59746 13.816 7.59746 13.4504V11.2207C7.59746 10.7597 7.9726 10.3846 8.43359 10.3846H11.7781C12.2391 10.3846 12.6142 10.7597 12.6142 11.2207V13.4504ZM19.2113 21.3877C19.0909 21.2793 19.0246 21.1327 19.0246 20.9755V20.4181C19.0246 20.2637 19.0862 20.1202 19.1985 20.014C19.3105 19.9072 19.4596 19.8529 19.6124 19.8615C19.903 19.8768 20.1394 20.1475 20.1394 20.4655V20.9755C20.1394 21.1327 20.0731 21.2793 19.9527 21.3877L19.8607 21.4708V21.9839L20.8214 22.4644C20.8961 22.5017 20.9474 22.5692 20.9663 22.6478H18.1976C18.2166 22.5692 18.2679 22.5017 18.3426 22.4644L19.3033 21.9839V21.4708L19.2113 21.3877ZM22.0904 19.582V21.8117C22.0904 22.1773 21.8529 22.4856 21.5249 22.599C21.4878 22.3275 21.3211 22.0912 21.0706 21.9658L20.4585 21.6598C20.6115 21.4647 20.6968 21.2236 20.6968 20.9755V20.4655C20.6968 19.8454 20.2333 19.3356 19.6413 19.3047C19.3345 19.2921 19.0385 19.3969 18.8144 19.6096C18.5937 19.8192 18.4671 20.1138 18.4671 20.4181V20.9755C18.4671 21.2236 18.5524 21.4647 18.7052 21.6598L18.0931 21.9658C17.8428 22.0909 17.6759 22.3273 17.6388 22.599C17.311 22.4856 17.0736 22.1773 17.0736 21.8117V19.582C17.0736 19.121 17.4487 18.7458 17.9097 18.7458H21.2542C21.7152 18.7458 22.0904 19.121 22.0904 19.582ZM10.5247 21.4162C10.2625 21.2634 10.1058 20.9945 10.1058 20.6968V20.1394C10.1058 19.9056 10.2048 19.6809 10.3773 19.5229C10.5518 19.3626 10.7781 19.2854 11.0178 19.3066C11.4439 19.3437 11.7781 19.735 11.7781 20.1974V20.6968C11.7781 20.9945 11.6215 21.2634 11.3592 21.4162L11.2207 21.4967V22.3005L12.5696 22.6862C12.9242 22.7874 13.1717 23.1155 13.1717 23.4839V23.7626H8.7123V23.4839C8.7123 23.1155 8.95979 22.7874 9.31431 22.6862L10.6633 22.3005V21.4967L10.5247 21.4162ZM14.2865 19.0246V22.9265C14.2865 23.2894 14.0527 23.596 13.7291 23.7113V23.4839C13.7291 22.868 13.3155 22.3195 12.7229 22.15L11.7781 21.8802V21.8058C12.1254 21.5441 12.3355 21.1324 12.3355 20.6968V20.1974C12.3355 19.4482 11.7778 18.813 11.0657 18.7514C10.6752 18.7166 10.2876 18.8492 10.0005 19.1121C9.71314 19.3755 9.54843 19.75 9.54843 20.1394V20.6968C9.54843 21.1324 9.75857 21.5441 10.1058 21.8058V21.8802L9.16102 22.15C8.56848 22.3195 8.15488 22.868 8.15488 23.4839V23.7113C7.8313 23.596 7.59746 23.2894 7.59746 22.9265V19.0246C7.59746 18.5636 7.9726 18.1884 8.43359 18.1884H13.4504C13.9113 18.1884 14.2865 18.5636 14.2865 19.0246ZM15.4013 11.7781C15.4013 9.4729 17.2768 7.59746 19.582 7.59746C21.8872 7.59746 23.7626 9.4729 23.7626 11.7781C23.7626 14.0833 21.8872 15.9587 19.582 15.9587C17.2768 15.9587 15.4013 14.0833 15.4013 11.7781Z" fill="#132B66"/>
<path d="M19.8609 14.2873V13.7299C20.4758 13.7299 20.9758 13.2299 20.9758 12.615C20.9758 12.2825 20.8294 11.9832 20.5976 11.7789C20.8294 11.5746 20.9758 11.2753 20.9758 10.9428C20.9758 10.3279 20.4758 9.82793 19.8609 9.82793V9.27051H19.3035V9.82793H18.7461V13.7299H19.3035V14.2873H19.8609ZM19.3035 10.3853H19.8609C20.1683 10.3853 20.4184 10.6353 20.4184 10.9428C20.4184 11.2502 20.1683 11.5002 19.8609 11.5002H19.3035V10.3853ZM19.3035 12.0576H19.8609C20.1683 12.0576 20.4184 12.3076 20.4184 12.615C20.4184 12.9224 20.1683 13.1724 19.8609 13.1724H19.3035V12.0576Z" fill="#132B66"/>
<path d="M23.2045 11.7795C23.2045 9.78168 21.579 8.15625 19.5812 8.15625C17.5834 8.15625 15.958 9.78168 15.958 11.7795C15.958 13.7773 17.5834 15.4027 19.5812 15.4027C21.579 15.4027 23.2045 13.7773 23.2045 11.7795ZM16.5154 11.7795C16.5154 10.0891 17.8909 8.71367 19.5812 8.71367C21.2716 8.71367 22.647 10.0891 22.647 11.7795C22.647 13.4699 21.2716 14.8453 19.5812 14.8453C17.8909 14.8453 16.5154 13.4699 16.5154 11.7795Z" fill="#132B66"/>
</svg>
