<svg width="14" height="15" viewBox="0 0 14 15" fill="none" xmlns="http://www.w3.org/2000/svg">
<path d="M12.425 0H0.679001C0.131347 0 -0.190581 0.617224 0.123207 1.06635C0.129248 1.07492 -0.0627286 0.813484 4.60518 7.16732C4.70989 7.31883 4.76522 7.49611 4.76522 7.68035V13.804C4.76522 14.3995 5.44785 14.7279 5.91073 14.3777L7.90038 12.8778C8.17492 12.674 8.33873 12.3483 8.33873 12.0063V7.68035C8.33873 7.49611 8.39404 7.31883 8.49877 7.16732C13.1631 0.818362 12.9747 1.07486 12.9807 1.06635C13.2944 0.617423 12.9728 0 12.425 0V0ZM7.80979 6.66802C7.61691 6.93056 7.4879 7.29662 7.4879 7.68032V12.0062C7.4879 12.0803 7.4523 12.1509 7.39274 12.195C7.34036 12.2336 7.73711 11.9354 5.61606 13.5343V7.68035C5.61606 7.31942 5.50678 6.97223 5.30006 6.67631C5.29492 6.66896 5.43897 6.86516 2.37483 2.69434H10.7291L7.80979 6.66802ZM11.3542 1.84348H1.74978L1.02053 0.850835H12.0834L11.3542 1.84348Z" fill="#041F60"/>
</svg>
