<svg width="218" height="193" viewBox="0 0 218 193" fill="none" xmlns="http://www.w3.org/2000/svg">
<path fill-rule="evenodd" clip-rule="evenodd" d="M203.309 11L215.371 1.22498C216.025 0.695196 217.001 1.16045 217.001 2.00189V22.138V44.3716L217 44.3705V52.0078V185C217 188.866 213.866 192 210 192H8C4.13401 192 1 188.866 1 185V18C1 14.134 4.13401 11 8 11H199.918H203.309Z" fill="#FAFAFA"/>
<path d="M215.371 1.22498L215.056 0.836518V0.836519L215.371 1.22498ZM203.309 11V11.5H203.486L203.624 11.3885L203.309 11ZM217.001 44.3716L216.603 44.6739L217.501 45.8577V44.3716H217.001ZM217 44.3705L217.398 44.0682L216.5 42.8844V44.3705H217ZM215.056 0.836519L202.994 10.6115L203.624 11.3885L215.686 1.61343L215.056 0.836519ZM217.501 2.00189C217.501 0.739725 216.037 0.0418503 215.056 0.836518L215.686 1.61343C216.013 1.34854 216.501 1.58117 216.501 2.00189H217.501ZM217.501 22.138V2.00189H216.501V22.138H217.501ZM217.501 44.3716V22.138H216.501V44.3716H217.501ZM216.602 44.6727L216.603 44.6739L217.399 44.0694L217.398 44.0682L216.602 44.6727ZM216.5 44.3705V52.0078H217.5V44.3705H216.5ZM216.5 52.0078V185H217.5V52.0078H216.5ZM216.5 185C216.5 188.59 213.59 191.5 210 191.5V192.5C214.142 192.5 217.5 189.142 217.5 185H216.5ZM210 191.5H8V192.5H210V191.5ZM8 191.5C4.41015 191.5 1.5 188.59 1.5 185H0.5C0.5 189.142 3.85786 192.5 8 192.5V191.5ZM1.5 185V18H0.5V185H1.5ZM1.5 18C1.5 14.4102 4.41015 11.5 8 11.5V10.5C3.85786 10.5 0.5 13.8579 0.5 18H1.5ZM8 11.5H199.918V10.5H8V11.5ZM199.918 11.5H203.309V10.5H199.918V11.5Z" fill="#E3E3E3"/>
</svg>
