<svg width="55" height="22" viewBox="0 0 55 22" fill="none" xmlns="http://www.w3.org/2000/svg">
<rect x="-0.000976562" width="55" height="22" rx="8" fill="#364C80"/>
<path d="M15.5352 17H14.373V7.00586H19.9443V8.03809H15.5352V11.6953H19.6777V12.7275H15.5352V17ZM24.8525 9.37109C25.1852 9.37109 25.4837 9.39844 25.748 9.45312L25.5908 10.5059C25.2809 10.4375 25.0075 10.4033 24.7705 10.4033C24.1644 10.4033 23.6449 10.6494 23.2119 11.1416C22.7835 11.6338 22.5693 12.2467 22.5693 12.9805V17H21.4346V9.50781H22.3711L22.501 10.8955H22.5557C22.8337 10.4079 23.1686 10.0319 23.5605 9.76758C23.9525 9.50326 24.3831 9.37109 24.8525 9.37109ZM30.3145 17.1367C29.207 17.1367 28.332 16.7995 27.6895 16.125C27.0514 15.4505 26.7324 14.514 26.7324 13.3154C26.7324 12.1077 27.0286 11.1484 27.6211 10.4375C28.2181 9.72656 29.0179 9.37109 30.0205 9.37109C30.9593 9.37109 31.7021 9.68099 32.249 10.3008C32.7959 10.916 33.0693 11.7295 33.0693 12.7412V13.459H27.9082C27.931 14.3385 28.152 15.0062 28.5713 15.4619C28.9951 15.9176 29.5898 16.1455 30.3555 16.1455C31.1621 16.1455 31.9596 15.9769 32.748 15.6396V16.6514C32.347 16.8245 31.9665 16.9476 31.6064 17.0205C31.251 17.098 30.8203 17.1367 30.3145 17.1367ZM30.0068 10.3213C29.4053 10.3213 28.9245 10.5173 28.5645 10.9092C28.209 11.3011 27.9993 11.8434 27.9355 12.5361H31.8525C31.8525 11.8206 31.693 11.2738 31.374 10.8955C31.055 10.5127 30.5993 10.3213 30.0068 10.3213ZM38.1758 17.1367C37.0684 17.1367 36.1934 16.7995 35.5508 16.125C34.9128 15.4505 34.5938 14.514 34.5938 13.3154C34.5938 12.1077 34.89 11.1484 35.4824 10.4375C36.0794 9.72656 36.8792 9.37109 37.8818 9.37109C38.8206 9.37109 39.5635 9.68099 40.1104 10.3008C40.6572 10.916 40.9307 11.7295 40.9307 12.7412V13.459H35.7695C35.7923 14.3385 36.0133 15.0062 36.4326 15.4619C36.8564 15.9176 37.4512 16.1455 38.2168 16.1455C39.0234 16.1455 39.821 15.9769 40.6094 15.6396V16.6514C40.2083 16.8245 39.8278 16.9476 39.4678 17.0205C39.1123 17.098 38.6816 17.1367 38.1758 17.1367ZM37.8682 10.3213C37.2666 10.3213 36.7858 10.5173 36.4258 10.9092C36.0703 11.3011 35.8607 11.8434 35.7969 12.5361H39.7139C39.7139 11.8206 39.5544 11.2738 39.2354 10.8955C38.9163 10.5127 38.4606 10.3213 37.8682 10.3213Z" fill="#1CE0E2"/>
</svg>
