<svg width="40" height="40" viewBox="0 0 40 40" fill="none" xmlns="http://www.w3.org/2000/svg">
<g filter="url(#filter0_d)">
<path d="M36.8 18C36.8 26.7261 29.7261 33.8 21 33.8C12.2739 33.8 5.2 26.7261 5.2 18C5.2 9.2739 12.2739 2.2 21 2.2C29.7261 2.2 36.8 9.2739 36.8 18Z" stroke="#D6D6D6" stroke-width="0.4"/>
</g>
<path d="M20.9994 7.7168C17.7441 7.7168 14.8377 9.23762 12.9521 11.6057L15.6286 14.2821C16.8096 12.5812 18.7764 11.4652 20.9994 11.4652C22.7448 11.4652 24.3858 12.145 25.6201 13.3792L28.2706 10.7286C26.3284 8.78646 23.7461 7.7168 20.9994 7.7168Z" fill="#FF583E"/>
<path d="M28.2718 10.7266C26.331 8.78591 23.7512 7.71651 21.0068 7.71484V11.4633C22.7499 11.4649 24.3884 12.1444 25.6212 13.3772L28.2718 10.7266Z" fill="#F92814"/>
<path d="M25.7044 22.5275C24.5148 23.7636 22.8445 24.5339 20.9976 24.5339C18.7706 24.5339 16.801 23.4136 15.6208 21.7075L12.9443 24.384C14.8296 26.7571 17.7383 28.2823 20.9976 28.2823C23.878 28.2823 26.4851 27.0914 28.3537 25.1767L25.7044 22.5275Z" fill="#06B26B"/>
<path d="M28.3566 25.1746L25.7074 22.5254C24.5192 23.7601 22.8512 24.53 21.0068 24.5317V28.2802C23.8848 28.2784 26.4894 27.0879 28.3566 25.1746Z" fill="#0A9154"/>
<path d="M31.2783 17.9953V16.1211H22.5977V19.8695H27.256C26.9077 21.0307 26.244 22.0565 25.3655 22.8483L28.0172 25.5001C30.0227 23.6223 31.2783 20.9529 31.2783 17.9953Z" fill="#4855B7"/>
<path d="M14.4623 17.9943C14.4623 16.5748 14.9175 15.2598 15.6892 14.1871L13.0178 11.5156C11.5782 13.2853 10.7139 15.5406 10.7139 17.9943C10.7139 20.4656 11.5904 22.736 13.0487 24.5113L15.7185 21.8416C14.9291 20.7616 14.4623 19.4315 14.4623 17.9943Z" fill="#FFCE00"/>
<defs>
<filter id="filter0_d" x="0" y="0" width="40" height="40" filterUnits="userSpaceOnUse" color-interpolation-filters="sRGB">
<feFlood flood-opacity="0" result="BackgroundImageFix"/>
<feColorMatrix in="SourceAlpha" type="matrix" values="0 0 0 0 0 0 0 0 0 0 0 0 0 0 0 0 0 0 127 0"/>
<feOffset dx="-1" dy="2"/>
<feGaussianBlur stdDeviation="2"/>
<feColorMatrix type="matrix" values="0 0 0 0 0 0 0 0 0 0 0 0 0 0 0 0 0 0 0.08 0"/>
<feBlend mode="normal" in2="BackgroundImageFix" result="effect1_dropShadow"/>
<feBlend mode="normal" in="SourceGraphic" in2="effect1_dropShadow" result="shape"/>
</filter>
</defs>
</svg>
