<svg width="21" height="21" viewBox="0 0 21 21" fill="none" xmlns="http://www.w3.org/2000/svg">
<path d="M8.53125 0H0.65625C0.293795 0 0 0.293795 0 0.65625V8.53125C0 8.89371 0.293795 9.1875 0.65625 9.1875H8.53125C8.89371 9.1875 9.1875 8.89371 9.1875 8.53125V0.65625C9.1875 0.293795 8.89371 0 8.53125 0ZM7.875 7.875H1.3125V1.3125H7.875V7.875Z" fill="#041F60"/>
<path d="M20.3438 0H12.4688C12.1063 0 11.8125 0.293795 11.8125 0.65625V8.53125C11.8125 8.89371 12.1063 9.1875 12.4688 9.1875H20.3438C20.7062 9.1875 21 8.89371 21 8.53125V0.65625C21 0.293795 20.7062 0 20.3438 0ZM19.6875 7.875H13.125V1.3125H19.6875V7.875Z" fill="#041F60"/>
<path d="M8.53125 11.8125H0.65625C0.293795 11.8125 0 12.1063 0 12.4688V20.3438C0 20.7062 0.293795 21 0.65625 21H8.53125C8.89371 21 9.1875 20.7062 9.1875 20.3438V12.4688C9.1875 12.1063 8.89371 11.8125 8.53125 11.8125ZM7.875 19.6875H1.3125V13.125H7.875V19.6875Z" fill="#041F60"/>
<path d="M20.3438 11.8125H12.4688C12.1063 11.8125 11.8125 12.1063 11.8125 12.4688V20.3438C11.8125 20.7062 12.1063 21 12.4688 21H20.3438C20.7062 21 21 20.7062 21 20.3438V12.4688C21 12.1063 20.7062 11.8125 20.3438 11.8125ZM19.6875 19.6875H13.125V13.125H19.6875V19.6875Z" fill="#041F60"/>
</svg>
