<svg width="236" height="40" viewBox="0 0 236 40" fill="none" xmlns="http://www.w3.org/2000/svg">
<path d="M26.6429 13.3145C25.3231 13.3145 24.0329 13.7061 22.9355 14.4397C21.8381 15.1733 20.9828 16.2161 20.4777 17.4361C19.9726 18.6561 19.8405 19.9985 20.098 21.2937C20.3554 22.5888 20.991 23.7785 21.9242 24.7122C22.8575 25.646 24.0466 26.2819 25.341 26.5395C26.6355 26.7971 27.9772 26.6649 29.1966 26.1595C30.416 25.6542 31.4582 24.7984 32.1914 23.7005C32.9247 22.6025 33.316 21.3116 33.316 19.9911C33.316 18.2204 32.613 16.5221 31.3615 15.27C30.1101 14.0179 28.4127 13.3145 26.6429 13.3145Z" fill="white"/>
<path d="M38.0422 4.50176C35.4779 2.61258 32.485 1.38998 29.332 0.943659C26.1789 0.497342 22.9645 0.841279 19.9771 1.94461V10.7511C27.5565 5.25683 38.0503 10.7951 38.0503 19.9931V35.486C48.4806 27.7754 48.4709 12.1993 38.0422 4.50176Z" fill="white"/>
<path d="M19.814 15.5734C19.814 15.8495 19.7322 16.1194 19.5788 16.349C19.4255 16.5786 19.2076 16.7575 18.9527 16.8632C18.6977 16.9688 18.4172 16.9965 18.1465 16.9426C17.8759 16.8887 17.6272 16.7558 17.4321 16.5605C17.237 16.3653 17.1041 16.1166 17.0502 15.8458C16.9964 15.575 17.024 15.2943 17.1296 15.0392C17.2353 14.7841 17.4141 14.5661 17.6435 14.4127C17.873 14.2593 18.1428 14.1774 18.4187 14.1774C18.7888 14.1774 19.1437 14.3245 19.4053 14.5863C19.667 14.8481 19.814 15.2032 19.814 15.5734Z" fill="#57C6D0"/>
<path d="M6.51807 20.7087C6.51839 20.9949 6.43383 21.2748 6.27508 21.5129C6.11634 21.7511 5.89055 21.9367 5.6263 22.0464C5.36205 22.1561 5.07121 22.1849 4.7906 22.1291C4.50999 22.0734 4.25223 21.9356 4.04993 21.7332C3.84763 21.5308 3.7099 21.2729 3.65417 20.9921C3.59843 20.7113 3.6272 20.4204 3.73683 20.156C3.84646 19.8916 4.03203 19.6657 4.27004 19.5068C4.50805 19.348 4.78781 19.2634 5.0739 19.2637C5.45678 19.2642 5.82386 19.4165 6.0946 19.6874C6.36534 19.9583 6.51763 20.3256 6.51807 20.7087Z" fill="white"/>
<path d="M5.55817 16.4103C5.55781 16.6981 5.45774 16.9769 5.275 17.1992C5.09227 17.4215 4.83817 17.5735 4.55598 17.6294C4.2738 17.6853 3.98097 17.6416 3.72738 17.5057C3.47378 17.3698 3.27511 17.1502 3.16518 16.8842C3.05526 16.6183 3.04089 16.3224 3.12451 16.047C3.20814 15.7716 3.38459 15.5338 3.62382 15.3739C3.86305 15.2141 4.15026 15.1422 4.43653 15.1704C4.72281 15.1987 4.99045 15.3253 5.19386 15.5288C5.30947 15.6446 5.40115 15.7821 5.46366 15.9333C5.52617 16.0846 5.55828 16.2467 5.55817 16.4103Z" fill="white"/>
<path d="M1.43174 14.1988C1.43174 14.3094 1.39893 14.4176 1.33747 14.5095C1.276 14.6015 1.18864 14.6732 1.08643 14.7156C0.984216 14.7579 0.871744 14.769 0.763236 14.7474C0.654727 14.7258 0.555057 14.6725 0.476827 14.5943C0.398596 14.5161 0.34532 14.4164 0.323737 14.3079C0.302153 14.1994 0.313231 14.0869 0.355569 13.9847C0.397907 13.8825 0.469604 13.7951 0.561593 13.7337C0.653582 13.6722 0.76173 13.6394 0.872364 13.6394C1.02072 13.6394 1.163 13.6983 1.2679 13.8032C1.37281 13.9081 1.43174 14.0504 1.43174 14.1988Z" fill="white"/>
<path d="M20.3653 23.9021C20.3653 24.2479 20.2628 24.586 20.0707 24.8735C19.8786 25.1611 19.6056 25.3852 19.2863 25.5174C18.9669 25.6497 18.6155 25.6842 18.2765 25.6166C17.9375 25.5491 17.6261 25.3824 17.3818 25.1377C17.1375 24.8931 16.9712 24.5814 16.904 24.2422C16.8367 23.9029 16.8716 23.5514 17.0041 23.2319C17.1366 22.9125 17.3608 22.6396 17.6484 22.4477C17.9359 22.2558 18.2739 22.1535 18.6196 22.1538C19.0827 22.1543 19.5267 22.3387 19.8541 22.6665C20.1814 22.9943 20.3653 23.4387 20.3653 23.9021Z" fill="#2CEEF0"/>
<path d="M10.1848 14.662C10.1861 15.0077 10.0848 15.346 9.89377 15.6341C9.70274 15.9222 9.43054 16.1471 9.11167 16.2803C8.79279 16.4135 8.44158 16.449 8.10252 16.3824C7.76345 16.3157 7.45178 16.1499 7.20698 15.9059C6.96219 15.6618 6.79527 15.3506 6.72738 15.0117C6.65949 14.6727 6.69368 14.3211 6.82562 14.0016C6.95755 13.6821 7.18131 13.4089 7.46853 13.2167C7.75575 13.0245 8.09353 12.9219 8.43908 12.9219C8.90094 12.9219 9.34399 13.105 9.67119 13.4311C9.99839 13.7573 10.1831 14.1999 10.1848 14.662Z" fill="#2CEEF0"/>
<path d="M11.0635 24.9198C11.0635 25.3694 10.9302 25.809 10.6805 26.1828C10.4309 26.5567 10.076 26.8481 9.6608 27.0201C9.24561 27.1922 8.78874 27.2372 8.34798 27.1495C7.90721 27.0618 7.50234 26.8453 7.18456 26.5273C6.86679 26.2094 6.65038 25.8043 6.5627 25.3633C6.47503 24.9223 6.52003 24.4652 6.69201 24.0498C6.86399 23.6344 7.15522 23.2794 7.52888 23.0296C7.90255 22.7798 8.34186 22.6464 8.79126 22.6464C9.39389 22.6464 9.97184 22.8859 10.398 23.3123C10.8241 23.7386 11.0635 24.3169 11.0635 24.9198Z" fill="#2CEEF0"/>
<path d="M17.3802 19.8628C17.3802 20.3466 17.2368 20.8196 16.9682 21.2218C16.6995 21.6241 16.3176 21.9377 15.8709 22.1228C15.4241 22.308 14.9325 22.3564 14.4582 22.262C13.984 22.1676 13.5483 21.9347 13.2064 21.5925C12.8644 21.2504 12.6316 20.8145 12.5372 20.34C12.4429 19.8655 12.4913 19.3736 12.6763 18.9266C12.8614 18.4796 13.1748 18.0976 13.5769 17.8288C13.9789 17.56 14.4517 17.4165 14.9352 17.4165C15.5837 17.4165 16.2056 17.6743 16.6641 18.133C17.1226 18.5918 17.3802 19.214 17.3802 19.8628Z" fill="#2CEEF0"/>
<path d="M15.5335 22.601C15.15 22.683 14.7535 22.6836 14.3697 22.6026C13.986 22.5216 13.6235 22.361 13.3057 22.131C12.9879 21.901 12.7219 21.6069 12.5249 21.2675C12.3279 20.9282 12.2043 20.5513 12.1621 20.1612C12.1199 19.771 12.16 19.3764 12.2799 19.0027C12.3998 18.6291 12.5967 18.2848 12.8579 17.9921C13.1192 17.6995 13.4389 17.4649 13.7965 17.3037C14.1541 17.1424 14.5415 17.0581 14.9337 17.0561C15.0361 17.0564 15.1384 17.0624 15.2401 17.0741V4.50195C12.4265 6.57847 10.2294 9.38047 8.88317 12.6088C9.16522 12.6696 9.43173 12.7878 9.66606 12.9562C9.9004 13.1246 10.0975 13.3395 10.2452 13.5875C10.3928 13.8355 10.4878 14.1112 10.5241 14.3976C10.5605 14.684 10.5375 14.9747 10.4565 15.2518C10.3755 15.5289 10.2384 15.7862 10.0536 16.0079C9.86875 16.2295 9.64025 16.4107 9.38234 16.5401C9.12444 16.6694 8.84265 16.7442 8.55456 16.7598C8.26648 16.7753 7.97828 16.7313 7.70795 16.6305C7.51248 17.7396 7.41431 18.8637 7.41455 19.99C7.41528 20.8583 7.47355 21.7257 7.58896 22.5863C7.93614 22.4078 8.31874 22.3091 8.70889 22.2973C9.09903 22.2856 9.48688 22.3611 9.84416 22.5183C10.2014 22.6756 10.5191 22.9106 10.7741 23.2063C11.0291 23.502 11.2149 23.8509 11.318 24.2275C11.4211 24.6042 11.4389 24.9991 11.3701 25.3835C11.3013 25.7679 11.1476 26.1321 10.9202 26.4496C10.6929 26.767 10.3976 27.0297 10.0559 27.2185C9.71422 27.4073 9.33473 27.5174 8.94511 27.5408C12.8049 36.5691 23.3216 41.7372 33.315 38.0368V29.2303C26.5392 34.1424 17.2841 30.2219 15.5335 22.601Z" fill="white"/>
<path d="M60.7534 11.0112H66.3999C69.0522 11.0112 70.9709 11.4077 72.1558 12.2007C73.3407 12.9937 73.9331 14.2469 73.9331 15.9604C73.9331 17.1453 73.6004 18.1252 72.9351 18.8999C72.2788 19.6655 71.3172 20.1623 70.0503 20.3901V20.5269C73.0854 21.0464 74.603 22.6414 74.603 25.312C74.603 27.0985 73.9969 28.493 72.7847 29.4956C71.5815 30.4982 69.8953 30.9995 67.7261 30.9995H60.7534V11.0112ZM63.0776 19.5698H66.9058C68.5464 19.5698 69.7267 19.3146 70.4468 18.8042C71.1668 18.2847 71.5269 17.4142 71.5269 16.1929C71.5269 15.0718 71.1258 14.2651 70.3237 13.7729C69.5216 13.2716 68.2456 13.021 66.4956 13.021H63.0776V19.5698ZM63.0776 21.5386V29.0171H67.2476C68.8608 29.0171 70.0731 28.7072 70.8843 28.0874C71.7046 27.4585 72.1147 26.4787 72.1147 25.1479C72.1147 23.9084 71.6955 22.9969 70.8569 22.4136C70.0275 21.8302 68.7606 21.5386 67.0562 21.5386H63.0776Z" fill="#2CEEF0"/>
<path d="M85.6297 30.9995V11.0112H87.9539V28.894H96.7722V30.9995H85.6297ZM124.246 20.978C124.246 24.1772 123.435 26.6929 121.813 28.5249C120.199 30.3569 117.953 31.2729 115.072 31.2729C112.128 31.2729 109.854 30.3752 108.25 28.5796C106.655 26.7749 105.857 24.2319 105.857 20.9507C105.857 17.6968 106.66 15.1766 108.264 13.3901C109.868 11.5946 112.147 10.6968 115.1 10.6968C117.971 10.6968 120.213 11.6082 121.826 13.4312C123.44 15.2541 124.246 17.7697 124.246 20.978ZM108.318 20.978C108.318 23.6851 108.893 25.7404 110.041 27.144C111.199 28.5386 112.876 29.2358 115.072 29.2358C117.287 29.2358 118.96 28.5386 120.09 27.144C121.22 25.7495 121.785 23.6942 121.785 20.978C121.785 18.2892 121.22 16.2521 120.09 14.8667C118.969 13.4722 117.305 12.7749 115.1 12.7749C112.885 12.7749 111.199 13.4767 110.041 14.8804C108.893 16.2749 108.318 18.3075 108.318 20.978ZM143.995 12.8022C141.799 12.8022 140.063 13.536 138.786 15.0034C137.52 16.4618 136.886 18.4624 136.886 21.0054C136.886 23.6213 137.497 25.6447 138.718 27.0757C139.949 28.4976 141.699 29.2085 143.968 29.2085C145.363 29.2085 146.953 28.9578 148.74 28.4565V30.4937C147.354 31.0132 145.645 31.2729 143.613 31.2729C140.669 31.2729 138.395 30.3797 136.79 28.5933C135.195 26.8068 134.398 24.2684 134.398 20.978C134.398 18.9181 134.781 17.1134 135.546 15.564C136.321 14.0145 137.433 12.8205 138.882 11.9819C140.34 11.1434 142.054 10.7241 144.023 10.7241C146.119 10.7241 147.951 11.1069 149.519 11.8726L148.535 13.8687C147.021 13.1577 145.508 12.8022 143.995 12.8022ZM174.258 30.9995H171.524L164.237 21.3062L162.145 23.1655V30.9995H159.821V11.0112H162.145V20.9233L171.21 11.0112H173.958L165.919 19.6929L174.258 30.9995ZM208.616 30.9995V11.0112H210.941V30.9995H208.616ZM229.309 30.9995H226.985V13.0757H220.655V11.0112H235.639V13.0757H229.309V30.9995Z" fill="white"/>
<path d="M183.74 11.0112H189.387C192.039 11.0112 193.958 11.4077 195.142 12.2007C196.327 12.9937 196.92 14.2469 196.92 15.9604C196.92 17.1453 196.587 18.1252 195.922 18.8999C195.266 19.6655 194.304 20.1623 193.037 20.3901V20.5269C196.072 21.0464 197.59 22.6414 197.59 25.312C197.59 27.0985 196.984 28.493 195.771 29.4956C194.568 30.4982 192.882 30.9995 190.713 30.9995H183.74V11.0112ZM186.064 19.5698H189.892C191.533 19.5698 192.713 19.3146 193.433 18.8042C194.154 18.2847 194.514 17.4142 194.514 16.1929C194.514 15.0718 194.113 14.2651 193.31 13.7729C192.508 13.2716 191.232 13.021 189.482 13.021H186.064V19.5698ZM186.064 21.5386V29.0171H190.234C191.848 29.0171 193.06 28.7072 193.871 28.0874C194.691 27.4585 195.101 26.4787 195.101 25.1479C195.101 23.9084 194.682 22.9969 193.844 22.4136C193.014 21.8302 191.747 21.5386 190.043 21.5386H186.064Z" fill="#1CE0E2"/>
</svg>
