<svg width="19" height="17" viewBox="0 0 19 17" fill="none" xmlns="http://www.w3.org/2000/svg">
<path fill-rule="evenodd" clip-rule="evenodd" d="M17.4483 8.11396C17.4483 12.2638 14.0841 15.6279 9.9343 15.6279C6.73835 15.6279 4.00842 13.6326 2.92227 10.8198H2.28245C3.39666 13.9706 6.40187 16.2279 9.9343 16.2279C14.4155 16.2279 18.0483 12.5952 18.0483 8.11396C18.0483 3.63274 14.4155 0 9.9343 0C5.84623 0 2.46429 3.02329 1.90234 6.95599H2.50902C3.06589 3.35593 6.17825 0.6 9.9343 0.6C14.0841 0.6 17.4483 3.96411 17.4483 8.11396Z" fill="#FAFAFA"/>
<path d="M9.13381 7.90595H10.5607C11.2174 7.90595 11.7497 7.37358 11.7497 6.71689C11.7497 6.0602 11.2174 5.52783 10.5607 5.52783H9.13381C9.00248 5.52783 8.896 5.63431 8.896 5.76564V7.66813C8.896 7.79947 9.00248 7.90595 9.13381 7.90595ZM9.37162 6.00345H10.5607C10.9547 6.00345 11.2741 6.32287 11.2741 6.71689C11.2741 7.11091 10.9547 7.43032 10.5607 7.43032H9.37162V6.00345Z" fill="#FAFAFA"/>
<path d="M12.4228 7.76719C12.4832 7.6599 12.5342 7.5476 12.5753 7.43154C12.9701 6.31654 12.3863 5.09258 11.2713 4.69775V4.10085C11.2713 3.96952 11.1648 3.86304 11.0335 3.86304H10.0823C9.95092 3.86304 9.84444 3.96952 9.84444 4.10085V4.57647H9.36882V4.10085C9.36882 3.96952 9.26234 3.86304 9.13101 3.86304H8.17976C8.04843 3.86304 7.94195 3.96952 7.94195 4.10085V4.57647H7.46633C7.335 4.57647 7.22852 4.68295 7.22852 4.81428V5.76553C7.22852 5.89686 7.335 6.00334 7.46633 6.00334H7.94195V10.2839H7.46633C7.335 10.2839 7.22852 10.3904 7.22852 10.5218V11.473C7.22852 11.6043 7.335 11.7108 7.46633 11.7108H7.94195V12.1864C7.94195 12.3178 8.04843 12.4242 8.17976 12.4242H9.13101C9.26234 12.4242 9.36882 12.3178 9.36882 12.1864V11.7108H9.84444V12.1864C9.84444 12.3178 9.95092 12.4242 10.0823 12.4242H11.0335C11.1648 12.4242 11.2713 12.3178 11.2713 12.1864V11.7108C12.0011 11.7104 12.6803 11.3381 13.0733 10.7233C13.71 9.72735 13.4187 8.40384 12.4228 7.76719ZM11.2713 11.2352H11.0335C10.9022 11.2352 10.7957 11.3417 10.7957 11.473V11.9486H10.3201V11.473C10.3201 11.3417 10.2136 11.2352 10.0823 11.2352H9.13101C8.99968 11.2352 8.8932 11.3417 8.8932 11.473V11.9486H8.41757V11.473C8.41757 11.3417 8.31109 11.2352 8.17976 11.2352H7.70414V10.7596H8.17976C8.31109 10.7596 8.41757 10.6531 8.41757 10.5218V5.76553C8.41757 5.6342 8.31109 5.52772 8.17976 5.52772H7.70414V5.05209H8.17976C8.31109 5.05209 8.41757 4.94561 8.41757 4.81428V4.33866H8.8932V4.81428C8.8932 4.94561 8.99968 5.05209 9.13101 5.05209H10.0823C10.2136 5.05209 10.3201 4.94561 10.3201 4.81428V4.33866H10.7957V4.87374C10.7957 4.98215 10.8691 5.07683 10.974 5.10394C11.1827 5.15777 11.3789 5.25159 11.5518 5.38018C12.2894 5.9289 12.4426 6.97174 11.8939 7.7094C11.8846 7.72191 11.8766 7.73532 11.8699 7.74941C11.8137 7.86811 11.8644 8.0099 11.9831 8.06611C12.5641 8.34138 12.9347 8.92663 12.935 9.56956C12.9356 10.4889 12.1907 11.2347 11.2713 11.2352Z" fill="#FAFAFA"/>
<path d="M11.2741 8.38159H9.13381C9.00248 8.38159 8.896 8.48807 8.896 8.6194V10.5219C8.896 10.6532 9.00248 10.7597 9.13381 10.7597H11.2741C11.9308 10.7597 12.4632 10.2273 12.4632 9.57065C12.4632 8.91396 11.9308 8.38159 11.2741 8.38159ZM11.2741 10.2841H9.37162V8.85721H11.2741C11.6681 8.85721 11.9875 9.17662 11.9875 9.57065C11.9875 9.96467 11.6681 10.2841 11.2741 10.2841Z" fill="#FAFAFA"/>
<path d="M1.04688 6.18164L1.81963 7.72716L3.36515 6.9544" stroke="#FAFAFA" stroke-width="0.6"/>
</svg>
