<svg width="14" height="20" viewBox="-3 -4 16 14" fill="none" xmlns="http://www.w3.org/2000/svg">
    <path d="M3.83695 6.91602H3.56774C3.27036 6.91602 3.0293 7.16077 3.0293 7.4627C3.0293 7.76464 3.27036 8.00939 3.56774 8.00939H3.83695C4.13433 8.00939 4.37539 7.76464 4.37539 7.4627C4.37539 7.16077 4.13433 6.91602 3.83695 6.91602Z" fill="#1CE0E2"/>
    <path d="M9.13916 4.72852H5.72008C5.4227 4.72852 5.18164 4.97327 5.18164 5.2752C5.18164 5.57714 5.4227 5.82189 5.72008 5.82189H9.13916C9.43654 5.82189 9.6776 5.57714 9.6776 5.2752C9.6776 4.97327 9.43654 4.72852 9.13916 4.72852Z" fill="#1CE0E2"/>
    <path d="M8.27554 12.9018H3.02875C2.43496 12.9018 1.95188 12.4113 1.95188 11.8084V2.18674C1.95188 1.58386 2.43496 1.09337 3.02875 1.09337H9.64856C10.2423 1.09337 10.7254 1.58386 10.7254 2.18674V5.27551C10.7254 5.57745 10.9665 5.8222 11.2639 5.8222C11.5613 5.8222 11.8023 5.57745 11.8023 5.27551V2.18674C11.8023 0.980972 10.8361 0 9.64856 0H3.02875C1.84117 0 0.875 0.980972 0.875 2.18674V11.8084C0.875 13.0142 1.84117 13.9951 3.02875 13.9951H8.27554C8.57292 13.9951 8.81398 13.7504 8.81398 13.4485C8.81398 13.1465 8.57292 12.9018 8.27554 12.9018Z" fill="#1CE0E2"/>
    <path d="M3.83695 9.10156H3.56774C3.27036 9.10156 3.0293 9.34631 3.0293 9.64825C3.0293 9.95018 3.27036 10.1949 3.56774 10.1949H3.83695C4.13433 10.1949 4.37539 9.95018 4.37539 9.64825C4.37539 9.34631 4.13433 9.10156 3.83695 9.10156Z" fill="#1CE0E2"/>
    <path d="M9.13916 2.54297H5.72008C5.4227 2.54297 5.18164 2.78772 5.18164 3.08965C5.18164 3.39159 5.4227 3.63634 5.72008 3.63634H9.13916C9.43654 3.63634 9.6776 3.39159 9.6776 3.08965C9.6776 2.78772 9.43654 2.54297 9.13916 2.54297Z" fill="#1CE0E2"/>
    <path d="M11.6079 9.83953H11.1145C10.8732 9.83953 10.6769 9.63665 10.6769 9.38728V9.31339C10.6769 9.06864 10.865 8.88408 11.1145 8.88408H11.5811C11.7182 8.88408 11.86 8.97729 11.86 9.13326C11.86 9.4352 12.1011 9.67995 12.3985 9.67995C12.6958 9.67995 12.9369 9.4352 12.9369 9.13326C12.9369 8.47809 12.4604 7.93137 11.8326 7.81425V7.4627C11.8326 7.16077 11.5915 6.91602 11.2941 6.91602C10.9967 6.91602 10.7557 7.16077 10.7557 7.4627V7.83303C10.4892 7.89688 10.2451 8.03177 10.0471 8.22847C9.75879 8.51491 9.6 8.90024 9.6 9.31339V9.38728C9.6 10.2395 10.2794 10.9329 11.1145 10.9329H11.6079C11.8508 10.9329 12.0485 11.1327 12.0485 11.3783V11.638C12.0485 11.8756 11.8591 12.0549 11.6079 12.0549H10.806C10.6542 12.0549 10.5398 11.9445 10.5398 11.7982C10.5398 11.4963 10.2987 11.2515 10.0013 11.2515C9.70395 11.2515 9.46289 11.4963 9.46289 11.7982C9.46289 12.1644 9.60423 12.5061 9.86088 12.7605C10.1012 12.9988 10.4174 13.1347 10.7557 13.147V13.4489C10.7557 13.7508 10.9967 13.9956 11.2941 13.9956C11.5915 13.9956 11.8326 13.7508 11.8326 13.4489V13.1323C12.5732 13.0272 13.1253 12.4087 13.1253 11.638V11.3783C13.1253 10.5298 12.4446 9.83953 11.6079 9.83953Z" fill="#1CE0E2"/>
    <path d="M8.06229 10.1949C8.35967 10.1949 8.60072 9.95018 8.60072 9.64825C8.60072 9.34631 8.35967 9.10156 8.06229 9.10156H5.72008C5.4227 9.10156 5.18164 9.34631 5.18164 9.64825C5.18164 9.95018 5.4227 10.1949 5.72008 10.1949H8.06229Z" fill="#1CE0E2"/>
    <path d="M3.83695 4.72852H3.56774C3.27036 4.72852 3.0293 4.97327 3.0293 5.2752C3.0293 5.57714 3.27036 5.82189 3.56774 5.82189H3.83695C4.13433 5.82189 4.37539 5.57714 4.37539 5.2752C4.37539 4.97327 4.13433 4.72852 3.83695 4.72852Z" fill="#1CE0E2"/>
    <path d="M9.6776 7.4627C9.6776 7.16077 9.43654 6.91602 9.13916 6.91602H5.72008C5.4227 6.91602 5.18164 7.16077 5.18164 7.4627C5.18164 7.76464 5.4227 8.00939 5.72008 8.00939H9.13916C9.43654 8.00939 9.6776 7.76464 9.6776 7.4627Z" fill="#1CE0E2"/>
    <path d="M3.83695 2.54297H3.56774C3.27036 2.54297 3.0293 2.78772 3.0293 3.08965C3.0293 3.39159 3.27036 3.63634 3.56774 3.63634H3.83695C4.13433 3.63634 4.37539 3.39159 4.37539 3.08965C4.37539 2.78772 4.13433 2.54297 3.83695 2.54297Z" fill="#1CE0E2"/>
    </svg>
