<svg width="18" height="15" viewBox="0 0 18 15" fill="none" xmlns="http://www.w3.org/2000/svg">
<path d="M8.99956 11.7468C10.4845 11.7468 11.9879 11.2858 11.9879 10.4045V8.49721L13.3941 7.90061V11.4112C13.3941 11.5965 13.5516 11.7468 13.7457 11.7468C13.9398 11.7468 14.0973 11.5965 14.0973 11.4112V7.38425C14.0973 7.23545 13.9998 7.12209 13.882 7.07484L9.14233 5.0641C9.05142 5.02551 8.94767 5.02551 8.85676 5.0641L4.11062 7.07759C3.9837 7.13146 3.90186 7.25163 3.90186 7.38425C3.90186 7.51684 3.98366 7.63704 4.11062 7.69091L6.01125 8.49721V10.4045C6.01125 11.2858 7.51455 11.7468 8.99956 11.7468ZM11.2847 10.4045C11.2847 10.6052 10.5073 11.0757 8.99956 11.0757C7.49187 11.0757 6.71438 10.6052 6.71438 10.4045V8.79554L8.85676 9.70443C8.90221 9.7237 8.9509 9.73333 8.99956 9.73333C9.04822 9.73333 9.09691 9.7237 9.14237 9.70443L11.2847 8.79551V10.4045ZM5.11901 7.38428L8.99956 5.73798L12.8801 7.38428L8.99956 9.03052L5.11901 7.38428Z" fill="white"/>
<path d="M17.6486 0H0.351566C0.157396 0 0 0.15024 0 0.335582V14.43C0 14.6153 0.157396 14.7656 0.351566 14.7656H7.41804C7.61221 14.7656 7.76961 14.6153 7.76961 14.43C7.76961 14.2447 7.61221 14.0945 7.41804 14.0945H0.703132V3.69141H17.297V14.0945H6.0984C5.90426 14.0945 5.74683 14.2447 5.74683 14.43C5.74683 14.6153 5.90426 14.7656 6.0984 14.7656H17.6486C17.8427 14.7656 18.0002 14.6153 18.0002 14.43V0.335582C18.0002 0.15024 17.8427 0 17.6486 0ZM17.297 3.02024H0.703132V0.671165H10.7579V1.34233C10.7579 1.52764 10.9153 1.67791 11.1095 1.67791C11.3036 1.67791 11.4611 1.52764 11.4611 1.34233V0.671165H12.8673V1.34233C12.8673 1.52764 13.0247 1.67791 13.2189 1.67791C13.413 1.67791 13.5704 1.52764 13.5704 1.34233V0.671165H14.9767V1.34233C14.9767 1.52764 15.1341 1.67791 15.3283 1.67791C15.5224 1.67791 15.6798 1.52764 15.6798 1.34233V0.671165H17.297V3.02024Z" fill="white"/>
</svg>
