<svg width="59" height="39" viewBox="0 0 59 39" fill="none" xmlns="http://www.w3.org/2000/svg">
<path d="M55.4998 0H3.00006C1.34995 0 0 1.34995 0 2.99995V35.9999C0 37.6498 1.34995 39 3.00006 39H55.4999C57.1498 39 58.5 37.65 58.5 35.9999V2.99995C58.4999 1.34995 57.1499 0 55.4998 0ZM54.3741 2.24985L30.9757 19.8C30.555 20.1202 29.9092 20.3205 29.2498 20.3175C28.5906 20.3205 27.9449 20.1202 27.5241 19.8L4.12573 2.24985H54.3741ZM41.8754 20.958L54.6254 36.7081C54.6382 36.7239 54.6539 36.7359 54.6675 36.7502H3.83243C3.84591 36.7352 3.86168 36.7239 3.87448 36.7081L16.6245 20.958C17.0151 20.4751 16.9411 19.767 16.4572 19.3755C15.9742 18.9848 15.2662 19.0589 14.8754 19.5419L2.24996 35.1382V3.65613L26.1748 21.5998C27.0741 22.2696 28.1683 22.5644 29.2497 22.5674C30.3297 22.5651 31.4247 22.2703 32.3246 21.5998L56.2495 3.65613V35.138L43.6244 19.5419C43.2336 19.059 42.5248 18.9847 42.0426 19.3755C41.5588 19.7661 41.4845 20.4751 41.8754 20.958Z" fill="#1CE0E2"/>
</svg>
