<svg width="19" height="15" viewBox="0 0 19 15" fill="none" xmlns="http://www.w3.org/2000/svg">
<path d="M18.2499 6.56274H0.741866C0.332133 6.56274 0 6.93 0 7.38306C0 7.83612 0.332133 8.20337 0.741866 8.20337H18.2499C18.6596 8.20337 18.9918 7.83612 18.9918 7.38306C18.9918 6.93 18.6596 6.56274 18.2499 6.56274Z" fill="white"/>
<path d="M18.2499 0H0.741866C0.332133 0 0 0.367254 0 0.820312C0 1.27337 0.332133 1.64062 0.741866 1.64062H18.2499C18.6596 1.64062 18.9918 1.27337 18.9918 0.820312C18.9918 0.367254 18.6596 0 18.2499 0Z" fill="white"/>
<path d="M18.2499 13.1248H0.741866C0.332133 13.1248 0 13.492 0 13.9451C0 14.3981 0.332133 14.7654 0.741866 14.7654H18.2499C18.6596 14.7654 18.9918 14.3981 18.9918 13.9451C18.9918 13.492 18.6596 13.1248 18.2499 13.1248Z" fill="white"/>
</svg>
