<svg width="21" height="21" viewBox="0 0 21 21" fill="none" xmlns="http://www.w3.org/2000/svg">
<path d="M2.95312 0C1.32476 0 0 1.32476 0 2.95312C0 4.58149 1.32476 5.90625 2.95312 5.90625C4.58149 5.90625 5.90625 4.58149 5.90625 2.95312C5.90625 1.32476 4.58149 0 2.95312 0ZM2.95312 4.59375C2.04848 4.59375 1.3125 3.85777 1.3125 2.95312C1.3125 2.04848 2.04848 1.3125 2.95312 1.3125C3.85777 1.3125 4.59375 2.04848 4.59375 2.95312C4.59375 3.85777 3.85777 4.59375 2.95312 4.59375Z" fill="#1CE0E2"/>
<path d="M2.95312 7.54688C1.32476 7.54688 0 8.87164 0 10.5C0 12.1284 1.32476 13.4531 2.95312 13.4531C4.58149 13.4531 5.90625 12.1284 5.90625 10.5C5.90625 8.87164 4.58149 7.54688 2.95312 7.54688ZM2.95312 12.1406C2.04848 12.1406 1.3125 11.4046 1.3125 10.5C1.3125 9.59536 2.04848 8.85938 2.95312 8.85938C3.85777 8.85938 4.59375 9.59536 4.59375 10.5C4.59375 11.4046 3.85777 12.1406 2.95312 12.1406Z" fill="#1CE0E2"/>
<path d="M2.95312 15.0938C1.32476 15.0938 0 16.4185 0 18.0469C0 19.6752 1.32476 21 2.95312 21C4.58149 21 5.90625 19.6752 5.90625 18.0469C5.90625 16.4185 4.58149 15.0938 2.95312 15.0938ZM2.95312 19.6875C2.04848 19.6875 1.3125 18.9515 1.3125 18.0469C1.3125 17.1422 2.04848 16.4062 2.95312 16.4062C3.85777 16.4062 4.59375 17.1422 4.59375 18.0469C4.59375 18.9515 3.85777 19.6875 2.95312 19.6875Z" fill="#1CE0E2"/>
<path d="M10.1719 5.90625H18.0469C19.6752 5.90625 21 4.58149 21 2.95312C21 1.32476 19.6752 0 18.0469 0H10.1719C8.54351 0 7.21875 1.32476 7.21875 2.95312C7.21875 4.58149 8.54351 5.90625 10.1719 5.90625ZM10.1719 1.3125H18.0469C18.9515 1.3125 19.6875 2.04848 19.6875 2.95312C19.6875 3.85777 18.9515 4.59375 18.0469 4.59375H10.1719C9.26723 4.59375 8.53125 3.85777 8.53125 2.95312C8.53125 2.04848 9.26723 1.3125 10.1719 1.3125Z" fill="#1CE0E2"/>
<path d="M18.0469 7.54688H10.1719C8.54351 7.54688 7.21875 8.87164 7.21875 10.5C7.21875 12.1284 8.54351 13.4531 10.1719 13.4531H18.0469C19.6752 13.4531 21 12.1284 21 10.5C21 8.87164 19.6752 7.54688 18.0469 7.54688ZM18.0469 12.1406H10.1719C9.26723 12.1406 8.53125 11.4046 8.53125 10.5C8.53125 9.59536 9.26723 8.85938 10.1719 8.85938H18.0469C18.9515 8.85938 19.6875 9.59536 19.6875 10.5C19.6875 11.4046 18.9515 12.1406 18.0469 12.1406Z" fill="#1CE0E2"/>
<path d="M18.0469 15.0938H10.1719C8.54351 15.0938 7.21875 16.4185 7.21875 18.0469C7.21875 19.6752 8.54351 21 10.1719 21H18.0469C19.6752 21 21 19.6752 21 18.0469C21 16.4185 19.6752 15.0938 18.0469 15.0938ZM18.0469 19.6875H10.1719C9.26723 19.6875 8.53125 18.9515 8.53125 18.0469C8.53125 17.1422 9.26723 16.4062 10.1719 16.4062H18.0469C18.9515 16.4062 19.6875 17.1422 19.6875 18.0469C19.6875 18.9515 18.9515 19.6875 18.0469 19.6875Z" fill="#1CE0E2"/>
</svg>
