<svg width="12" height="15" viewBox="0 0 12 15" fill="none" xmlns="http://www.w3.org/2000/svg">
<path d="M6.00008 11.3333C6.73341 11.3333 7.33341 10.7333 7.33341 10C7.33341 9.26666 6.73341 8.66666 6.00008 8.66666C5.26675 8.66666 4.66675 9.26666 4.66675 10C4.66675 10.7333 5.26675 11.3333 6.00008 11.3333ZM10.0001 5.33333H9.33341V4C9.33341 2.16 7.84008 0.666664 6.00008 0.666664C4.16008 0.666664 2.66675 2.16 2.66675 4V5.33333H2.00008C1.26675 5.33333 0.666748 5.93333 0.666748 6.66666V13.3333C0.666748 14.0667 1.26675 14.6667 2.00008 14.6667H10.0001C10.7334 14.6667 11.3334 14.0667 11.3334 13.3333V6.66666C11.3334 5.93333 10.7334 5.33333 10.0001 5.33333ZM3.93341 4C3.93341 2.86 4.86008 1.93333 6.00008 1.93333C7.14008 1.93333 8.06675 2.86 8.06675 4V5.33333H3.93341V4ZM10.0001 13.3333H2.00008V6.66666H10.0001V13.3333Z" fill="#EBEBEB"/>
</svg>
