<svg width="280" height="237" viewBox="0 0 280 237" fill="none" xmlns="http://www.w3.org/2000/svg">
<path d="M161.633 77.9668C153.536 77.9668 145.621 80.3679 138.888 84.8664C132.156 89.365 126.908 95.7589 123.81 103.24C120.711 110.721 119.9 118.952 121.48 126.894C123.06 134.835 126.959 142.13 132.684 147.856C138.41 153.581 145.705 157.48 153.646 159.06C161.588 160.64 169.82 159.829 177.3 156.73C184.781 153.632 191.175 148.384 195.674 141.652C200.172 134.919 202.573 127.004 202.573 118.907C202.573 108.049 198.26 97.6356 190.582 89.9579C182.905 82.2801 172.491 77.9668 161.633 77.9668Z" fill="#21285C"/>
<path d="M231.573 23.9265C215.841 12.3424 197.48 4.84559 178.136 2.10885C158.792 -0.627896 139.071 1.48107 120.743 8.24648V62.2465C167.243 28.5565 231.623 62.5165 231.623 118.916V213.916C295.613 166.636 295.553 71.1265 231.573 23.9265Z" fill="#21285C"/>
<path d="M119.743 91.8159C119.743 93.5089 119.241 95.1638 118.3 96.5715C117.36 97.9792 116.023 99.0764 114.459 99.7242C112.895 100.372 111.174 100.542 109.513 100.211C107.853 99.8811 106.327 99.0658 105.13 97.8687C103.933 96.6715 103.118 95.1463 102.788 93.4858C102.457 91.8253 102.627 90.1042 103.275 88.5401C103.923 86.9759 105.02 85.639 106.427 84.6985C107.835 83.7579 109.49 83.2559 111.183 83.2559C113.453 83.2559 115.631 84.1577 117.236 85.763C118.841 87.3683 119.743 89.5456 119.743 91.8159Z" fill="#57C6D0"/>
<path d="M38.1736 123.307C38.1756 125.062 37.6568 126.779 36.6829 128.239C35.709 129.699 34.3238 130.838 32.7026 131.51C31.0814 132.183 29.2971 132.359 27.5756 132.017C25.854 131.675 24.2726 130.83 23.0316 129.589C21.7905 128.348 20.9455 126.767 20.6035 125.045C20.2616 123.324 20.4381 121.539 21.1107 119.918C21.7833 118.297 22.9217 116.912 24.3819 115.938C25.8421 114.964 27.5584 114.445 29.3136 114.447C31.6626 114.45 33.9146 115.384 35.5756 117.045C37.2366 118.706 38.1709 120.958 38.1736 123.307Z" fill="#21285C"/>
<path d="M32.2737 96.9462C32.2715 98.711 31.6575 100.42 30.5365 101.783C29.4154 103.146 27.8565 104.079 26.1253 104.421C24.394 104.764 22.5976 104.496 21.0418 103.663C19.486 102.83 18.2671 101.483 17.5927 99.8523C16.9183 98.2214 16.8302 96.4071 17.3432 94.7185C17.8562 93.0299 18.9388 91.5714 20.4064 90.5913C21.8741 89.6113 23.6361 89.1703 25.3924 89.3435C27.1487 89.5167 28.7907 90.2933 30.0387 91.5412C30.7479 92.2512 31.3104 93.0939 31.6939 94.0213C32.0774 94.9487 32.2744 95.9426 32.2737 96.9462Z" fill="#21285C"/>
<path d="M6.96352 83.387C6.96352 84.0654 6.76235 84.7286 6.38546 85.2926C6.00856 85.8567 5.47287 86.2963 4.84612 86.5559C4.21937 86.8155 3.52971 86.8835 2.86435 86.7511C2.199 86.6188 1.58784 86.2921 1.10814 85.8124C0.628449 85.3327 0.30177 84.7215 0.169423 84.0562C0.0370754 83.3908 0.105005 82.7012 0.364613 82.0744C0.624222 81.4477 1.06386 80.912 1.62792 80.5351C2.19198 80.1582 2.85512 79.957 3.53351 79.957C4.44321 79.957 5.31565 80.3184 5.9589 80.9617C6.60215 81.6049 6.96352 82.4773 6.96352 83.387Z" fill="#21285C"/>
<path d="M123.124 142.886C123.124 145.007 122.495 147.08 121.316 148.843C120.138 150.606 118.463 151.98 116.504 152.791C114.544 153.602 112.388 153.814 110.309 153.399C108.229 152.985 106.319 151.963 104.82 150.463C103.321 148.962 102.301 147.051 101.888 144.971C101.476 142.891 101.69 140.735 102.502 138.777C103.315 136.818 104.691 135.145 106.455 133.968C108.219 132.791 110.293 132.164 112.414 132.166C115.255 132.169 117.979 133.299 119.987 135.309C121.996 137.319 123.124 140.045 123.124 142.886Z" fill="#7CD1E5"/>
<path d="M60.6738 86.2267C60.6817 88.3466 60.0604 90.4211 58.8884 92.1877C57.7164 93.9542 56.0465 95.3331 54.0902 96.1499C52.1339 96.9666 49.9792 97.1844 47.8991 96.7757C45.8189 96.367 43.9068 95.3501 42.405 93.8539C40.9031 92.3577 39.8791 90.4494 39.4626 88.3708C39.0461 86.2922 39.2559 84.1367 40.0653 82.1774C40.8747 80.2181 42.2474 78.543 44.0096 77.3644C45.7717 76.1858 47.8439 75.5567 49.9638 75.5566C52.7974 75.5566 55.5155 76.6795 57.5228 78.6794C59.5302 80.6793 60.6632 83.3931 60.6738 86.2267Z" fill="#7CD1E5"/>
<path d="M66.0538 149.126C66.0538 151.883 65.2363 154.578 63.7045 156.87C62.1728 159.163 59.9957 160.949 57.4485 162.004C54.9013 163.06 52.0984 163.336 49.3943 162.798C46.6902 162.26 44.2063 160.932 42.2568 158.983C40.3072 157.033 38.9796 154.549 38.4417 151.845C37.9038 149.141 38.1799 146.338 39.235 143.791C40.29 141.244 42.0768 139.067 44.3692 137.535C46.6616 136.003 49.3568 135.186 52.1138 135.186C55.811 135.186 59.3567 136.654 61.9709 139.268C64.5852 141.883 66.0538 145.428 66.0538 149.126Z" fill="#7CD1E5"/>
<path d="M104.813 118.117C104.813 121.084 103.934 123.984 102.286 126.451C100.637 128.917 98.2946 130.84 95.5537 131.975C92.8128 133.111 89.7969 133.408 86.8871 132.829C83.9774 132.25 81.3047 130.822 79.2069 128.724C77.1091 126.626 75.6805 123.953 75.1017 121.044C74.5229 118.134 74.82 115.118 75.9553 112.377C77.0906 109.636 79.0132 107.293 81.4799 105.645C83.9467 103.997 86.8468 103.117 89.8135 103.117C93.7917 103.117 97.6071 104.698 100.42 107.511C103.233 110.324 104.813 114.139 104.813 118.117Z" fill="#21285C"/>
<path d="M93.4838 134.906C91.1308 135.409 88.6984 135.412 86.344 134.916C83.9896 134.419 81.7656 133.434 79.816 132.024C77.8663 130.614 76.2345 128.81 75.0259 126.729C73.8174 124.649 73.0592 122.338 72.8002 119.945C72.5413 117.553 72.7875 115.133 73.5228 112.842C74.2582 110.551 75.4663 108.44 77.0691 106.645C78.6719 104.851 80.6335 103.412 82.8272 102.424C85.0209 101.435 87.3977 100.918 89.8038 100.906C90.4321 100.907 91.0597 100.944 91.6838 101.016V23.9258C74.4224 36.6586 60.9428 53.84 52.6838 73.6358C54.4142 74.0082 56.0492 74.7333 57.4869 75.7657C58.9246 76.7982 60.134 78.1159 61.0397 79.6366C61.9455 81.1573 62.5281 82.8483 62.7511 84.6042C62.9742 86.3601 62.833 88.1431 62.3363 89.8419C61.8396 91.5408 60.998 93.1191 59.8642 94.4782C58.7304 95.8374 57.3286 96.9482 55.7463 97.7415C54.164 98.5347 52.4352 98.9934 50.6678 99.0887C48.9004 99.1841 47.1323 98.9142 45.4738 98.2958C44.2747 105.097 43.6723 111.99 43.6738 118.896C43.6783 124.22 44.0358 129.539 44.7438 134.816C46.8738 133.721 49.2211 133.116 51.6146 133.044C54.0081 132.972 56.3876 133.435 58.5795 134.399C60.7714 135.363 62.7206 136.805 64.2848 138.618C65.849 140.431 66.989 142.57 67.6215 144.88C68.254 147.189 68.3631 149.611 67.941 151.968C67.5188 154.325 66.576 156.558 65.1812 158.505C63.7864 160.451 61.9749 162.062 59.8786 163.22C57.7823 164.377 55.4542 165.052 53.0638 165.196C76.7438 220.556 141.264 252.246 202.574 229.556V175.556C161.004 205.676 104.224 181.636 93.4838 134.906Z" fill="#21285C"/>
</svg>
