<svg width="86" height="59" viewBox="0 0 86 59" fill="none" xmlns="http://www.w3.org/2000/svg">
<rect width="85.6452" height="59" rx="4" fill="#041F60"/>
<path d="M68.4506 29.7351C68.4506 38.3936 61.4573 45.4702 52.7156 45.4702C44.0571 45.4702 36.9805 38.3936 36.9805 29.7351C36.9805 21.0766 43.9738 14 52.6323 14C61.4573 14 68.4506 21.0766 68.4506 29.7351Z" fill="#FFB600"/>
<path d="M52.7156 14C61.374 14 68.4506 21.0766 68.4506 29.7351C68.4506 38.3936 61.4573 45.4702 52.7156 45.4702C44.0571 45.4702 36.9805 38.3936 36.9805 29.7351" fill="#F7981D"/>
<path d="M52.7148 14C61.3733 14 68.4499 21.0766 68.4499 29.7351C68.4499 38.3936 61.4566 45.4702 52.7148 45.4702" fill="#FF8500"/>
<path d="M31.5686 14C22.9934 14.0833 16 21.0766 16 29.7351C16 38.3936 22.9934 45.4702 31.7351 45.4702C35.8146 45.4702 39.4778 43.8884 42.3084 41.3907C42.8912 40.8912 43.3907 40.3084 43.8902 39.7256H40.6433C40.2271 39.2261 39.8108 38.6433 39.4778 38.1438H45.0558C45.3888 37.6443 45.7218 37.0615 45.9716 36.4787H38.562C38.3122 35.9792 38.0624 35.3964 37.8959 34.8136H46.5544C47.0539 33.2318 47.3869 31.5667 47.3869 29.8184C47.3869 28.6528 47.2204 27.5705 47.0539 26.4882H37.3964C37.4797 25.9054 37.6462 25.4059 37.8127 24.8231H46.4711C46.3046 24.2403 46.0549 23.6575 45.8051 23.158H38.4787C38.7285 22.5752 39.0615 22.0757 39.3945 21.4929H44.9726C44.6395 20.9101 44.2233 20.3273 43.7237 19.8278H40.6433C41.1428 19.245 41.6424 18.7455 42.2252 18.246C39.4778 15.6651 35.7313 14.1665 31.6518 14.1665C31.6518 14 31.6518 14 31.5686 14Z" fill="#FF5050"/>
<path d="M16 29.7366C16 38.395 22.9934 45.4717 31.7351 45.4717C35.8146 45.4717 39.4778 43.8898 42.3084 41.3922C42.8912 40.8927 43.3907 40.3099 43.8902 39.7271H40.6433C40.2271 39.2276 39.8108 38.6448 39.4778 38.1453H45.0558C45.3888 37.6457 45.7218 37.0629 45.9716 36.4802H38.562C38.3122 35.9806 38.0624 35.3979 37.8959 34.8151H46.5544C47.0539 33.2332 47.3869 31.5682 47.3869 29.8198C47.3869 28.6542 47.2204 27.5719 47.0539 26.4896H37.3964C37.4797 25.9068 37.6462 25.4073 37.8127 24.8245H46.4711C46.3046 24.2418 46.0549 23.659 45.8051 23.1595H38.4787C38.7285 22.5767 39.0615 22.0771 39.3945 21.4944H44.9726C44.6395 20.9116 44.2233 20.3288 43.7237 19.8293H40.6433C41.1428 19.2465 41.6424 18.747 42.2252 18.2474C39.4778 15.6665 35.7313 14.168 31.6518 14.168H31.5686" fill="#E52836"/>
<path d="M31.7349 45.4717C35.8143 45.4717 39.4775 43.8898 42.3082 41.3922C42.891 40.8927 43.3905 40.3099 43.89 39.7271H40.6431C40.2268 39.2276 39.8106 38.6448 39.4775 38.1453H45.0556C45.3886 37.6457 45.7216 37.0629 45.9714 36.4802H38.5617C38.312 35.9806 38.0622 35.3979 37.8957 34.8151H46.5542C47.0537 33.2332 47.3867 31.5682 47.3867 29.8198C47.3867 28.6542 47.2202 27.5719 47.0537 26.4896H37.3962C37.4794 25.9068 37.6459 25.4073 37.8124 24.8245H46.4709C46.3044 24.2418 46.0546 23.659 45.8049 23.1595H38.4785C38.7282 22.5767 39.0613 22.0771 39.3943 21.4944H44.9723C44.6393 20.9116 44.223 20.3288 43.7235 19.8293H40.6431C41.1426 19.2465 41.6422 18.747 42.2249 18.2474C39.4775 15.6665 35.7311 14.168 31.6516 14.168H31.5684" fill="#CB2026"/>
<path d="M37.3128 33.7307L37.5626 32.3154C37.4793 32.3154 37.3128 32.3986 37.1463 32.3986C36.5635 32.3986 36.4803 32.0656 36.5635 31.8991L37.0631 28.9852H37.9789L38.2286 27.4034H37.3961L37.5626 26.4043H35.8975C35.8975 26.4043 34.8984 31.8991 34.8984 32.5651C34.8984 33.5642 35.4812 33.9805 36.2305 33.9805C36.73 33.9805 37.1463 33.8139 37.3128 33.7307Z" fill="white"/>
<path d="M37.8945 31.0675C37.8945 33.3987 39.4764 33.9814 40.8084 33.9814C42.0573 33.9814 42.5568 33.7317 42.5568 33.7317L42.8898 32.1498C42.8898 32.1498 41.974 32.5661 41.1415 32.5661C39.3099 32.5661 39.6429 31.234 39.6429 31.234H43.0563C43.0563 31.234 43.3061 30.1517 43.3061 29.7355C43.3061 28.6532 42.7233 27.3211 40.8917 27.3211C39.1433 27.1546 37.8945 28.9862 37.8945 31.0675ZM40.8084 28.6532C41.7242 28.6532 41.5577 29.7355 41.5577 29.8187H39.7261C39.7261 29.7355 39.8926 28.6532 40.8084 28.6532Z" fill="white"/>
<path d="M51.3817 33.7319L51.7147 31.9003C51.7147 31.9003 50.8822 32.3166 50.2994 32.3166C49.1339 32.3166 48.6343 31.4008 48.6343 30.4017C48.6343 28.4036 49.6334 27.3213 50.7989 27.3213C51.6315 27.3213 52.2975 27.8209 52.2975 27.8209L52.5473 26.0725C52.5473 26.0725 51.5482 25.6562 50.6324 25.6562C48.7176 25.6562 46.8027 27.3213 46.8027 30.485C46.8027 32.5664 47.8018 33.9817 49.7999 33.9817C50.4659 33.9817 51.3817 33.7319 51.3817 33.7319Z" fill="white"/>
<path d="M28.1539 27.1562C26.9883 27.1562 26.1558 27.4893 26.1558 27.4893L25.906 28.9046C25.906 28.9046 26.6553 28.5716 27.7376 28.5716C28.3204 28.5716 28.8199 28.6548 28.8199 29.1544C28.8199 29.4874 28.7367 29.5706 28.7367 29.5706C28.7367 29.5706 28.2372 29.5706 27.9874 29.5706C26.5721 29.5706 24.9902 30.1534 24.9902 32.0683C24.9902 33.5668 25.9893 33.8999 26.5721 33.8999C27.7376 33.8999 28.2372 33.1506 28.3204 33.1506L28.2372 33.8166H29.7357L30.4018 29.2376C30.4018 27.2395 28.7367 27.1562 28.1539 27.1562ZM28.4869 30.9027C28.4869 31.1525 28.3204 32.4845 27.3214 32.4845C26.8218 32.4845 26.6553 32.0683 26.6553 31.8185C26.6553 31.4022 26.9051 30.8194 28.1539 30.8194C28.4037 30.9027 28.4869 30.9027 28.4869 30.9027Z" fill="white"/>
<path d="M31.9852 33.8972C32.4014 33.8972 34.4828 33.9804 34.4828 31.7326C34.4828 29.6512 32.4847 30.0675 32.4847 29.2349C32.4847 28.8187 32.8177 28.6521 33.4005 28.6521C33.6503 28.6521 34.5661 28.7354 34.5661 28.7354L34.8158 27.2368C34.8158 27.2368 34.233 27.0703 33.234 27.0703C31.9852 27.0703 30.7363 27.5698 30.7363 29.2349C30.7363 31.1498 32.8177 30.9833 32.8177 31.7326C32.8177 32.2321 32.2349 32.3153 31.8187 32.3153C31.0694 32.3153 30.3201 32.0656 30.3201 32.0656L30.0703 33.5642C30.1536 33.7307 30.5698 33.8972 31.9852 33.8972Z" fill="white"/>
<path d="M65.2025 25.8242L64.8695 28.0721C64.8695 28.0721 64.2035 27.2395 63.2877 27.2395C61.7891 27.2395 60.457 29.0711 60.457 31.2358C60.457 32.5678 61.1231 33.9832 62.5384 33.9832C63.5374 33.9832 64.1202 33.3171 64.1202 33.3171L64.037 33.8999H65.7021L66.9509 25.9075L65.2025 25.8242ZM64.4532 30.2367C64.4532 31.1525 64.037 32.3181 63.1212 32.3181C62.5384 32.3181 62.2054 31.8185 62.2054 30.986C62.2054 29.6539 62.7882 28.8214 63.5374 28.8214C64.1202 28.8214 64.4532 29.2377 64.4532 30.2367Z" fill="white"/>
<path d="M19.0799 33.8166L20.0789 27.8223L20.2454 33.8166H21.411L23.5756 27.8223L22.6598 33.8166H24.4082L25.7402 25.8242H22.9928L21.3278 30.7362L21.2445 25.8242H18.8301L17.498 33.8166H19.0799Z" fill="white"/>
<path d="M44.8882 33.8142C45.3878 31.0668 45.471 28.8189 46.6366 29.2352C46.8031 28.1529 47.0529 27.7366 47.2194 27.3203C47.2194 27.3203 47.1361 27.3203 46.8863 27.3203C46.1371 27.3203 45.5543 28.3194 45.5543 28.3194L45.7208 27.4036H44.1389L43.0566 33.8974H44.8882V33.8142Z" fill="white"/>
<path d="M55.2125 27.1562C54.0469 27.1562 53.2144 27.4893 53.2144 27.4893L52.9646 28.9046C52.9646 28.9046 53.7139 28.5716 54.7962 28.5716C55.379 28.5716 55.8785 28.6548 55.8785 29.1544C55.8785 29.4874 55.7953 29.5706 55.7953 29.5706C55.7953 29.5706 55.2958 29.5706 55.046 29.5706C53.6307 29.5706 52.0488 30.1534 52.0488 32.0683C52.0488 33.5668 53.0479 33.8999 53.6307 33.8999C54.7962 33.8999 55.2958 33.1506 55.379 33.1506L55.2958 33.8166H56.7943L57.4604 29.2376C57.5436 27.2395 55.7953 27.1562 55.2125 27.1562ZM55.6288 30.9027C55.6288 31.1525 55.4623 32.4845 54.4632 32.4845C53.9637 32.4845 53.7972 32.0683 53.7972 31.8185C53.7972 31.4022 54.0469 30.8194 55.2958 30.8194C55.5455 30.9027 55.5455 30.9027 55.6288 30.9027Z" fill="white"/>
<path d="M58.8746 33.8142C59.3741 31.0668 59.4573 28.8189 60.6229 29.2352C60.7894 28.1529 61.0392 27.7366 61.2057 27.3203C61.2057 27.3203 61.1224 27.3203 60.8727 27.3203C60.1234 27.3203 59.5406 28.3194 59.5406 28.3194L59.7071 27.4036H58.1253L57.043 33.8974H58.8746V33.8142Z" fill="white"/>
<path d="M34.7324 32.5651C34.7324 33.5642 35.3152 33.9805 36.0645 33.9805C36.6473 33.9805 37.1468 33.8139 37.3133 33.7307L37.5631 32.3154C37.4798 32.3154 37.3133 32.3986 37.1468 32.3986C36.564 32.3986 36.4808 32.0656 36.564 31.8991L37.0635 28.9852H37.9793L38.2291 27.4034H37.3966L37.5631 26.4043" fill="#DCE5E5"/>
<path d="M38.7285 31.0675C38.7285 33.3987 39.4778 33.9814 40.8099 33.9814C42.0587 33.9814 42.5582 33.7317 42.5582 33.7317L42.8912 32.1498C42.8912 32.1498 41.9754 32.5661 41.1429 32.5661C39.3113 32.5661 39.6443 31.234 39.6443 31.234H43.0578C43.0578 31.234 43.3075 30.1517 43.3075 29.7355C43.3075 28.6532 42.7247 27.3211 40.8931 27.3211C39.1448 27.1546 38.7285 28.9862 38.7285 31.0675ZM40.8099 28.6532C41.7257 28.6532 41.8922 29.7355 41.8922 29.8187H39.7276C39.7276 29.7355 39.8941 28.6532 40.8099 28.6532Z" fill="#DCE5E5"/>
<path d="M51.3832 33.7319L51.7162 31.9003C51.7162 31.9003 50.8836 32.3166 50.3009 32.3166C49.1353 32.3166 48.6358 31.4008 48.6358 30.4017C48.6358 28.4036 49.6348 27.3213 50.8004 27.3213C51.6329 27.3213 52.299 27.8209 52.299 27.8209L52.5487 26.0725C52.5487 26.0725 51.5497 25.6562 50.6339 25.6562C48.719 25.6562 47.6367 27.3213 47.6367 30.485C47.6367 32.5664 47.8032 33.9817 49.8013 33.9817C50.4674 33.9817 51.3832 33.7319 51.3832 33.7319Z" fill="#DCE5E5"/>
<path d="M25.906 28.9854C25.906 28.9854 26.6553 28.6524 27.7376 28.6524C28.3204 28.6524 28.8199 28.7356 28.8199 29.2352C28.8199 29.5682 28.7367 29.6514 28.7367 29.6514C28.7367 29.6514 28.2372 29.6514 27.9874 29.6514C26.5721 29.6514 24.9902 30.2342 24.9902 32.1491C24.9902 33.6476 25.9893 33.9807 26.5721 33.9807C27.7376 33.9807 28.2372 33.2314 28.3204 33.2314L28.2372 33.8974H29.7357L30.4018 29.3184C30.4018 27.4036 28.7367 27.3203 28.0706 27.3203L25.906 28.9854ZM29.3195 30.9003C29.3195 31.15 28.3204 32.4821 27.3214 32.4821C26.8218 32.4821 26.6553 32.0658 26.6553 31.816C26.6553 31.3998 26.9051 30.817 28.1539 30.817C28.4037 30.9002 29.3195 30.9003 29.3195 30.9003Z" fill="#DCE5E5"/>
<path d="M30.1523 33.7307C30.1523 33.7307 30.6519 33.8972 32.0672 33.8972C32.4835 33.8972 34.5648 33.9804 34.5648 31.7326C34.5648 29.6512 32.5667 30.0675 32.5667 29.2349C32.5667 28.8187 32.8997 28.6521 33.4825 28.6521C33.7323 28.6521 34.6481 28.7354 34.6481 28.7354L34.8978 27.2368C34.8978 27.2368 34.3151 27.0703 33.316 27.0703C32.0672 27.0703 31.6509 27.5698 31.6509 29.2349C31.6509 31.1498 32.8997 30.9833 32.8997 31.7326C32.8997 32.2321 32.317 32.3153 31.9007 32.3153" fill="#DCE5E5"/>
<path d="M64.8692 28.0709C64.8692 28.0709 64.2032 27.2383 63.2874 27.2383C61.7888 27.2383 61.2892 29.0699 61.2892 31.2345C61.2892 32.5666 61.1227 33.9819 62.5381 33.9819C63.5371 33.9819 64.1199 33.3159 64.1199 33.3159L64.0366 33.8987H65.7017L66.9506 25.9062L64.8692 28.0709ZM64.7859 30.2355C64.7859 31.1513 64.0366 32.3168 63.1208 32.3168C62.5381 32.3168 62.205 31.8173 62.205 30.9848C62.205 29.6527 62.7878 28.8202 63.5371 28.8202C64.1199 28.8202 64.7859 29.2364 64.7859 30.2355Z" fill="#DCE5E5"/>
<path d="M19.0799 33.8166L20.0789 27.8223L20.2454 33.8166H21.411L23.5756 27.8223L22.6598 33.8166H24.4082L25.7402 25.8242H23.6589L21.3278 30.7362L21.2445 25.8242H20.3287L17.498 33.8166H19.0799Z" fill="#DCE5E5"/>
<path d="M43.1406 33.8142H44.889C45.3885 31.0668 45.4718 28.8189 46.6373 29.2352C46.8038 28.1529 47.0536 27.7366 47.2201 27.3203C47.2201 27.3203 47.1368 27.3203 46.8871 27.3203C46.1378 27.3203 45.555 28.3194 45.555 28.3194L45.7215 27.4036" fill="#DCE5E5"/>
<path d="M52.9646 28.9854C52.9646 28.9854 53.7139 28.6524 54.7962 28.6524C55.379 28.6524 55.8785 28.7356 55.8785 29.2352C55.8785 29.5682 55.7953 29.6514 55.7953 29.6514C55.7953 29.6514 55.2958 29.6514 55.046 29.6514C53.6307 29.6514 52.0488 30.2342 52.0488 32.1491C52.0488 33.6476 53.0479 33.9807 53.6307 33.9807C54.7962 33.9807 55.2958 33.2314 55.379 33.2314L55.2958 33.8974H56.7943L57.4604 29.3184C57.4604 27.4036 55.7953 27.3203 55.1292 27.3203L52.9646 28.9854ZM56.3781 30.9003C56.3781 31.15 55.379 32.4821 54.38 32.4821C53.8804 32.4821 53.7139 32.0658 53.7139 31.816C53.7139 31.3998 53.9637 30.817 55.2125 30.817C55.5455 30.9002 56.3781 30.9003 56.3781 30.9003Z" fill="#DCE5E5"/>
<path d="M57.127 33.8142H58.8753C59.3748 31.0668 59.4581 28.8189 60.6236 29.2352C60.7901 28.1529 61.0399 27.7366 61.2064 27.3203C61.2064 27.3203 61.1232 27.3203 60.8734 27.3203C60.1241 27.3203 59.5413 28.3194 59.5413 28.3194L59.7078 27.4036" fill="#DCE5E5"/>
</svg>
