<svg width="45" height="31" viewBox="0 0 45 31" fill="none" xmlns="http://www.w3.org/2000/svg">
    <rect width="45" height="31" rx="4" fill="#041F60"/>
    <path d="M39.9996 16.0008C39.9996 21.6135 35.4663 26.2008 29.7996 26.2008C24.1869 26.2008 19.5996 21.6135 19.5996 16.0008C19.5996 10.3881 24.1329 5.80078 29.7456 5.80078C35.4663 5.80078 39.9996 10.3881 39.9996 16.0008Z" fill="#FFB600"/>
    <path d="M29.7996 5.80078C35.4123 5.80078 39.9996 10.3881 39.9996 16.0008C39.9996 21.6135 35.4663 26.2008 29.7996 26.2008C24.1869 26.2008 19.5996 21.6135 19.5996 16.0008" fill="#F7981D"/>
    <path d="M29.8008 5.80078C35.4135 5.80078 40.0008 10.3881 40.0008 16.0008C40.0008 21.6135 35.4675 26.2008 29.8008 26.2008" fill="#FF8500"/>
    <path d="M16.0921 5.80078C10.5333 5.85475 6 10.3881 6 16.0008C6 21.6135 10.5333 26.2008 16.2 26.2008C18.8444 26.2008 21.219 25.1754 23.054 23.5563C23.4317 23.2325 23.7556 22.8547 24.0794 22.477H21.9746C21.7048 22.1532 21.4349 21.7754 21.219 21.4516H24.8349C25.0508 21.1278 25.2667 20.75 25.4286 20.3722H20.6254C20.4635 20.0484 20.3016 19.6706 20.1936 19.2928H25.8063C26.1302 18.2674 26.346 17.1881 26.346 16.0548C26.346 15.2992 26.2381 14.5976 26.1302 13.896H19.8698C19.9238 13.5182 20.0317 13.1944 20.1397 12.8167H25.7524C25.6444 12.4389 25.4825 12.0611 25.3206 11.7373H20.5714C20.7333 11.3595 20.9492 11.0357 21.1651 10.6579H24.781C24.5651 10.2801 24.2952 9.90237 23.9714 9.57856H21.9746C22.2984 9.20078 22.6222 8.87697 23 8.55316C21.219 6.88015 18.7905 5.90872 16.146 5.90872C16.146 5.80078 16.146 5.80078 16.0921 5.80078Z" fill="#FF5050"/>
    <path d="M6 16.0022C6 21.6149 10.5333 26.2022 16.2 26.2022C18.8444 26.2022 21.219 25.1768 23.054 23.5578C23.4317 23.234 23.7556 22.8562 24.0794 22.4784H21.9746C21.7048 22.1546 21.4349 21.7768 21.219 21.453H24.8349C25.0508 21.1292 25.2667 20.7514 25.4286 20.3736H20.6254C20.4635 20.0498 20.3016 19.6721 20.1936 19.2943H25.8063C26.1302 18.2689 26.346 17.1895 26.346 16.0562C26.346 15.3006 26.2381 14.599 26.1302 13.8975H19.8698C19.9238 13.5197 20.0317 13.1959 20.1397 12.8181H25.7524C25.6444 12.4403 25.4825 12.0625 25.3206 11.7387H20.5714C20.7333 11.361 20.9492 11.0371 21.1651 10.6594H24.781C24.5651 10.2816 24.2952 9.90381 23.9714 9.58H21.9746C22.2984 9.20222 22.6222 8.87841 23 8.5546C21.219 6.88159 18.7905 5.91016 16.146 5.91016H16.0921" fill="#E52836"/>
    <path d="M16.1997 26.2022C18.8442 26.2022 21.2188 25.1768 23.0537 23.5578C23.4315 23.234 23.7553 22.8562 24.0791 22.4784H21.9743C21.7045 22.1546 21.4347 21.7768 21.2188 21.453H24.8347C25.0505 21.1292 25.2664 20.7514 25.4283 20.3736H20.6251C20.4632 20.0498 20.3013 19.6721 20.1934 19.2943H25.8061C26.1299 18.2689 26.3458 17.1895 26.3458 16.0562C26.3458 15.3006 26.2378 14.599 26.1299 13.8975H19.8696C19.9235 13.5197 20.0315 13.1959 20.1394 12.8181H25.7521C25.6442 12.4403 25.4823 12.0625 25.3204 11.7387H20.5712C20.7331 11.361 20.9489 11.0371 21.1648 10.6594H24.7807C24.5648 10.2816 24.295 9.90381 23.9712 9.58H21.9743C22.2981 9.20222 22.622 8.87841 22.9997 8.5546C21.2188 6.88159 18.7902 5.91016 16.1458 5.91016H16.0918" fill="#CB2026"/>
    <path d="M19.8151 18.591L19.977 17.6735C19.923 17.6735 19.8151 17.7275 19.7071 17.7275C19.3294 17.7275 19.2754 17.5116 19.3294 17.4037L19.6532 15.5148H20.2468L20.4087 14.4894H19.869L19.977 13.8418H18.8976C18.8976 13.8418 18.25 17.4037 18.25 17.8354C18.25 18.4831 18.6278 18.7529 19.1135 18.7529C19.4373 18.7529 19.7071 18.645 19.8151 18.591Z" fill="white"/>
    <path d="M20.1934 16.8631C20.1934 18.3742 21.2188 18.752 22.0822 18.752C22.8918 18.752 23.2156 18.5901 23.2156 18.5901L23.4315 17.5647C23.4315 17.5647 22.8378 17.8346 22.2981 17.8346C21.1108 17.8346 21.3267 16.9711 21.3267 16.9711H23.5394C23.5394 16.9711 23.7013 16.2695 23.7013 15.9996C23.7013 15.2981 23.3235 14.4346 22.1362 14.4346C21.0029 14.3266 20.1934 15.5139 20.1934 16.8631ZM22.0822 15.2981C22.6759 15.2981 22.568 15.9996 22.568 16.0536H21.3807C21.3807 15.9996 21.4886 15.2981 22.0822 15.2981Z" fill="white"/>
    <path d="M28.935 18.5904L29.1509 17.4031C29.1509 17.4031 28.6112 17.6729 28.2335 17.6729C27.4779 17.6729 27.1541 17.0793 27.1541 16.4317C27.1541 15.1364 27.8017 14.4348 28.5573 14.4348C29.097 14.4348 29.5287 14.7586 29.5287 14.7586L29.6906 13.6253C29.6906 13.6253 29.043 13.3555 28.4493 13.3555C27.2081 13.3555 25.9668 14.4348 25.9668 16.4856C25.9668 17.8348 26.6144 18.7523 27.9097 18.7523C28.3414 18.7523 28.935 18.5904 28.935 18.5904Z" fill="white"/>
    <path d="M13.8789 14.3262C13.1234 14.3262 12.5837 14.542 12.5837 14.542L12.4218 15.4595C12.4218 15.4595 12.9075 15.2436 13.6091 15.2436C13.9869 15.2436 14.3107 15.2976 14.3107 15.6214C14.3107 15.8373 14.2567 15.8913 14.2567 15.8913C14.2567 15.8913 13.9329 15.8913 13.771 15.8913C12.8535 15.8913 11.8281 16.269 11.8281 17.5103C11.8281 18.4817 12.4757 18.6976 12.8535 18.6976C13.6091 18.6976 13.9329 18.2119 13.9869 18.2119L13.9329 18.6436H14.9043L15.3361 15.6754C15.3361 14.3801 14.2567 14.3262 13.8789 14.3262ZM14.0948 16.7547C14.0948 16.9167 13.9869 17.7801 13.3392 17.7801C13.0154 17.7801 12.9075 17.5103 12.9075 17.3484C12.9075 17.0786 13.0694 16.7008 13.8789 16.7008C14.0408 16.7547 14.0948 16.7547 14.0948 16.7547Z" fill="white"/>
    <path d="M16.3604 18.6988C16.6303 18.6988 17.9795 18.7528 17.9795 17.2957C17.9795 15.9465 16.6842 16.2163 16.6842 15.6766C16.6842 15.4068 16.9001 15.2988 17.2779 15.2988C17.4398 15.2988 18.0334 15.3528 18.0334 15.3528L18.1953 14.3814C18.1953 14.3814 17.8176 14.2734 17.1699 14.2734C16.3604 14.2734 15.5509 14.5972 15.5509 15.6766C15.5509 16.9179 16.9001 16.8099 16.9001 17.2957C16.9001 17.6195 16.5223 17.6734 16.2525 17.6734C15.7668 17.6734 15.281 17.5115 15.281 17.5115L15.1191 18.483C15.1731 18.5909 15.443 18.6988 16.3604 18.6988Z" fill="white"/>
    <path d="M37.8945 13.4629L37.6787 14.92C37.6787 14.92 37.2469 14.3804 36.6533 14.3804C35.6819 14.3804 34.8184 15.5677 34.8184 16.9708C34.8184 17.8343 35.2501 18.7518 36.1676 18.7518C36.8152 18.7518 37.193 18.32 37.193 18.32L37.139 18.6978H38.2184L39.0279 13.5169L37.8945 13.4629ZM37.4088 16.3232C37.4088 16.9169 37.139 17.6724 36.5453 17.6724C36.1676 17.6724 35.9517 17.3486 35.9517 16.8089C35.9517 15.9454 36.3295 15.4057 36.8152 15.4057C37.193 15.4057 37.4088 15.6756 37.4088 16.3232Z" fill="white"/>
    <path d="M7.9961 18.6438L8.64372 14.7581L8.75166 18.6438H9.50721L10.9104 14.7581L10.3167 18.6438H11.4501L12.3136 13.4629H10.5326L9.45324 16.647L9.39927 13.4629H7.8342L6.9707 18.6438H7.9961Z" fill="white"/>
    <path d="M24.7264 18.6451C25.0502 16.8641 25.1041 15.407 25.8597 15.6768C25.9676 14.9752 26.1295 14.7054 26.2375 14.4355C26.2375 14.4355 26.1835 14.4355 26.0216 14.4355C25.5359 14.4355 25.1581 15.0832 25.1581 15.0832L25.266 14.4895H24.2406L23.5391 18.699H24.7264V18.6451Z" fill="white"/>
    <path d="M31.418 14.3262C30.6624 14.3262 30.1227 14.542 30.1227 14.542L29.9608 15.4595C29.9608 15.4595 30.4466 15.2436 31.1481 15.2436C31.5259 15.2436 31.8497 15.2976 31.8497 15.6214C31.8497 15.8373 31.7958 15.8913 31.7958 15.8913C31.7958 15.8913 31.4719 15.8913 31.31 15.8913C30.3926 15.8913 29.3672 16.269 29.3672 17.5103C29.3672 18.4817 30.0148 18.6976 30.3926 18.6976C31.1481 18.6976 31.4719 18.2119 31.5259 18.2119L31.4719 18.6436H32.4434L32.8751 15.6754C32.9291 14.3801 31.7958 14.3262 31.418 14.3262ZM31.6878 16.7547C31.6878 16.9167 31.5799 17.7801 30.9323 17.7801C30.6085 17.7801 30.5005 17.5103 30.5005 17.3484C30.5005 17.0786 30.6624 16.7008 31.4719 16.7008C31.6339 16.7547 31.6339 16.7547 31.6878 16.7547Z" fill="white"/>
    <path d="M33.7928 18.6451C34.1166 16.8641 34.1705 15.407 34.9261 15.6768C35.034 14.9752 35.1959 14.7054 35.3039 14.4355C35.3039 14.4355 35.2499 14.4355 35.088 14.4355C34.6023 14.4355 34.2245 15.0832 34.2245 15.0832L34.3325 14.4895H33.3071L32.6055 18.699H33.7928V18.6451Z" fill="white"/>
    <path d="M18.1426 17.8354C18.1426 18.4831 18.5204 18.7529 19.0061 18.7529C19.3838 18.7529 19.7077 18.645 19.8156 18.591L19.9775 17.6735C19.9235 17.6735 19.8156 17.7275 19.7077 17.7275C19.3299 17.7275 19.2759 17.5116 19.3299 17.4037L19.6537 15.5148H20.2473L20.4092 14.4894H19.8696L19.9775 13.8418" fill="#DCE5E5"/>
    <path d="M20.7324 16.8631C20.7324 18.3742 21.2181 18.752 22.0816 18.752C22.8912 18.752 23.215 18.5901 23.215 18.5901L23.4308 17.5647C23.4308 17.5647 22.8372 17.8346 22.2975 17.8346C21.1102 17.8346 21.3261 16.9711 21.3261 16.9711H23.5388C23.5388 16.9711 23.7007 16.2695 23.7007 15.9996C23.7007 15.2981 23.3229 14.4346 22.1356 14.4346C21.0023 14.3266 20.7324 15.5139 20.7324 16.8631ZM22.0816 15.2981C22.6753 15.2981 22.7832 15.9996 22.7832 16.0536H21.38C21.38 15.9996 21.488 15.2981 22.0816 15.2981Z" fill="#DCE5E5"/>
    <path d="M28.9364 18.5904L29.1523 17.4031C29.1523 17.4031 28.6126 17.6729 28.2348 17.6729C27.4792 17.6729 27.1554 17.0793 27.1554 16.4317C27.1554 15.1364 27.8031 14.4348 28.5586 14.4348C29.0983 14.4348 29.53 14.7586 29.53 14.7586L29.6919 13.6253C29.6919 13.6253 29.0443 13.3555 28.4507 13.3555C27.2094 13.3555 26.5078 14.4348 26.5078 16.4856C26.5078 17.8348 26.6157 18.7523 27.911 18.7523C28.3427 18.7523 28.9364 18.5904 28.9364 18.5904Z" fill="#DCE5E5"/>
    <path d="M12.4218 15.5149C12.4218 15.5149 12.9075 15.299 13.6091 15.299C13.9869 15.299 14.3107 15.353 14.3107 15.6768C14.3107 15.8927 14.2567 15.9467 14.2567 15.9467C14.2567 15.9467 13.9329 15.9467 13.771 15.9467C12.8535 15.9467 11.8281 16.3244 11.8281 17.5657C11.8281 18.5371 12.4757 18.753 12.8535 18.753C13.6091 18.753 13.9329 18.2673 13.9869 18.2673L13.9329 18.699H14.9043L15.3361 15.7308C15.3361 14.4895 14.2567 14.4355 13.8249 14.4355L12.4218 15.5149ZM14.6345 16.7562C14.6345 16.9181 13.9869 17.7816 13.3392 17.7816C13.0154 17.7816 12.9075 17.5117 12.9075 17.3498C12.9075 17.08 13.0694 16.7022 13.8789 16.7022C14.0408 16.7562 14.6345 16.7562 14.6345 16.7562Z" fill="#DCE5E5"/>
    <path d="M15.1738 18.5909C15.1738 18.5909 15.4976 18.6988 16.4151 18.6988C16.6849 18.6988 18.0341 18.7528 18.0341 17.2957C18.0341 15.9465 16.7389 16.2163 16.7389 15.6766C16.7389 15.4068 16.9548 15.2988 17.3326 15.2988C17.4945 15.2988 18.0881 15.3528 18.0881 15.3528L18.25 14.3814C18.25 14.3814 17.8722 14.2734 17.2246 14.2734C16.4151 14.2734 16.1453 14.5972 16.1453 15.6766C16.1453 16.9179 16.9548 16.8099 16.9548 17.2957C16.9548 17.6195 16.577 17.6734 16.3072 17.6734" fill="#DCE5E5"/>
    <path d="M37.6781 14.9208C37.6781 14.9208 37.2463 14.3811 36.6527 14.3811C35.6812 14.3811 35.3574 15.5684 35.3574 16.9715C35.3574 17.835 35.2495 18.7525 36.167 18.7525C36.8146 18.7525 37.1924 18.3207 37.1924 18.3207L37.1384 18.6985H38.2178L39.0273 13.5176L37.6781 14.9208ZM37.6241 16.3239C37.6241 16.9176 37.1384 17.6731 36.5447 17.6731C36.167 17.6731 35.9511 17.3493 35.9511 16.8096C35.9511 15.9461 36.3289 15.4065 36.8146 15.4065C37.1924 15.4065 37.6241 15.6763 37.6241 16.3239Z" fill="#DCE5E5"/>
    <path d="M7.9961 18.6438L8.64372 14.7581L8.75166 18.6438H9.50721L10.9104 14.7581L10.3167 18.6438H11.4501L12.3136 13.4629H10.9644L9.45324 16.647L9.39927 13.4629H8.80562L6.9707 18.6438H7.9961Z" fill="#DCE5E5"/>
    <path d="M23.5938 18.6451H24.7271C25.0509 16.8641 25.1049 15.407 25.8604 15.6768C25.9684 14.9752 26.1303 14.7054 26.2382 14.4355C26.2382 14.4355 26.1842 14.4355 26.0223 14.4355C25.5366 14.4355 25.1588 15.0832 25.1588 15.0832L25.2668 14.4895" fill="#DCE5E5"/>
    <path d="M29.9608 15.5149C29.9608 15.5149 30.4466 15.299 31.1481 15.299C31.5259 15.299 31.8497 15.353 31.8497 15.6768C31.8497 15.8927 31.7958 15.9467 31.7958 15.9467C31.7958 15.9467 31.472 15.9467 31.31 15.9467C30.3926 15.9467 29.3672 16.3244 29.3672 17.5657C29.3672 18.5371 30.0148 18.753 30.3926 18.753C31.1481 18.753 31.472 18.2673 31.5259 18.2673L31.472 18.699H32.4434L32.8751 15.7308C32.8751 14.4895 31.7958 14.4355 31.364 14.4355L29.9608 15.5149ZM32.1735 16.7562C32.1735 16.9181 31.5259 17.7816 30.8783 17.7816C30.5545 17.7816 30.4466 17.5117 30.4466 17.3498C30.4466 17.08 30.6085 16.7022 31.418 16.7022C31.6339 16.7562 32.1735 16.7562 32.1735 16.7562Z" fill="#DCE5E5"/>
    <path d="M32.6602 18.6451H33.7935C34.1173 16.8641 34.1713 15.407 34.9268 15.6768C35.0348 14.9752 35.1967 14.7054 35.3046 14.4355C35.3046 14.4355 35.2506 14.4355 35.0887 14.4355C34.603 14.4355 34.2252 15.0832 34.2252 15.0832L34.3332 14.4895" fill="#DCE5E5"/>
    </svg>
