<svg width="25" height="28" viewBox="0 0 25 28" fill="none" xmlns="http://www.w3.org/2000/svg">
<path d="M10.8276 4.16479C5.17292 4.16479 0.570312 7.91165 0.570312 12.5172C0.570312 14.85 1.74258 17.0377 3.81309 18.6115C3.15516 19.6343 2.24372 20.7611 1.12714 21.0381C0.773994 21.126 0.538075 21.4601 0.574708 21.822C0.609876 22.1854 0.908804 22.4653 1.27221 22.4814C1.28979 22.4814 1.35426 22.4844 1.4583 22.4844C2.21881 22.4844 5.14215 22.3627 8.45819 20.6424C9.2143 20.7934 10.01 20.8696 10.8276 20.8696C16.4823 20.8696 21.085 17.1227 21.085 12.5172C21.085 7.91165 16.4823 4.16479 10.8276 4.16479ZM10.8276 19.4042C10.0217 19.4042 9.24361 19.3207 8.51241 19.1551C8.34097 19.1156 8.15926 19.1405 8.00247 19.2255C6.58403 19.9904 5.22567 20.43 4.10909 20.682C4.62635 20.0783 5.05862 19.4042 5.42642 18.7815C5.62571 18.4444 5.52313 18.0107 5.19636 17.7968C3.18739 16.4809 2.03564 14.5569 2.03564 12.5172C2.03564 8.71904 5.97885 5.63013 10.8276 5.63013C15.6764 5.63013 19.6196 8.71904 19.6196 12.5172C19.6196 16.3139 15.6764 19.4042 10.8276 19.4042Z" fill="white"/>
<path d="M23.4691 26.15C22.6309 25.9375 21.8206 25.262 21.0572 24.1381C22.9504 22.6727 24.0215 20.655 24.0215 18.5068C24.0215 17.4884 23.7783 16.4847 23.2991 15.5263C23.1174 15.1629 22.6734 15.0208 22.3159 15.1996C21.9539 15.3813 21.8074 15.8209 21.9877 16.1828C22.3642 16.936 22.5562 17.717 22.5562 18.5068C22.5562 20.3649 21.5012 22.1232 19.6622 23.3307C19.3339 23.5446 19.2343 23.9798 19.435 24.3168C19.797 24.9279 20.1706 25.4539 20.5604 25.8965C19.5655 25.6899 18.3741 25.3162 17.1301 24.6465C16.9762 24.563 16.7945 24.5396 16.6245 24.5762C13.6792 25.2239 10.5068 24.4575 8.51979 22.705C8.21354 22.4354 7.75196 22.4661 7.48527 22.7695C7.21711 23.0728 7.24642 23.5358 7.54974 23.804C9.82247 25.8056 13.3495 26.7083 16.6744 26.0621C19.3413 27.4336 21.7371 27.6095 22.7936 27.6095C23.1291 27.6095 23.3284 27.5919 23.3607 27.5889C23.7153 27.5552 23.9952 27.271 24.0215 26.9163C24.0479 26.5603 23.8149 26.2379 23.4691 26.15Z" fill="white"/>
<circle cx="21.7711" cy="2.77939" r="2.38827" fill="#1CE0E2"/>
</svg>
