<svg width="21" height="29" viewBox="0 0 21 29" fill="none" xmlns="http://www.w3.org/2000/svg">
<path d="M1.26391 23.6069C1.33656 23.5571 1.88339 23.153 2.43094 21.9303C3.4365 19.6851 3.64756 16.5222 3.64756 14.2643C3.64756 14.2545 3.64776 14.2448 3.64809 14.235C3.65905 11.2508 5.35274 8.67842 7.77642 7.52422V5.75903C7.77642 4.15718 9.00959 2.854 10.5254 2.854H10.7532C12.269 2.854 13.5022 4.15718 13.5022 5.75903V7.52412C15.934 8.68203 17.631 11.2676 17.631 14.2643C17.631 16.5222 17.8421 19.685 18.8476 21.9303C19.3951 23.1529 19.942 23.5571 20.0147 23.6069C20.3208 23.7564 20.4718 24.1017 20.4014 24.4517C20.3303 24.8051 20.0171 25.0487 19.6752 25.0487H14.3673C14.3377 27.1951 12.6773 28.9318 10.6393 28.9318C8.60127 28.9318 6.94085 27.1951 6.91121 25.0487H1.60334C1.26144 25.0487 0.948275 24.8051 0.877163 24.4517C0.806824 24.1017 0.957737 23.7563 1.26391 23.6069ZM12.0538 5.75903C12.0538 5.00109 11.4703 4.3845 10.7532 4.3845H10.5253C9.80814 4.3845 9.22467 5.00109 9.22467 5.75903V7.02813C9.68175 6.92845 10.1549 6.87599 10.6395 6.87599C11.1239 6.87599 11.5969 6.9284 12.0538 7.02798V5.75903H12.0538ZM10.6393 27.4013C11.8787 27.4013 12.8896 26.3512 12.919 25.0488H8.35955C8.3889 26.3512 9.39986 27.4013 10.6393 27.4013ZM7.72336 23.5182C7.72351 23.5182 18.0249 23.5182 18.0249 23.5182C17.8996 23.3122 17.7721 23.079 17.6454 22.8154C16.6748 20.7963 16.1827 17.9193 16.1827 14.2643C16.1827 11.0343 13.696 8.40648 10.6395 8.40648C7.58302 8.40648 5.09634 11.0343 5.09634 14.2669C5.09634 14.2763 5.0962 14.2857 5.09586 14.295C5.09311 17.9353 4.60103 20.802 3.63318 22.8154C3.50645 23.0791 3.3789 23.3122 3.25368 23.5182H7.72336Z" fill="white"/>
<circle cx="17.9567" cy="2.85317" r="2.46255" fill="#1CE0E2"/>
</svg>
