<svg width="21" height="27" viewBox="0 0 21 27" fill="none" xmlns="http://www.w3.org/2000/svg">
<path d="M1.26342 21.6064C1.33607 21.5566 1.8829 21.1525 2.43046 19.9298C3.43601 17.6846 3.64708 14.5217 3.64708 12.2638C3.64708 12.254 3.64727 12.2443 3.64761 12.2345C3.65857 9.25036 5.35225 6.67793 7.77593 5.52373V3.75854C7.77593 2.15669 9.00911 0.853516 10.5249 0.853516H10.7527C12.2685 0.853516 13.5017 2.15669 13.5017 3.75854V5.52363C15.9335 6.68154 17.6305 9.26712 17.6305 12.2638C17.6305 14.5217 17.8416 17.6845 18.8472 19.9298C19.3947 21.1524 19.9415 21.5566 20.0142 21.6064C20.3204 21.7559 20.4713 22.1012 20.4009 22.4512C20.3298 22.8046 20.0167 23.0483 19.6747 23.0483H14.3668C14.3372 25.1946 12.6768 26.9313 10.6388 26.9313C8.60078 26.9313 6.94036 25.1946 6.91072 23.0483H1.60285C1.26096 23.0483 0.947786 22.8046 0.876675 22.4512C0.806335 22.1012 0.957249 21.7558 1.26342 21.6064ZM12.0533 3.75854C12.0533 3.0006 11.4699 2.38401 10.7527 2.38401H10.5248C9.80765 2.38401 9.22418 3.0006 9.22418 3.75854V5.02764C9.68126 4.92797 10.1544 4.8755 10.639 4.8755C11.1234 4.8755 11.5964 4.92792 12.0533 5.02749V3.75854H12.0533ZM10.6388 25.4008C11.8782 25.4008 12.8891 24.3507 12.9185 23.0483H8.35906C8.38842 24.3507 9.39937 25.4008 10.6388 25.4008ZM7.72287 21.5177C7.72302 21.5177 18.0244 21.5177 18.0244 21.5177C17.8991 21.3117 17.7716 21.0785 17.6449 20.8149C16.6743 18.7958 16.1822 15.9188 16.1822 12.2638C16.1822 9.03379 13.6955 6.406 10.639 6.406C7.58253 6.406 5.09585 9.03379 5.09585 12.2664C5.09585 12.2758 5.09571 12.2852 5.09537 12.2945C5.09262 15.9348 4.60054 18.8015 3.63269 20.8149C3.50596 21.0786 3.37842 21.3117 3.25319 21.5177H7.72287Z" fill="white"/>
</svg>