<svg width="86" height="59" viewBox="0 0 86 59" fill="none" xmlns="http://www.w3.org/2000/svg">
<rect width="85.6452" height="59" rx="4" fill="url(#paint0_linear)"/>
<path d="M62.6649 23.8867H58.7088C58.4761 23.8867 58.2434 24.1194 58.127 24.3521L56.498 34.5914C56.498 34.8241 56.6144 34.9405 56.8471 34.9405H58.9415C59.1742 34.9405 59.2906 34.8241 59.2906 34.5914L59.756 31.6825C59.756 31.4498 59.9887 31.2171 60.3378 31.2171H61.6177C64.2938 31.2171 65.8065 29.9372 66.1555 27.3774C66.3882 26.3302 66.1555 25.3993 65.6901 24.8176C64.992 24.2358 63.9448 23.8867 62.6649 23.8867ZM63.1303 27.7264C62.8976 29.1227 61.8504 29.1227 60.8032 29.1227H60.1051L60.5705 26.4465C60.5705 26.3302 60.6868 26.2138 60.9195 26.2138H61.1523C61.8504 26.2138 62.5485 26.2138 62.8976 26.6792C63.1303 26.7956 63.1303 27.1447 63.1303 27.7264Z" fill="white"/>
<path d="M34.159 23.8867H30.2029C29.9702 23.8867 29.7375 24.1194 29.6212 24.3521L27.9922 34.5914C27.9922 34.8241 28.1085 34.9405 28.3413 34.9405H30.2029C30.4356 34.9405 30.6684 34.7077 30.7847 34.475L31.2501 31.6825C31.2501 31.4498 31.4828 31.2171 31.8319 31.2171H33.1118C35.788 31.2171 37.3006 29.9372 37.6497 27.3774C37.8824 26.3302 37.6497 25.3993 37.1842 24.8176C36.4861 24.2358 35.5553 23.8867 34.159 23.8867ZM34.6244 27.7264C34.3917 29.1227 33.3445 29.1227 32.2973 29.1227H31.7156L32.181 26.4465C32.181 26.3302 32.2973 26.2138 32.53 26.2138H32.7627C33.4609 26.2138 34.159 26.2138 34.5081 26.6792C34.6244 26.7956 34.7408 27.1447 34.6244 27.7264Z" fill="white"/>
<path d="M46.1436 27.6097H44.2819C44.1655 27.6097 43.9328 27.726 43.9328 27.8424L43.8165 28.4241L43.7001 28.1914C43.2347 27.6097 42.4202 27.377 41.4894 27.377C39.395 27.377 37.5333 29.0059 37.1842 31.2167C36.9515 32.3802 37.3006 33.4274 37.8824 34.1256C38.4641 34.8237 39.2786 35.0564 40.3258 35.0564C42.0711 35.0564 43.002 34.0092 43.002 34.0092L42.8856 34.591C42.8856 34.8237 43.002 34.94 43.2347 34.94H44.98C45.2127 34.94 45.4454 34.7073 45.5618 34.4746L46.609 27.9587C46.4926 27.8424 46.2599 27.6097 46.1436 27.6097ZM43.4674 31.333C43.2347 32.3802 42.4202 33.1947 41.2566 33.1947C40.6749 33.1947 40.2095 32.962 39.9767 32.7293C39.744 32.3802 39.6277 31.9148 39.6277 31.333C39.744 30.2858 40.6749 29.4713 41.7221 29.4713C42.3038 29.4713 42.6529 29.7041 43.002 29.9368C43.351 30.2858 43.4674 30.8676 43.4674 31.333Z" fill="white"/>
<path d="M74.5342 27.6097H72.6725C72.5561 27.6097 72.3234 27.726 72.3234 27.8424L72.2071 28.4241L72.0907 28.1914C71.6253 27.6097 70.8108 27.377 69.88 27.377C67.7856 27.377 65.9239 29.0059 65.5748 31.2167C65.3421 32.3802 65.6912 33.4274 66.273 34.1256C66.8547 34.8237 67.6692 35.0564 68.7164 35.0564C70.4618 35.0564 71.3926 34.0092 71.3926 34.0092L71.2762 34.591C71.2762 34.8237 71.3926 34.94 71.6253 34.94H73.3706C73.6033 34.94 73.8361 34.7073 73.9524 34.4746L74.9996 27.9587C74.8833 27.8424 74.7669 27.6097 74.5342 27.6097ZM71.858 31.333C71.6253 32.3802 70.8108 33.1947 69.6473 33.1947C69.0655 33.1947 68.6001 32.962 68.3674 32.7293C68.1347 32.3802 68.0183 31.9148 68.0183 31.333C68.1347 30.2858 69.0655 29.4713 70.1127 29.4713C70.6945 29.4713 71.0435 29.7041 71.3926 29.9368C71.858 30.2858 71.9744 30.8676 71.858 31.333Z" fill="white"/>
<path d="M56.5882 27.4551H54.6102C54.3775 27.4551 54.2611 27.5714 54.1448 27.6878L51.585 31.6439L50.4214 27.9205C50.3051 27.6878 50.1887 27.5714 49.8397 27.5714H47.978C47.7453 27.5714 47.6289 27.8041 47.6289 28.0369L49.7233 34.2037L47.7453 36.9962C47.6289 37.2289 47.7453 37.578 47.978 37.578H49.8397C50.0724 37.578 50.1887 37.4616 50.3051 37.3453L56.7046 28.1532C57.0537 27.8041 56.821 27.4551 56.5882 27.4551Z" fill="white"/>
<path d="M76.7442 24.2354L75.1152 34.7073C75.1152 34.9401 75.2316 35.0564 75.4643 35.0564H77.0933C77.326 35.0564 77.5587 34.8237 77.675 34.591L79.304 24.3517C79.304 24.119 79.1877 24.0027 78.955 24.0027H77.0933C76.9769 23.8863 76.8606 24.0027 76.7442 24.2354Z" fill="white"/>
<path d="M19.3808 20.3963C18.5664 19.4654 17.0537 19 14.9593 19H9.14159C8.79252 19 8.44346 19.3491 8.3271 19.6981L6 34.9406C6 35.2897 6.23271 35.5224 6.46542 35.5224H10.0724L11.0033 29.821V30.0537C11.1196 29.7047 11.4687 29.3556 11.8178 29.3556H13.5631C16.9374 29.3556 19.4972 27.9593 20.3117 24.1196C20.3117 24.0033 20.3117 23.8869 20.3117 23.7706C20.1953 23.7706 20.1953 23.7706 20.3117 23.7706C20.428 22.2579 20.1953 21.3271 19.3808 20.3963Z" fill="white"/>
<path d="M20.1946 23.7695C20.1946 23.8859 20.1946 24.0022 20.1946 24.1186C19.3801 28.0747 16.8203 29.3546 13.446 29.3546H11.7007C11.3516 29.3546 11.0026 29.7036 10.8862 30.0527L9.72266 37.1504C9.72266 37.3831 9.83901 37.6158 10.1881 37.6158H13.2133C13.5624 37.6158 13.9114 37.3831 13.9114 37.034V36.9177L14.4932 33.3107V33.0779C14.4932 32.7289 14.8423 32.4962 15.1913 32.4962H15.6568C18.5656 32.4962 20.8927 31.3326 21.4745 27.842C21.7072 26.4457 21.5909 25.1658 20.8927 24.3513C20.7764 24.1186 20.5437 23.8859 20.1946 23.7695Z" fill="#B6CAE0"/>
<path d="M19.3815 23.4213C19.2651 23.4213 19.1488 23.305 19.0324 23.305C18.9161 23.305 18.7997 23.305 18.6833 23.1886C18.2179 23.0723 17.7525 23.0723 17.1707 23.0723H12.6329C12.5165 23.0723 12.4002 23.0723 12.2838 23.1886C12.0511 23.305 11.9347 23.5377 11.9347 23.7704L11.0039 29.8209V30.0536C11.1203 29.7045 11.4693 29.3554 11.8184 29.3554H13.5637C16.938 29.3554 19.4978 27.9592 20.3123 24.1195C20.3123 24.0031 20.3123 23.8867 20.4287 23.7704C20.196 23.654 20.0796 23.5377 19.8469 23.5377C19.4978 23.4213 19.4978 23.4213 19.3815 23.4213Z" fill="#E9EEF5"/>
<defs>
<linearGradient id="paint0_linear" x1="28.5" y1="12.5" x2="78" y2="59" gradientUnits="userSpaceOnUse">
<stop stop-color="#0391D2"/>
<stop offset="1" stop-color="#1C4B93"/>
</linearGradient>
</defs>
</svg>