<svg width="92" height="92" viewBox="0 0 92 92" fill="none" xmlns="http://www.w3.org/2000/svg">
<circle cx="45.5" cy="46.5" r="37.5" fill="white"/>
<path d="M46 0C20.5952 0 0 20.5949 0 46C0 71.4051 20.5952 92 46 92C71.4048 92 92 71.4051 92 46C92 20.5949 71.4048 0 46 0ZM61.8988 48.4384L38.8988 62.8134C38.4334 63.1039 37.9042 63.25 37.375 63.25C36.8956 63.25 36.4155 63.1307 35.981 62.8892C35.0671 62.3825 34.5 61.4208 34.5 60.375V31.625C34.5 30.5792 35.0671 29.6175 35.981 29.1108C36.8949 28.6012 38.0124 28.6321 38.8988 29.1866L61.8988 43.5616C62.739 44.0881 63.25 45.009 63.25 46C63.25 46.991 62.739 47.9121 61.8988 48.4384Z" fill="#1CE0E2"/>
</svg>
