<svg width="32" height="32" viewBox="0 0 32 32" fill="none" xmlns="http://www.w3.org/2000/svg">
<circle cx="16" cy="16" r="16" fill="#D6D6D6" fill-opacity="0.31"/>
<path d="M13.3598 10.0771C13.1763 10.0771 13.0275 10.2259 13.0275 10.4095V12.071H12.0306C11.847 12.071 11.6982 12.2198 11.6982 12.4033V21.0434C11.6982 21.227 11.847 21.3758 12.0306 21.3758H13.0275V22.705C13.0275 22.8885 13.1763 23.0373 13.3598 23.0373C13.5433 23.0373 13.6921 22.8885 13.6921 22.705V21.3758H14.6891C14.8726 21.3758 15.0214 21.227 15.0214 21.0434V12.4033C15.0214 12.2198 14.8726 12.071 14.6891 12.071H13.6921V10.4095C13.6921 10.2259 13.5433 10.0771 13.3598 10.0771ZM14.3567 12.7356V20.7111H12.3629V12.7356H14.3567Z" fill="#132B66"/>
<path d="M18.0112 8.74902C17.8277 8.74902 17.6789 8.89782 17.6789 9.08134V10.7429H16.6819C16.4984 10.7429 16.3496 10.8917 16.3496 11.0752V19.7153C16.3496 19.8988 16.4984 20.0476 16.6819 20.0476H17.6789V21.3769C17.6789 21.5604 17.8277 21.7092 18.0112 21.7092C18.1947 21.7092 18.3435 21.5604 18.3435 21.3769V20.0476H19.3404C19.5239 20.0476 19.6727 19.8988 19.6727 19.7153V11.0752C19.6727 10.8917 19.5239 10.7429 19.3404 10.7429H18.3435V9.08134C18.3435 8.89782 18.1947 8.74902 18.0112 8.74902ZM19.0081 11.4075V19.383H17.0142V11.4075H19.0081Z" fill="#132B66"/>
<path d="M22.6674 12.7354C22.4839 12.7354 22.3351 12.8841 22.3351 13.0677V14.7292H21.3382C21.1547 14.7292 21.0059 14.878 21.0059 15.0615V23.7016C21.0059 23.8852 21.1547 24.034 21.3382 24.034H22.3351V25.3632C22.3351 25.5467 22.4839 25.6955 22.6674 25.6955C22.8509 25.6955 22.9997 25.5467 22.9997 25.3632V24.034H23.9967C24.1802 24.034 24.329 23.8852 24.329 23.7016V15.0615C24.329 14.878 24.1802 14.7292 23.9967 14.7292H22.9997V13.0677C22.9997 12.8841 22.8509 12.7354 22.6674 12.7354ZM23.6644 15.3938V23.3693H21.6705V15.3938H23.6644Z" fill="#132B66"/>
<path d="M8.70746 5.75781C8.52394 5.75781 8.37515 5.90661 8.37515 6.09012V7.75168H7.37821C7.19469 7.75168 7.0459 7.90048 7.0459 8.084V16.7241C7.0459 16.9076 7.19469 17.0564 7.37821 17.0564H8.37515V18.3857C8.37515 18.5692 8.52394 18.718 8.70746 18.718C8.89098 18.718 9.03977 18.5692 9.03977 18.3857V17.0564H10.0367C10.2202 17.0564 10.369 16.9076 10.369 16.7241V8.084C10.369 7.90048 10.2202 7.75168 10.0367 7.75168H9.03977V6.09012C9.03977 5.90661 8.89098 5.75781 8.70746 5.75781ZM9.70439 8.41631V16.3918H7.71052V8.41631H9.70439Z" fill="#132B66"/>
</svg>
