<svg width="26" height="26" viewBox="0 0 26 26" fill="none" xmlns="http://www.w3.org/2000/svg">
<circle cx="13" cy="13" r="13" fill="#EFEFEF"/>
<path d="M7.58333 19.0667V17.6397L9.74307 15.4802L10.8849 16.8235C10.926 16.872 10.9864 16.9 11.05 16.9C11.0614 16.9 11.0728 16.8991 11.084 16.8972C11.1588 16.8853 11.222 16.8353 11.2506 16.7652L12.3476 14.0833H16.25C16.3247 14.0833 16.3941 14.0448 16.4337 13.9815L16.77 13.4424L18.0017 15.9057L17.2261 15.6834L17.1067 16.1001L18.3564 16.4582C18.376 16.4639 18.3963 16.4668 18.4167 16.4667C18.5132 16.4666 18.598 16.4026 18.6247 16.3098L18.983 15.0601L18.5666 14.9407L18.3616 15.6557L17.04 13.0124L18.3014 10.9939L18.4295 11.7186L18.8559 11.6432L18.6301 10.363C18.6093 10.2452 18.497 10.1665 18.3792 10.1872L17.0989 10.413L17.1743 10.8398L17.976 10.6986L16.8133 12.5576L16.445 11.8209C16.4084 11.7467 16.3328 11.6998 16.25 11.7H13C12.912 11.7 12.8327 11.7532 12.7994 11.8348L12.0568 13.65H11.05C10.9925 13.65 10.9374 13.6729 10.8968 13.7135L9.76885 14.8417L7.58333 12.2705V6.5H7.15V6.93333H6.5V7.36667H7.15V9.96667H6.5V10.4H7.15V13H6.5V13.4333H7.15V16.0333H6.5V16.4667H7.15V19.2833C7.15 19.403 7.24701 19.5 7.36667 19.5H19.5V19.0667H7.58333ZM13.1454 12.1333H16.1161L16.5436 12.9881L16.1298 13.65H12.5248L13.1454 12.1333ZM11.1397 14.0833H11.8796L10.985 16.2717L10.051 15.1727L11.1397 14.0833ZM7.58333 12.9393L9.4614 15.1489L7.58333 17.027V12.9393Z" fill="#1CE0E2"/>
<path d="M15.5974 6.93359H15.1641V7.36693H15.5974V6.93359Z" fill="#1CE0E2"/>
<path d="M18.6352 6.93359H16.0352V7.36693H18.6352V6.93359Z" fill="#1CE0E2"/>
<path d="M18.6307 7.80078H15.1641V8.23411H18.6307V7.80078Z" fill="#1CE0E2"/>
<path d="M18.6307 8.66602H15.1641V9.09935H18.6307V8.66602Z" fill="#1CE0E2"/>
</svg>
