<svg width="18" height="17" viewBox="0 0 18 17" fill="none" xmlns="http://www.w3.org/2000/svg">
<path d="M17.9273 7.27932C17.8686 6.82307 17.6103 6.42548 17.219 6.18992C16.8339 5.95826 16.3706 5.91446 15.941 6.07565C15.6006 6.20243 15.2179 6.02712 15.0629 5.68121C14.8805 5.27192 14.656 4.88061 14.3945 4.51827C14.1684 4.20289 14.2106 3.79044 14.4916 3.55878C14.8398 3.27234 15.0339 2.84973 15.0261 2.39818C15.0167 1.94112 14.8015 1.51851 14.4337 1.23993C13.8358 0.786798 13.1831 0.409568 12.4936 0.119244C12.0671 -0.0599615 11.5913 -0.0364832 11.1898 0.184983C10.7954 0.402561 10.5269 0.782102 10.4526 1.22584C10.3923 1.58741 10.055 1.82612 9.66605 1.78932C9.22935 1.74313 8.7731 1.74313 8.33406 1.78932C7.94355 1.82531 7.60858 1.58741 7.54831 1.22584C7.47475 0.781332 7.20552 0.401754 6.81109 0.184983C6.40961 -0.0357128 5.93377 -0.0599615 5.50727 0.119244C4.81778 0.409604 4.16509 0.786798 3.5672 1.23993C3.19936 1.51855 2.98416 1.94035 2.97477 2.39818C2.96615 2.84973 3.16102 3.27234 3.51008 3.56035C3.79105 3.79121 3.8325 4.20366 3.60634 4.51827C3.34496 4.88141 3.11957 5.27269 2.93798 5.68044C2.78144 6.02792 2.39486 6.20166 2.05127 6.07253C1.63024 5.91446 1.16691 5.95672 0.781093 6.18915C0.389776 6.42551 0.131515 6.8223 0.0728194 7.27778C0.0242487 7.6495 0 8.02908 0 8.40627C0 8.7835 0.0242487 9.16305 0.0727827 9.53323C0.131478 9.98948 0.38974 10.3871 0.781057 10.6226C1.1661 10.8551 1.6302 10.8989 2.05905 10.7369C2.40025 10.6093 2.78295 10.7854 2.93713 11.1313C3.11949 11.5406 3.34408 11.9319 3.6055 12.2943C3.83166 12.6097 3.7894 13.0221 3.50846 13.2538C3.16021 13.5402 2.96612 13.9628 2.97393 14.4144C2.98332 14.8714 3.19855 15.294 3.56635 15.5726C4.16428 16.0258 4.81698 16.403 5.50643 16.6933C5.69583 16.7724 5.89459 16.8123 6.09262 16.8123C6.34072 16.8123 6.58724 16.7505 6.81028 16.6268C7.20472 16.4092 7.47314 16.0297 7.5475 15.5859C7.60777 15.2244 7.94351 14.9825 8.33402 15.0225C8.77072 15.0686 9.22697 15.0686 9.66601 15.0225C10.0542 14.9818 10.3915 15.2244 10.4518 15.5859C10.5253 16.0304 10.7945 16.41 11.189 16.6268C11.5905 16.8475 12.0663 16.8717 12.4928 16.6925C13.1823 16.4022 13.835 16.025 14.4329 15.5718C14.8007 15.2932 15.0159 14.8714 15.0253 14.4136C15.0331 13.962 14.8382 13.5394 14.49 13.2522C14.209 13.0213 14.1676 12.6089 14.3937 12.2943C14.6551 11.9311 14.8805 11.5399 15.0621 11.1321C15.2178 10.7854 15.5997 10.6093 15.941 10.7369L16.0779 10.3706L15.9488 10.74C16.3714 10.8997 16.8331 10.8566 17.2189 10.6234C17.6103 10.387 17.8685 9.99025 17.9272 9.53477C17.9758 9.16305 18 8.78347 18 8.40624C18 8.02908 17.9758 7.6495 17.9273 7.27932ZM17.1517 9.43462C17.1243 9.6522 17.0006 9.8408 16.8152 9.95272C16.6367 10.0607 16.4215 10.0803 16.2204 10.006L16.2133 10.0036C15.4949 9.73518 14.6732 10.0897 14.3476 10.8128C14.1872 11.1728 13.9891 11.5172 13.7583 11.8381C13.2895 12.4923 13.3904 13.3602 13.9946 13.858C14.1566 13.991 14.2466 14.1882 14.2427 14.398C14.238 14.6155 14.1363 14.8167 13.961 14.9489C13.414 15.3629 12.8192 15.7073 12.1892 15.9718C11.9857 16.0571 11.7579 16.047 11.567 15.9413C11.3807 15.8388 11.2594 15.6666 11.2242 15.4569C11.0951 14.6821 10.3946 14.164 9.58465 14.2446C9.1996 14.2845 8.7997 14.2845 8.4162 14.2446C7.6062 14.1554 6.90497 14.6806 6.77584 15.4569C6.74139 15.6666 6.6193 15.8388 6.43305 15.9413C6.24211 16.0477 6.01437 16.0579 5.81088 15.9718C5.18089 15.7073 4.58531 15.363 4.03904 14.9489C3.86453 14.8167 3.76199 14.6155 3.7573 14.3988C3.75337 14.1891 3.84417 13.9918 4.00617 13.858C4.61033 13.3603 4.71129 12.4923 4.24172 11.8381C4.01086 11.5172 3.81284 11.1729 3.65164 10.8121C3.402 10.2541 2.85573 9.91523 2.28444 9.91523C2.11462 9.91523 1.94323 9.94498 1.77654 10.0068C1.58009 10.0812 1.3649 10.0608 1.18565 9.9528C0.999405 9.84087 0.876511 9.65228 0.849144 9.43393C0.804535 9.09584 0.782634 8.74994 0.782634 8.40635C0.782634 8.06279 0.804535 7.71686 0.849144 7.37723C0.876547 7.15965 1.00018 6.97105 1.18565 6.85913C1.36332 6.7519 1.57851 6.73077 1.78512 6.80825C2.50825 7.07825 3.32764 6.72372 3.65242 5.99982C3.81284 5.63983 4.01086 5.29547 4.24172 4.97459C4.71129 4.32032 4.61033 3.45162 4.00536 2.95469C3.84336 2.82163 3.75337 2.62441 3.75726 2.41469C3.76196 2.19711 3.86449 1.99677 4.039 1.86372C4.58527 1.44973 5.18082 1.10537 5.81084 0.840835C6.01433 0.754735 6.24207 0.764934 6.43302 0.870586C6.61926 0.97312 6.74058 1.14528 6.7758 1.35501C6.9057 2.13056 7.61005 2.65259 8.41535 2.56884C8.8004 2.52892 9.2003 2.52892 9.5838 2.56884C10.393 2.65178 11.095 2.13214 11.2242 1.35659C11.2586 1.14686 11.3807 0.974661 11.5669 0.872163C11.7579 0.765741 11.9856 0.755542 12.1891 0.841642C12.8191 1.10618 13.4147 1.4505 13.961 1.86452C14.1355 1.99677 14.238 2.19792 14.2427 2.41469C14.2466 2.62441 14.1558 2.82163 13.9938 2.95546C13.3897 3.4532 13.2887 4.32112 13.7583 4.97536C13.9891 5.29624 14.1872 5.64057 14.3484 6.00136C14.6724 6.72527 15.4917 7.07825 16.2235 6.8059C16.4191 6.73077 16.6351 6.7519 16.8144 6.8599C17.0006 6.97182 17.1235 7.16042 17.1509 7.37877C17.1955 7.71686 17.2174 8.06276 17.2174 8.40635C17.2174 8.74986 17.1955 9.09577 17.1517 9.43462Z" fill="white"/>
<path d="M8.99977 4.88525C7.05812 4.88525 5.47803 6.46534 5.47803 8.407C5.47803 10.3487 7.05812 11.9287 8.99977 11.9287C10.9414 11.9287 12.5215 10.3487 12.5215 8.407C12.5215 6.46534 10.9414 4.88525 8.99977 4.88525ZM8.99977 11.1461C7.48935 11.1461 6.26063 9.91746 6.26063 8.407C6.26063 6.89654 7.48931 5.66785 8.99977 5.66785C10.5102 5.66785 11.7389 6.89657 11.7389 8.407C11.7389 9.91742 10.5102 11.1461 8.99977 11.1461Z" fill="white"/>
</svg>
