<svg width="32" height="32" viewBox="0 0 32 32" fill="none" xmlns="http://www.w3.org/2000/svg">
<path d="M27.3137 4.68625C24.2917 1.66431 20.2738 0 16 0C11.7262 0 7.70831 1.66431 4.68625 4.68625C1.66431 7.70831 0 11.7262 0 16C0 20.2738 1.66431 24.2917 4.68625 27.3137C7.70831 30.3357 11.7262 32 16 32C20.2738 32 24.2917 30.3357 27.3137 27.3137C30.3357 24.2917 32 20.2738 32 16C32 11.7262 30.3357 7.70831 27.3137 4.68625ZM16 30.125C8.21144 30.125 1.875 23.7886 1.875 16C1.875 8.21144 8.21144 1.875 16 1.875C23.7886 1.875 30.125 8.21144 30.125 16C30.125 23.7886 23.7886 30.125 16 30.125Z" fill="#1CE0E2"/>
<path d="M21 13.1875C22.8954 13.1875 24.4375 11.6454 24.4375 9.75C24.4375 7.85456 22.8954 6.3125 21 6.3125C19.1046 6.3125 17.5625 7.85456 17.5625 9.75C17.5625 10.0206 17.5949 10.2836 17.6543 10.5363L12.1841 13.5752C11.5613 12.9501 10.7001 12.5625 9.75 12.5625C7.85456 12.5625 6.3125 14.1046 6.3125 16C6.3125 17.8954 7.85456 19.4375 9.75 19.4375C10.7001 19.4375 11.5613 19.0499 12.1841 18.4247L17.6543 21.4637C17.5949 21.7164 17.5625 21.9794 17.5625 22.25C17.5625 24.1454 19.1046 25.6875 21 25.6875C22.8954 25.6875 24.4375 24.1454 24.4375 22.25C24.4375 20.3546 22.8954 18.8125 21 18.8125C20.0499 18.8125 19.1887 19.2001 18.5659 19.8253L13.0957 16.7863C13.1551 16.5336 13.1875 16.2706 13.1875 16C13.1875 15.7294 13.1551 15.4664 13.0957 15.2137L18.5659 12.1748C19.1887 12.7999 20.0499 13.1875 21 13.1875ZM21 20.6875C21.8616 20.6875 22.5625 21.3884 22.5625 22.25C22.5625 23.1116 21.8616 23.8125 21 23.8125C20.1384 23.8125 19.4375 23.1116 19.4375 22.25C19.4375 21.3884 20.1384 20.6875 21 20.6875ZM9.75 17.5625C8.88844 17.5625 8.1875 16.8616 8.1875 16C8.1875 15.1384 8.88844 14.4375 9.75 14.4375C10.6116 14.4375 11.3125 15.1384 11.3125 16C11.3125 16.8616 10.6116 17.5625 9.75 17.5625ZM21 8.1875C21.8616 8.1875 22.5625 8.88844 22.5625 9.75C22.5625 10.6116 21.8616 11.3125 21 11.3125C20.1384 11.3125 19.4375 10.6116 19.4375 9.75C19.4375 8.88844 20.1384 8.1875 21 8.1875Z" fill="#1CE0E2"/>
</svg>
