<svg width="20" height="14" viewBox="0 0 20 14" fill="none" xmlns="http://www.w3.org/2000/svg">
<path d="M7.9563 6.57264C7.9563 7.81134 8.87245 8.81911 9.99854 8.81911C11.1246 8.81911 12.0408 7.81134 12.0408 6.57264C12.0408 5.33394 11.1246 4.32617 9.99854 4.32617C8.87245 4.32617 7.9563 5.33394 7.9563 6.57264Z" fill="#A6A6A6"/>
<path d="M19.8225 6.23673C18.8433 4.37486 17.4353 2.81325 15.7507 1.72084C14.0159 0.595898 12.029 0.000943834 10.0046 4.52474e-05C10.0031 4.52474e-05 10.0016 0 10 0C9.99845 0 9.99698 4.52474e-05 9.99543 4.52474e-05C7.97099 0.000943834 5.98414 0.595898 4.24933 1.72084C2.56469 2.81325 1.15664 4.37481 0.177471 6.23673L0 6.57419L0.177471 6.91166C1.15668 8.77353 2.56469 10.3351 4.24933 11.4275C5.98414 12.5525 7.97099 13.1474 9.99543 13.1483C9.99694 13.1483 9.99845 13.1484 10 13.1484C10.0016 13.1484 10.003 13.1483 10.0046 13.1483C12.029 13.1474 14.0159 12.5525 15.7507 11.4275C17.4353 10.3351 18.8434 8.77357 19.8225 6.91166L20 6.57419L19.8225 6.23673ZM14.7512 6.57419C14.7512 9.45439 12.6222 11.7979 10.0043 11.8005C10.0029 11.8005 10.0014 11.8005 9.99996 11.8005C9.99849 11.8005 9.99706 11.8005 9.99559 11.8005C7.37776 11.7979 5.24872 9.45439 5.24872 6.57419C5.24872 3.694 7.37776 1.35053 9.99559 1.34792C9.99706 1.34792 9.99849 1.34788 9.99996 1.34788C10.0014 1.34788 10.0029 1.34792 10.0043 1.34792C12.6222 1.35053 14.7512 3.694 14.7512 6.57419ZM1.42299 6.57419C2.35997 4.93036 3.66166 3.60751 5.17218 2.7038C4.45033 3.79037 4.02346 5.12837 4.02346 6.57419C4.02346 8.02002 4.45029 9.35801 5.17218 10.4446C3.66166 9.54088 2.35997 8.21802 1.42299 6.57419ZM14.8279 10.4446C15.5497 9.35801 15.9766 8.02002 15.9766 6.57419C15.9766 5.12837 15.5498 3.79037 14.8279 2.7038C16.3383 3.60751 17.64 4.93036 18.577 6.57419C17.64 8.21802 16.3383 9.54088 14.8279 10.4446Z" fill="#A6A6A6"/>
</svg>
