<svg width="24" height="24" viewBox="0 0 24 24" fill="none" xmlns="http://www.w3.org/2000/svg">
<path d="M12.0001 0C5.38305 0 0 5.38305 0 12.0003C0 18.6174 5.38305 24.0006 12.0001 24.0006C18.6169 24.0006 24 18.6174 24 12.0003C24 5.38305 18.6169 0 12.0001 0ZM12.0001 23.0222C5.92272 23.0222 0.978376 18.0775 0.978376 12.0003C0.978376 5.92293 5.92272 0.978376 12.0001 0.978376C18.0773 0.978376 23.0216 5.92293 23.0216 12.0003C23.0216 18.0775 18.0773 23.0222 12.0001 23.0222Z" fill="#1CE0E2"/>
<path d="M18.1977 7.21554L9.6651 15.748L5.80238 11.8855C5.61135 11.6944 5.30181 11.6944 5.11056 11.8855C4.91953 12.0765 4.91953 12.386 5.11056 12.5773L9.31919 16.7857C9.41471 16.8812 9.5399 16.9289 9.6651 16.9289C9.7903 16.9289 9.91549 16.8812 10.011 16.7857L18.8896 7.90737C19.0806 7.71633 19.0806 7.40658 18.8896 7.21554C18.6985 7.02451 18.3888 7.02451 18.1977 7.21554Z" fill="#1CE0E2"/>
</svg>
