<svg width="26" height="26" viewBox="0 0 26 26" fill="none" xmlns="http://www.w3.org/2000/svg">
<circle cx="13" cy="13" r="13" fill="#EFEFEF"/>
<path d="M20.1794 8H5.82053C5.36922 8 5 8.36922 5 8.8205V17.8461C5 18.2974 5.36922 18.6667 5.82053 18.6667H20.1795C20.6307 18.6667 21 18.2975 21 17.8461V8.8205C21 8.36922 20.6308 8 20.1794 8ZM19.8715 8.61534L13.472 13.4154C13.3569 13.503 13.1803 13.5577 13 13.5569C12.8196 13.5577 12.643 13.503 12.528 13.4154L6.1284 8.61534H19.8715ZM16.4531 13.7321L19.9403 18.0398C19.9438 18.0441 19.9481 18.0474 19.9518 18.0513H6.04819C6.05187 18.0472 6.05619 18.0441 6.05969 18.0398L9.54687 13.7321C9.65371 13.6 9.63346 13.4064 9.50112 13.2993C9.36902 13.1924 9.17537 13.2127 9.06849 13.3448L5.61537 17.6105V8.99997L12.1589 13.9076C12.4049 14.0908 12.7041 14.1715 12.9999 14.1723C13.2953 14.1716 13.5948 14.091 13.8409 13.9076L20.3845 8.99997V17.6104L16.9314 13.3448C16.8246 13.2127 16.6307 13.1924 16.4988 13.2993C16.3665 13.4061 16.3462 13.6 16.4531 13.7321Z" fill="#1CE0E2"/>
</svg>
