<svg width="26" height="26" viewBox="0 0 26 26" fill="none" xmlns="http://www.w3.org/2000/svg">
<circle cx="13" cy="13" r="13" fill="#EFEFEF"/>
<path d="M6.71125 18.0008C6.5224 18.0008 6.36914 17.8476 6.36914 17.6587V9.44819C6.36914 8.88235 6.82961 8.42188 7.39546 8.42188H8.07967C8.26851 8.42188 8.42177 8.57514 8.42177 8.76398C8.42177 8.95282 8.26851 9.10608 8.07967 9.10608H7.39546C7.20661 9.10608 7.05335 9.25935 7.05335 9.44819V17.6587C7.05335 17.8476 6.90009 18.0008 6.71125 18.0008Z" fill="#1CE0E2"/>
<path d="M19.7105 18.0008C19.5217 18.0008 19.3684 17.8476 19.3684 17.6587V9.44819C19.3684 9.25935 19.2152 9.10608 19.0263 9.10608H18.3421C18.1526 9.10608 18 8.95282 18 8.76398C18 8.57514 18.1526 8.42188 18.3421 8.42188H19.0263C19.5922 8.42188 20.0526 8.88235 20.0526 9.44819V17.6587C20.0526 17.8476 19.8994 18.0008 19.7105 18.0008Z" fill="#1CE0E2"/>
<path d="M21.0789 18.0006H5.3421C5.15326 18.0006 5 17.8474 5 17.6585C5 17.4697 5.15326 17.3164 5.3421 17.3164H21.0789C21.2678 17.3164 21.421 17.4697 21.421 17.6585C21.421 17.8474 21.2678 18.0006 21.0789 18.0006Z" fill="#1CE0E2"/>
<path d="M13.2105 11.1574C12.2677 11.1574 11.5 10.3897 11.5 9.44685C11.5 8.50401 12.2677 7.73633 13.2105 7.73633C14.1534 7.73633 14.9211 8.50401 14.9211 9.44685C14.9211 10.3897 14.1534 11.1574 13.2105 11.1574ZM13.2105 8.42054C12.6447 8.42054 12.1842 8.88101 12.1842 9.44685C12.1842 10.0127 12.6447 10.4732 13.2105 10.4732C13.7764 10.4732 14.2368 10.0127 14.2368 9.44685C14.2368 8.88101 13.7764 8.42054 13.2105 8.42054Z" fill="#1CE0E2"/>
<path d="M13.7561 13.8947H12.6648C12.3118 13.8947 12.0189 13.6299 11.984 13.2783L11.8971 12.4086C11.6898 12.3163 11.4921 12.2013 11.3053 12.0645L10.5062 12.425C10.1846 12.5708 9.80894 12.4497 9.63241 12.1432L9.08642 11.1989C8.90989 10.8931 8.99336 10.5072 9.27936 10.3013L9.98341 9.79494C9.97041 9.68889 9.96084 9.57052 9.96084 9.44736C9.96084 9.32421 9.97041 9.20584 9.9841 9.10047L9.28005 8.59415C8.99336 8.38821 8.90989 8.00231 9.08642 7.69579L9.63241 6.75158C9.80894 6.44642 10.1832 6.32463 10.5062 6.46968L11.3053 6.83026C11.4921 6.69342 11.6898 6.57847 11.8971 6.4861L11.9847 5.61579C12.0196 5.26479 12.3125 5 12.6655 5H13.7568C14.1099 5 14.4027 5.26479 14.4376 5.61647L14.5245 6.4861C14.7325 6.57847 14.9303 6.6941 15.1164 6.83026L15.9155 6.46968C16.2371 6.32531 16.6134 6.44574 16.7893 6.75158L17.3346 7.69647C17.5111 8.00231 17.4276 8.38821 17.1416 8.59415L16.4376 9.10047C16.4513 9.20584 16.4608 9.32421 16.4608 9.44736C16.4608 9.57052 16.4513 9.68889 16.4376 9.79426L17.1416 10.3006C17.4276 10.5065 17.5111 10.8924 17.3346 11.1983L16.7893 12.1432C16.6127 12.4483 16.2371 12.5701 15.9155 12.425L15.1164 12.0645C14.9296 12.2013 14.7318 12.3163 14.5245 12.4086L14.4369 13.2789C14.402 13.6299 14.1092 13.8947 13.7561 13.8947ZM11.3532 11.3255C11.4319 11.3255 11.5099 11.3529 11.5728 11.4056C11.8048 11.5999 12.0614 11.7484 12.3344 11.8483C12.4575 11.8934 12.5444 12.0049 12.5574 12.1356L12.6655 13.2105H13.7568L13.8643 12.1356C13.8773 12.0049 13.9641 11.8934 14.0873 11.8483C14.3603 11.7484 14.6169 11.5992 14.8488 11.4056C14.9501 11.3214 15.0904 11.3029 15.2087 11.3563L16.1967 11.8024L16.742 10.8575L15.8676 10.2294C15.7609 10.1528 15.7082 10.0214 15.7301 9.8921C15.7561 9.74636 15.7766 9.59994 15.7766 9.44736C15.7766 9.29479 15.7561 9.14837 15.7308 9.004C15.7082 8.87468 15.7616 8.744 15.8683 8.66668L16.7427 8.03858L16.1967 7.09368L15.2087 7.5391C15.0897 7.59316 14.9487 7.57331 14.8481 7.48984C14.6169 7.29552 14.361 7.14705 14.0866 7.04716C13.9635 7.002 13.8766 6.89047 13.8636 6.75979L13.7561 5.68421H12.6648L12.5574 6.7591C12.5444 6.88979 12.4575 7.00131 12.3344 7.04647C12.0614 7.14637 11.8048 7.29552 11.5728 7.48984C11.4723 7.574 11.332 7.59316 11.2129 7.5391L10.2249 7.093L9.67894 8.03789L10.5534 8.666C10.6601 8.74331 10.7135 8.87468 10.6909 9.004C10.6656 9.14837 10.645 9.29479 10.645 9.44736C10.645 9.59994 10.6656 9.74636 10.6909 9.89073C10.7135 10.02 10.6601 10.1507 10.5534 10.228L9.67894 10.8568L10.2243 11.8017L11.2123 11.3563C11.2581 11.3351 11.3053 11.3255 11.3532 11.3255Z" fill="#1CE0E2"/>
</svg>
