<svg width="62" height="63" viewBox="0 0 62 63" fill="none" xmlns="http://www.w3.org/2000/svg">
<path d="M31.0003 0C13.9062 0 0 13.9062 0 31.0008C0 48.0949 13.9062 62.0016 31.0003 62.0016C48.0938 62.0016 62 48.0949 62 31.0008C62 13.9062 48.0938 0 31.0003 0ZM31.0003 59.4741C15.3004 59.4741 2.52747 46.7002 2.52747 31.0008C2.52747 15.3009 15.3004 2.52747 31.0003 2.52747C46.6996 2.52747 59.4725 15.3009 59.4725 31.0008C59.4725 46.7002 46.6996 59.4741 31.0003 59.4741Z" fill="#1CE0E2"/>
<path d="M47.0097 18.6383L24.9671 40.6804L14.9884 30.7023C14.4949 30.2088 13.6952 30.2088 13.2012 30.7023C12.7077 31.1958 12.7077 31.9954 13.2012 32.4895L24.0735 43.3612C24.3202 43.608 24.6437 43.7311 24.9671 43.7311C25.2905 43.7311 25.6139 43.608 25.8607 43.3612L48.7969 20.4255C49.2904 19.932 49.2904 19.1318 48.7969 18.6383C48.3034 18.1448 47.5032 18.1448 47.0097 18.6383Z" fill="#1CE0E2"/>
</svg>
