<svg width="29" height="29" viewBox="0 0 29 29" fill="none" xmlns="http://www.w3.org/2000/svg">
    <circle cx="14.5" cy="14.5" r="14.5" fill="#F2F0F7" />
    <path d="M16.2503 12.7539C16.0861 12.7539 15.9531 12.8869 15.9531 13.051V18.6668C15.9531 18.8308 16.0861 18.9639 16.2503 18.9639C16.4144 18.9639 16.5474 18.8308 16.5474 18.6668V13.051C16.5474 12.8869 16.4144 12.7539 16.2503 12.7539Z" fill="#EE101F" />
    <path d="M12.7424 12.7539C12.5783 12.7539 12.4453 12.8869 12.4453 13.051V18.6668C12.4453 18.8308 12.5783 18.9639 12.7424 18.9639C12.9066 18.9639 13.0396 18.8308 13.0396 18.6668V13.051C13.0396 12.8869 12.9066 12.7539 12.7424 12.7539Z" fill="#EE101F" />
    <path d="M10.1876 11.9334V19.2541C10.1876 19.6868 10.3463 20.0931 10.6235 20.3847C10.8994 20.6771 11.2833 20.8431 11.6851 20.8438H17.3069C17.7089 20.8431 18.0928 20.6771 18.3686 20.3847C18.6458 20.0931 18.8044 19.6868 18.8044 19.2541V11.9334C19.3554 11.7872 19.7124 11.2549 19.6387 10.6896C19.5649 10.1243 19.0833 9.70148 18.5132 9.70137H16.9919V9.32995C16.9937 9.01762 16.8702 8.7177 16.6491 8.49706C16.428 8.27653 16.1276 8.15374 15.8152 8.15629H13.1768C12.8645 8.15374 12.5641 8.27653 12.343 8.49706C12.1219 8.7177 11.9984 9.01762 12.0001 9.32995V9.70137H10.4789C9.90874 9.70148 9.42718 10.1243 9.35336 10.6896C9.27966 11.2549 9.63668 11.7872 10.1876 11.9334ZM17.3069 20.2495H11.6851C11.1771 20.2495 10.7819 19.8131 10.7819 19.2541V11.9596H18.2102V19.2541C18.2102 19.8131 17.815 20.2495 17.3069 20.2495ZM12.5944 9.32995C12.5924 9.17524 12.6532 9.02632 12.763 8.9171C12.8727 8.80789 13.022 8.74788 13.1768 8.75055H15.8152C15.9701 8.74788 16.1193 8.80789 16.229 8.9171C16.3388 9.02621 16.3996 9.17524 16.3977 9.32995V9.70137H12.5944V9.32995ZM10.4789 10.2956H18.5132C18.8086 10.2956 19.048 10.5351 19.048 10.8305C19.048 11.1259 18.8086 11.3653 18.5132 11.3653H10.4789C10.1835 11.3653 9.94402 11.1259 9.94402 10.8305C9.94402 10.5351 10.1835 10.2956 10.4789 10.2956Z" fill="#EE101F" />
    <path d="M14.4963 12.7539C14.3322 12.7539 14.1992 12.8869 14.1992 13.051V18.6668C14.1992 18.8308 14.3322 18.9639 14.4963 18.9639C14.6605 18.9639 14.7935 18.8308 14.7935 18.6668V13.051C14.7935 12.8869 14.6605 12.7539 14.4963 12.7539Z" fill="#EE101F" />
</svg>
