<svg width="32" height="32" viewBox="0 0 32 32" fill="none" xmlns="http://www.w3.org/2000/svg">
<circle cx="16" cy="16" r="16" fill="#EFEFEF"/>
<path d="M20.1093 12.3888V11.8442C20.5597 11.8442 20.9261 11.4778 20.9261 11.0275C20.9261 10.5772 20.5597 10.2107 20.1093 10.2107H19.5648C19.4145 10.2107 19.2926 10.0887 19.2926 9.93844C19.2926 9.78815 19.4145 9.66618 19.5648 9.66618H20.3816V9.93844H20.9261V9.12166H20.1093V8.57715H19.5648V9.12166C19.1145 9.12166 18.748 9.48812 18.748 9.93844C18.748 10.3888 19.1145 10.7552 19.5648 10.7552H20.1093C20.2596 10.7552 20.3816 10.8772 20.3816 11.0275C20.3816 11.1778 20.2596 11.2997 20.1093 11.2997H19.2926V11.0275H18.748V11.8442H19.5648V12.3888H20.1093Z" fill="#132B66"/>
<path d="M22.8305 10.4831C22.8305 8.83187 21.4869 7.48828 19.8357 7.48828C18.1844 7.48828 16.8408 8.83187 16.8408 10.4831C16.8408 12.1344 18.1844 13.478 19.8357 13.478C21.4869 13.478 22.8305 12.1344 22.8305 10.4831ZM17.3853 10.4831C17.3853 9.1319 18.4844 8.0328 19.8357 8.0328C21.1869 8.0328 22.286 9.1319 22.286 10.4831C22.286 11.8343 21.1869 12.9334 19.8357 12.9334C18.4844 12.9334 17.3853 11.8343 17.3853 10.4831Z" fill="#132B66"/>
<path d="M23.92 10.4843C23.92 8.23242 22.088 6.40039 19.8362 6.40039C17.5843 6.40039 15.7523 8.23242 15.7523 10.4843C15.7523 12.218 16.84 13.6991 18.3676 14.2904L17.8176 14.8404H15.6287L13.7229 17.0185H10.4604L7.11246 20.6452L7.51241 21.0147L10.6986 17.563H13.9704L15.8762 15.3849H18.0433L18.9579 14.4704C19.2073 14.5254 19.4651 14.5559 19.7292 14.5627L18.3622 15.9294H15.8884L14.2549 18.1075H11.0003L7.04004 22.6335V23.2804H22.831V13.2515C23.5046 12.5229 23.92 11.5523 23.92 10.4843ZM16.2968 10.4843C16.2968 8.53272 17.8846 6.94491 19.8362 6.94491C21.7877 6.94491 23.3755 8.53272 23.3755 10.4843C23.3755 12.4358 21.7877 14.0236 19.8362 14.0236C17.8846 14.0236 16.2968 12.4358 16.2968 10.4843ZM20.6529 14.4859V22.7359H19.5639V15.4976L20.5617 14.4998C20.592 14.4944 20.623 14.4919 20.6529 14.4859ZM18.5876 16.4739L19.0194 16.0421V22.7359H17.9304V16.4739H18.5876ZM10.8517 22.7359H9.76262V20.349L10.8517 19.1045V22.7359ZM11.3962 18.652H12.4852V22.7359H11.3962V18.652ZM13.0297 18.652H14.1187V22.7359H13.0297V18.652ZM14.6633 18.4704L15.7523 17.0185V22.7359H14.6633V18.4704ZM16.2968 16.4739H17.3858V22.7359H16.2968V16.4739ZM9.2181 20.9714V22.7359H7.67413L9.2181 20.9714ZM21.1975 22.7359V14.3299C21.592 14.1897 21.9581 13.9912 22.2865 13.7437V22.7359H21.1975Z" fill="#132B66"/>
<path d="M8.67538 16.4735H9.21989V15.3844H9.76441V12.1174H9.21989V11.0283H8.67538V12.1174H8.13086V15.3844H8.67538V16.4735ZM8.67538 12.6619H9.21989V14.8399H8.67538V12.6619Z" fill="#132B66"/>
<path d="M10.8531 15.1116H11.3976V14.0226H11.9421V11.3H11.3976V10.2109H10.8531V11.3H10.3086V14.0226H10.8531V15.1116ZM10.8531 11.8445H11.3976V13.478H10.8531V11.8445Z" fill="#132B66"/>
<path d="M13.0308 13.2057H13.5754V12.1167H14.1199V9.93864H13.5754V8.84961H13.0308V9.93864H12.4863V12.1167H13.0308V13.2057ZM13.0308 10.4832H13.5754V11.5722H13.0308V10.4832Z" fill="#132B66"/>
</svg>
