<svg width="14" height="17" viewBox="0 0 14 17" fill="none" xmlns="http://www.w3.org/2000/svg">
<path d="M6.87495 16.5C7.25445 16.5 7.56245 16.192 7.56245 15.8125V2.09722L12.5647 7.34903C12.6998 7.491 12.8809 7.5625 13.0624 7.5625C13.2326 7.5625 13.4034 7.49959 13.5365 7.37275C13.8115 7.11081 13.8221 6.67563 13.5602 6.40063L7.84742 0.402875C7.58754 0.143344 7.24242 0 6.87495 0C6.50748 0 6.16235 0.143344 5.89114 0.414906L0.189698 6.40097C-0.0722391 6.67597 -0.0615827 7.11116 0.213417 7.37309C0.488417 7.63503 0.923949 7.62437 1.18554 7.34937L6.18745 2.07556V15.8125C6.18745 16.192 6.49545 16.5 6.87495 16.5Z" fill="#00DA9D"/>
</svg>
