<svg width="50" height="28" viewBox="0 0 50 39" fill="none" xmlns="http://www.w3.org/2000/svg">
    <path d="M5.13178 39.0005C4.56526 39.0005 4.10547 38.5407 4.10547 37.9742V13.3426C4.10547 11.6451 5.48689 10.2637 7.18441 10.2637H9.23704C9.80357 10.2637 10.2634 10.7235 10.2634 11.29C10.2634 11.8565 9.80357 12.3163 9.23704 12.3163H7.18441C6.61789 12.3163 6.1581 12.7761 6.1581 13.3426V37.9742C6.1581 38.5407 5.69831 39.0005 5.13178 39.0005Z" fill="#1CE0E2" />
    <path d="M44.1316 39.0005C43.565 39.0005 43.1053 38.5407 43.1053 37.9742V13.3426C43.1053 12.7761 42.6455 12.3163 42.0789 12.3163H40.0263C39.4577 12.3163 39 11.8565 39 11.29C39 10.7235 39.4577 10.2637 40.0263 10.2637H42.0789C43.7765 10.2637 45.1579 11.6451 45.1579 13.3426V37.9742C45.1579 38.5407 44.6981 39.0005 44.1316 39.0005Z" fill="#1CE0E2" />
    <path d="M48.2368 38.9999H1.02631C0.459789 38.9999 0 38.5401 0 37.9736C0 37.4071 0.459789 36.9473 1.02631 36.9473H48.2368C48.8033 36.9473 49.2631 37.4071 49.2631 37.9736C49.2631 38.5401 48.8033 38.9999 48.2368 38.9999Z" fill="#1CE0E2" />
    <path d="M24.6316 18.4741C21.8031 18.4741 19.5 16.171 19.5 13.3425C19.5 10.514 21.8031 8.21094 24.6316 8.21094C27.4601 8.21094 29.7631 10.514 29.7631 13.3425C29.7631 16.171 27.4601 18.4741 24.6316 18.4741ZM24.6316 10.2636C22.934 10.2636 21.5526 11.645 21.5526 13.3425C21.5526 15.04 22.934 16.4215 24.6316 16.4215C26.3291 16.4215 27.7105 15.04 27.7105 13.3425C27.7105 11.645 26.3291 10.2636 24.6316 10.2636Z" fill="#1CE0E2" />
    <path d="M26.2665 26.6842H22.9925C21.9334 26.6842 21.0549 25.8898 20.9502 24.8348L20.6895 22.2259C20.0675 21.9488 19.4743 21.6039 18.914 21.1934L16.5165 22.2751C15.5518 22.7124 14.4249 22.349 13.8953 21.4295L12.2573 18.5968C11.7277 17.6793 11.9781 16.5216 12.8361 15.9038L14.9483 14.3848C14.9093 14.0667 14.8806 13.7116 14.8806 13.3421C14.8806 12.9726 14.9093 12.6175 14.9503 12.3014L12.8382 10.7825C11.9781 10.1646 11.7277 9.00694 12.2573 8.08736L13.8953 5.25473C14.4249 4.33926 15.5477 3.97389 16.5165 4.40905L18.914 5.49079C19.4743 5.08026 20.0675 4.73542 20.6895 4.45831L20.9522 1.84737C21.0569 0.794368 21.9354 0 22.9946 0H26.2685C27.3277 0 28.2062 0.794368 28.3109 1.84942L28.5716 4.45831C29.1956 4.73542 29.7888 5.08231 30.3471 5.49079L32.7446 4.40905C33.7093 3.97594 34.8383 4.33721 35.3658 5.25473L37.0017 8.08941C37.5313 9.00694 37.2809 10.1646 36.4229 10.7825L34.3107 12.3014C34.3518 12.6175 34.3805 12.9726 34.3805 13.3421C34.3805 13.7116 34.3518 14.0667 34.3107 14.3828L36.4229 15.9017C37.2809 16.5196 37.5313 17.6772 37.0017 18.5948L35.3658 21.4295C34.8362 22.3449 33.7093 22.7103 32.7446 22.2751L30.3471 21.1934C29.7868 21.6039 29.1935 21.9488 28.5716 22.2259L28.3089 24.8368C28.2042 25.8898 27.3256 26.6842 26.2665 26.6842ZM19.0577 18.9766C19.2937 18.9766 19.5277 19.0587 19.7165 19.2167C20.4124 19.7997 21.1821 20.2451 22.0011 20.5448C22.3706 20.6802 22.6313 21.0148 22.6703 21.4069L22.9946 24.6316H26.2685L26.5908 21.4069C26.6298 21.0148 26.8905 20.6802 27.26 20.5448C28.079 20.2451 28.8487 19.7976 29.5445 19.2167C29.8483 18.9642 30.2691 18.9088 30.6242 19.0689L33.5882 20.4072L35.2242 17.5726L32.6009 15.6882C32.2807 15.4584 32.1226 15.0642 32.1883 14.6763C32.2663 14.2391 32.3279 13.7998 32.3279 13.3421C32.3279 12.8844 32.2663 12.4451 32.1904 12.012C32.1226 11.624 32.2827 11.232 32.603 11L35.2262 9.11573L33.5882 6.28105L30.6242 7.61731C30.2671 7.77947 29.8442 7.71994 29.5425 7.46952C28.8487 6.88657 28.081 6.44115 27.2579 6.14147C26.8884 6.006 26.6278 5.67142 26.5888 5.27936L26.2665 2.05263H22.9925L22.6703 5.27731C22.6313 5.66936 22.3706 6.00394 22.0011 6.13942C21.1821 6.4391 20.4124 6.88657 19.7165 7.46952C19.4148 7.72199 18.994 7.77947 18.6369 7.61731L15.6729 6.279L14.0349 9.11368L16.6581 10.998C16.9783 11.2299 17.1384 11.624 17.0707 12.012C16.9948 12.4451 16.9332 12.8844 16.9332 13.3421C16.9332 13.7998 16.9948 14.2391 17.0707 14.6722C17.1384 15.0601 16.9783 15.4522 16.6581 15.6841L14.0349 17.5705L15.6708 20.4052L18.6348 19.0689C18.7723 19.0053 18.914 18.9766 19.0577 18.9766Z" fill="#1CE0E2" />
</svg>