<svg width="10" height="12" viewBox="0 0 12 12" fill="none" xmlns="http://www.w3.org/2000/svg">
    <path d="M2.85344 3.35344L4.49994 1.70694V8.99994C4.49994 9.27594 4.72394 9.49994 4.99994 9.49994C5.27594 9.49994 5.49994 9.27594 5.49994 8.99994V1.70694L7.14644 3.35344C7.24394 3.45119 7.37194 3.49994 7.49994 3.49994C7.62794 3.49994 7.75594 3.45119 7.85344 3.35344C8.04869 3.15819 8.04869 2.84169 7.85344 2.64644L5.35344 0.146437C5.15844 -0.0488125 4.84144 -0.0488125 4.64644 0.146437L2.14644 2.64644C1.95119 2.84169 1.95119 3.15819 2.14644 3.35344C2.34144 3.54869 2.65844 3.54869 2.85344 3.35344Z" fill="#180D5B"/>
    <path d="M9.5 8C9.224 8 9 8.224 9 8.5V10.5C9 10.7757 8.77575 11 8.5 11H1.5C1.22425 11 1 10.7757 1 10.5V8.5C1 8.224 0.776 8 0.5 8C0.224 8 0 8.224 0 8.5V10.5C0 11.3273 0.67275 12 1.5 12H8.5C9.32725 12 10 11.3273 10 10.5V8.5C10 8.224 9.776 8 9.5 8Z" fill="#180D5B"/>
    </svg>
