<svg width="17" height="16" viewBox="0 0 17 16" fill="none" xmlns="http://www.w3.org/2000/svg">
<path fill-rule="evenodd" clip-rule="evenodd" d="M14.3563 2.88596C14.4915 3.04801 14.6187 3.21572 14.7401 3.38748L14.7409 3.38667C15.6968 4.7347 16.2103 6.34671 16.2103 7.9996C16.2103 9.65248 15.6968 11.2645 14.7409 12.6125C14.6195 12.7843 14.4915 12.952 14.3571 13.114C13.6081 14.0172 12.6694 14.744 11.6077 15.2428C10.546 15.7416 9.38745 16.0002 8.21454 16H8.16757C7.00268 15.9933 5.85337 15.7315 4.80033 15.2331C3.74729 14.7347 2.81604 14.0117 2.07194 13.1148C1.93753 12.9528 1.80959 12.7851 1.68813 12.6133C0.732234 11.2653 0.21875 9.65329 0.21875 8.00041C0.21875 6.34752 0.732234 4.73551 1.68813 3.38748C1.80959 3.21518 1.93753 3.04801 2.07194 2.88596C2.816 1.98903 3.74722 1.2659 4.80026 0.767344C5.8533 0.268786 7.00263 0.00687663 8.16757 3.03669e-08H8.21454C9.38732 -0.000102306 10.5457 0.258454 11.6073 0.757267C12.6688 1.25608 13.6074 1.98289 14.3563 2.88596ZM4.11084 4.03079C4.45721 2.90909 5.06245 1.88467 5.87766 1.04031C4.60159 1.4727 3.46864 2.24732 2.60232 3.27972C3.07589 3.58507 3.58182 3.83696 4.11084 4.03079ZM3.9246 4.64331C3.32449 4.42178 2.75156 4.13256 2.21689 3.78124C1.35775 4.99607 0.890167 6.4446 0.876786 7.93275H3.48735C3.48927 6.82189 3.63626 5.71605 3.9246 4.64331ZM3.49949 8.58821H0.901078C0.956892 9.2858 1.11249 9.96847 1.36059 10.6161L0.998901 10.7602L1.44057 12.0394L1.93449 11.788C1.99476 11.8874 2.05748 11.9855 2.12262 12.0822L1.96671 11.807C1.87699 11.6486 1.93265 11.4475 2.09103 11.3578C2.24942 11.268 2.45054 11.3237 2.54025 11.4821L2.76307 11.8754C2.76494 11.8787 2.76674 11.8821 2.76848 11.8854C3.13938 11.6803 3.52557 11.5035 3.92379 11.3567C3.68006 10.4525 3.53775 9.52394 3.49949 8.58821ZM4.1076 11.97C3.5796 12.1641 3.07453 12.4157 2.60151 12.7203H2.60394C3.46887 13.752 4.60008 14.5266 5.87443 14.9597C5.05913 14.1157 4.45386 13.0915 4.1076 11.97ZM4.71732 11.7659C5.37401 13.7549 6.53759 15.1363 7.88417 15.321V11.2797C6.81171 11.3009 5.7468 11.4644 4.71732 11.7659ZM4.53352 11.1477C5.62132 10.8208 6.74859 10.6439 7.88417 10.6218L7.8866 8.58821H4.15618C4.19072 9.45235 4.31722 10.3103 4.53352 11.1477ZM4.14242 7.93113H7.88417L7.88579 7.93275V5.37654C6.75137 5.35469 5.62522 5.17833 4.53837 4.85234C4.27793 5.85794 4.1449 6.89232 4.14242 7.93113ZM4.71975 4.23334C5.74841 4.53481 6.81251 4.69828 7.88417 4.71947L7.8866 0.679765C6.54083 0.864493 5.37968 2.24752 4.71975 4.23334ZM12.9012 7.93113H15.5491L15.5515 7.93275C15.5375 6.44407 15.0691 4.99522 14.209 3.78043C13.6642 4.13862 13.0797 4.43226 12.4672 4.65546C12.7534 5.72388 12.8993 6.82502 12.9012 7.93113ZM12.2842 4.04294C12.824 3.84731 13.3401 3.59157 13.8227 3.28053C12.9439 2.23234 11.7907 1.44986 10.4923 1.02086C11.3215 1.87117 11.9358 2.90724 12.2842 4.04294ZM11.6721 4.24954C11.0211 2.2702 9.87367 0.89042 8.54248 0.684627V4.72433C9.60193 4.70355 10.6541 4.54393 11.6721 4.24954ZM11.8543 4.86125C10.7784 5.1808 9.6645 5.35412 8.54248 5.37654V7.93032H12.2478C12.2456 6.89485 12.1134 5.86375 11.8543 4.86125ZM12.234 8.58821H8.54248L8.54329 10.6226C9.66609 10.6446 10.7808 10.8176 11.8575 11.1371C12.0724 10.3031 12.1986 9.44875 12.234 8.58821ZM8.54248 11.2789V15.3129C9.87367 15.1096 11.0219 13.7298 11.6745 11.7537C10.6557 11.4593 9.60273 11.2997 8.54248 11.2789ZM12.2842 11.9554C11.9362 13.0913 11.3218 14.1274 10.4923 14.9775V14.9799C11.791 14.5499 12.9443 13.7663 13.8227 12.717C13.34 12.4063 12.8239 12.1509 12.2842 11.9554ZM12.4697 11.3429C13.0822 11.5657 13.6667 11.8591 14.2114 12.2171L14.2122 12.2196C14.9677 11.1492 15.4206 9.89463 15.5231 8.58821H12.8899C12.852 9.51917 12.7111 10.443 12.4697 11.3429ZM1.49178 9.6231C1.6683 9.57237 1.85252 9.67435 1.90325 9.85088L2.05216 10.3691C2.10288 10.5456 2.0009 10.7298 1.82438 10.7805C1.64785 10.8313 1.46363 10.7293 1.41291 10.5528L1.264 10.0346C1.21327 9.85805 1.31525 9.67382 1.49178 9.6231Z" fill="#1CE0E2"/>
</svg>
