<svg width="28" height="29" viewBox="0 0 28 29" fill="none" xmlns="http://www.w3.org/2000/svg">
<path d="M0 14.7852C0 7.05317 6.26801 0.785156 14 0.785156C21.732 0.785156 28 7.05317 28 14.7852C28 22.5171 21.732 28.7852 14 28.7852C6.26801 28.7852 0 22.5171 0 14.7852Z" fill="url(#paint0_linear)"/>
<path d="M19.6535 7.78516H21.969L17.152 12.9242C16.7462 13.353 16.2576 13.6951 15.7159 13.9299C15.1741 14.1647 14.5904 14.2872 14 14.2902C13.4096 14.2872 12.8259 14.1647 12.2841 13.9299C11.7424 13.6951 11.2538 13.353 10.848 12.9242L6.023 7.78516H8.3465L12.002 11.7217C13.0725 12.8572 14.9275 12.8572 15.998 11.7217L19.653 7.78516H19.6535ZM8.315 21.7772H6L10.8475 16.6537C11.2541 16.2247 11.7433 15.8825 12.2857 15.6477C12.8281 15.413 13.4125 15.2905 14.0035 15.2877C14.5946 15.2905 15.1789 15.4131 15.7213 15.648C16.2637 15.8828 16.753 16.2251 17.1595 16.6542L22 21.7852H19.6845L16.006 17.8642C14.935 16.7292 13.0805 16.7292 12.01 17.8642L8.3155 21.7772H8.315Z" fill="white"/>
<defs>
<linearGradient id="paint0_linear" x1="5.209" y1="5.64116" x2="34.0735" y2="38.7937" gradientUnits="userSpaceOnUse">
<stop stop-color="#1A1E21"/>
<stop offset="1" stop-color="#06060A"/>
</linearGradient>
</defs>
</svg>
